<svg width="26" height="26" viewBox="0 0 26 26" fill="none" xmlns="http://www.w3.org/2000/svg">
<path d="M25.5 19.0117V24.0211C25.5 24.7649 24.925 25.382 24.1832 25.4344C23.5636 25.4782 23.0581 25.5 22.6667 25.5C10.1481 25.5 0 15.3518 0 2.83333C0 2.44192 0.0218875 1.9364 0.0656625 1.31679C0.118108 0.574997 0.735165 0 1.4788 0H6.48847C6.85211 0 7.15666 0.275428 7.19317 0.637217C7.22595 0.962016 7.25642 1.22278 7.2846 1.41953C7.57116 3.42085 8.1565 5.32576 8.99399 7.08763C9.12842 7.37042 9.04076 7.70892 8.78595 7.89092L5.72836 10.0751C7.58982 14.4232 11.0768 17.9102 15.4249 19.7717L17.6051 16.7194C17.7894 16.4615 18.1319 16.3728 18.4181 16.5087C20.1798 17.3455 22.0846 17.9302 24.0856 18.2161C24.2811 18.2441 24.5402 18.2743 24.8628 18.3069C25.2246 18.3434 25.5 18.648 25.5 19.0117Z" fill="#2BE5EB"/>
</svg>
