<svg width="28" height="23" viewBox="0 0 28 23" fill="none" xmlns="http://www.w3.org/2000/svg">
<path d="M1.90374 9.87979C9.33752 6.64106 14.2946 4.50586 16.7747 3.47423C23.8564 0.528738 25.3279 0.0170806 26.2869 0.000179755C26.4979 -0.00353191 26.9696 0.0487431 27.2751 0.29666C27.533 0.505986 27.604 0.788767 27.638 0.987228C27.672 1.1857 27.7142 1.63782 27.6807 1.99108C27.2969 6.02324 25.6364 15.8083 24.7917 20.3243C24.4342 22.2352 23.7304 22.8759 23.049 22.9386C21.5682 23.0749 20.4436 21.96 19.0094 21.0199C16.7651 19.5487 15.4972 18.6328 13.3186 17.1972C10.801 15.5381 12.4331 14.6262 13.8679 13.136C14.2434 12.746 20.768 6.81139 20.8943 6.27302C20.91 6.20569 20.9247 5.95471 20.7755 5.82218C20.6265 5.68965 20.4065 5.73497 20.2477 5.77103C20.0226 5.82211 16.4371 8.19183 9.49158 12.8804C8.47389 13.5791 7.55211 13.9197 6.72622 13.9018C5.81573 13.8822 4.06433 13.387 2.76234 12.9639C1.1654 12.4447 -0.103812 12.1703 0.006709 11.2887C0.0642738 10.8295 0.696616 10.3599 1.90374 9.87979Z" fill="#042A2B"/>
</svg>
