<svg width="700" height="70" viewBox="0 0 700 70" fill="none" xmlns="http://www.w3.org/2000/svg">
<path d="M-62.4662 25.9008L-62.4774 42.7924L-51.4286 34.3578L-62.4662 25.9008Z" fill="url(#paint0_linear_79_9478)"/>
<path d="M22.2051 14.1652L22.1976 21.6835L5.68259 34.3991L22.1788 47.1411L22.1713 54.6631L0.88512 38.1583L-20.1606 54.633L-41.1763 38.1245L-62.4887 54.5992L-62.4812 47.0773L-45.9662 34.3616L-62.4624 21.6159L-62.4549 14.0976L-41.165 30.6025L-20.123 14.1314L0.896389 30.6363L22.2088 14.1652H22.2051ZM-3.90858 34.3954L-20.1305 21.6534L-36.3713 34.3691L-20.1531 47.1111L-3.91234 34.3954H-3.90858Z" fill="url(#paint1_linear_79_9478)"/>
<path d="M22.1825 42.86L22.1938 25.9683L11.145 34.4067L22.1825 42.86Z" fill="url(#paint2_linear_79_9478)"/>
<path d="M22.2126 0H-62.4474V2.53112H22.2126V0Z" fill="url(#paint3_linear_79_9478)"/>
<path d="M22.2013 13.9211H-62.4587V16.4523H22.2013V13.9211Z" fill="url(#paint4_linear_79_9478)"/>
<path d="M22.1713 53.2887H-62.4887V55.617H22.1713V53.2887Z" fill="url(#paint5_linear_79_9478)"/>
<path d="M-47.8822 8.20547C-47.8822 4.19474 -51.1431 0.92382 -55.1629 0.920064C-59.1752 0.916309 -62.4474 4.17972 -62.4511 8.19421C-62.4511 12.2049 -59.1865 15.4759 -55.1704 15.4759C-51.1506 15.4759 -47.8822 12.2162 -47.8784 8.20547H-47.8822ZM-49.708 8.20172C-49.708 11.1647 -52.1612 13.5756 -55.1704 13.5756C-58.1796 13.5756 -60.6253 11.1572 -60.6216 8.19421C-60.6216 5.22371 -58.1684 2.81652 -55.1592 2.82028C-52.1499 2.82028 -49.7043 5.23498 -49.708 8.20547V8.20172Z" fill="url(#paint6_linear_79_9478)"/>
<path d="M-33.8617 8.21674C-33.8617 4.20601 -37.1227 0.935086 -41.1425 0.931331C-45.1547 0.931331 -48.4307 4.19099 -48.4344 8.20547C-48.4344 12.2162 -45.1698 15.4871 -41.1537 15.4871C-37.1339 15.4871 -33.8655 12.2275 -33.8617 8.21674ZM-35.6913 8.21298C-35.6913 11.176 -38.1445 13.5869 -41.1537 13.5869C-44.1629 13.5869 -46.6086 11.1685 -46.6049 8.20547C-46.6049 5.23498 -44.1517 2.82779 -41.1425 2.83155C-38.1332 2.83155 -35.6875 5.24624 -35.6913 8.21298Z" fill="url(#paint7_linear_79_9478)"/>
<path d="M-19.845 8.228C-19.845 4.21727 -23.1059 0.946352 -27.1257 0.942597C-31.138 0.942597 -34.414 4.20225 -34.4177 8.21674C-34.4215 12.2312 -31.1531 15.4984 -27.137 15.4984C-23.1172 15.4984 -19.8488 12.2387 -19.845 8.228ZM-21.6746 8.22425C-21.6746 11.1872 -24.1278 13.6019 -27.137 13.5982C-30.1462 13.5982 -32.5919 11.1797 -32.5882 8.21674C-32.5882 5.24625 -30.135 2.83906 -27.1257 2.84281C-24.1165 2.84281 -21.6708 5.25751 -21.6746 8.228V8.22425Z" fill="url(#paint8_linear_79_9478)"/>
<path d="M-5.82832 8.23552C-5.82832 4.22479 -9.08925 0.953863 -13.109 0.950107C-17.1213 0.950107 -20.3973 4.20976 -20.401 8.22425C-20.401 12.235 -17.1364 15.5059 -13.1203 15.5059C-9.10052 15.5059 -5.83208 12.2462 -5.82832 8.23552ZM-7.65414 8.23552C-7.65414 11.1985 -10.1073 13.6132 -13.1166 13.6094C-16.1258 13.6094 -18.5715 11.191 -18.5677 8.22801C-18.5677 5.25751 -16.1145 2.85032 -13.1053 2.85408C-10.0961 2.85408 -7.65038 5.26878 -7.65414 8.23927V8.23552Z" fill="url(#paint9_linear_79_9478)"/>
<path d="M8.19213 8.24678C8.19213 4.23605 4.93121 0.965129 0.911407 0.961374C-3.10088 0.961374 -6.37682 4.22103 -6.38058 8.23552C-6.38058 12.2462 -3.11591 15.5172 0.900135 15.5172C4.91994 15.5172 8.18838 12.2575 8.19213 8.24678ZM6.36256 8.24678C6.36256 11.2098 3.90935 13.6207 0.900135 13.6207C-2.10908 13.6207 -4.55477 11.2023 -4.55101 8.23927C-4.55101 5.26878 -2.09781 2.86159 0.911407 2.86534C3.92062 2.86534 6.36631 5.28004 6.36256 8.25054V8.24678Z" fill="url(#paint10_linear_79_9478)"/>
<path d="M22.2088 8.25805C22.2088 4.24732 18.9479 0.976395 14.9281 0.97264C10.9158 0.97264 7.63988 4.2323 7.63612 8.24678C7.63612 12.2575 10.9008 15.5284 14.9168 15.5284C18.9366 15.5284 22.2051 12.2688 22.2088 8.25805ZM20.3793 8.25805C20.3793 11.221 17.9261 13.632 14.9168 13.632C11.9076 13.632 9.46194 11.2135 9.46569 8.25054C9.46569 5.28004 11.9189 2.87285 14.9281 2.87661C17.9373 2.87661 20.383 5.29131 20.3793 8.2618V8.25805Z" fill="url(#paint11_linear_79_9478)"/>
<path d="M22.16 66.8681H-62.5V69.3992H22.16V66.8681Z" fill="url(#paint12_linear_79_9478)"/>
<path d="M22.1675 61.205C22.1675 57.1905 18.9066 53.9234 14.8868 53.9234C10.8745 53.9234 7.59854 57.183 7.59479 61.1938C7.59479 65.2083 10.8595 68.4754 14.8755 68.4792C18.8953 68.4792 22.1637 65.2195 22.1675 61.205ZM20.3379 61.205C20.3379 64.1718 17.8847 66.5827 14.8755 66.579C11.8663 66.579 9.42061 64.1605 9.42436 61.1975C9.42436 58.2308 11.8776 55.8236 14.8868 55.8236C17.896 55.8236 20.3417 58.2383 20.3379 61.205Z" fill="url(#paint13_linear_79_9478)"/>
<path d="M8.15079 61.1938C8.15079 57.1793 4.88988 53.9121 0.870075 53.9121C-3.14221 53.9121 -6.41816 57.1718 -6.42191 61.1825C-6.42191 65.197 -3.15724 68.4642 0.858803 68.4679C4.8786 68.4679 8.14704 65.2083 8.15079 61.1938ZM6.32123 61.1938C6.32123 64.1605 3.86802 66.5714 0.858803 66.5677C-2.15041 66.5677 -4.5961 64.1492 -4.59234 61.1825C-4.59234 58.2158 -2.13914 55.8048 0.870075 55.8086C3.87929 55.8086 6.32498 58.2233 6.32123 61.19V61.1938Z" fill="url(#paint14_linear_79_9478)"/>
<path d="M-5.86966 61.1825C-5.86966 57.168 -9.13059 53.9008 -13.1504 53.9008C-17.1627 53.9008 -20.4386 57.1605 -20.4424 61.1712C-20.4424 65.1857 -17.1777 68.4529 -13.1617 68.4566C-9.14186 68.4566 -5.87342 65.197 -5.86966 61.1825ZM-7.69548 61.1825C-7.69548 64.1492 -10.1487 66.5602 -13.1579 66.5564C-16.1671 66.5564 -18.6128 64.138 -18.609 61.175C-18.609 58.2083 -16.1558 55.7973 -13.1466 55.8011C-10.1374 55.8011 -7.69172 58.2158 -7.69548 61.1825Z" fill="url(#paint15_linear_79_9478)"/>
<path d="M-19.8864 61.1712C-19.8864 57.1567 -23.1473 53.8896 -27.1671 53.8896C-31.1831 53.8896 -34.4553 57.1492 -34.4591 61.16C-34.4591 65.1745 -31.1944 68.4416 -27.1784 68.4454C-23.1586 68.4454 -19.8901 65.1857 -19.8864 61.1712ZM-21.7159 61.1712C-21.7159 64.138 -24.1691 66.5489 -27.1784 66.5452C-30.1876 66.5452 -32.6333 64.1267 -32.6295 61.16C-32.6295 58.1932 -30.1763 55.786 -27.1671 55.786C-24.1579 55.786 -21.7122 58.2007 -21.7159 61.1675V61.1712Z" fill="url(#paint16_linear_79_9478)"/>
<path d="M-33.9068 61.16C-33.9068 57.1455 -37.1677 53.8783 -41.1875 53.8783C-45.2036 53.8783 -48.4758 57.138 -48.4795 61.1487C-48.4795 65.1632 -45.2149 68.4304 -41.1988 68.4341C-37.179 68.4341 -33.9106 65.1745 -33.9068 61.16ZM-35.7326 61.16C-35.7326 64.1267 -38.1858 66.5376 -41.1951 66.5339C-44.2043 66.5339 -46.65 64.1154 -46.6462 61.1525C-46.6462 58.1857 -44.193 55.7785 -41.1838 55.7785C-38.1746 55.7785 -35.7289 58.1932 -35.7326 61.16Z" fill="url(#paint17_linear_79_9478)"/>
<path d="M-47.9235 61.1487C-47.9235 57.1342 -51.1845 53.867 -55.2043 53.867C-59.2203 53.867 -62.4925 57.1267 -62.4962 61.1374C-62.4962 65.1519 -59.2316 68.4191 -55.2155 68.4228C-51.1957 68.4228 -47.9273 65.1632 -47.9235 61.1487ZM-49.7531 61.1487C-49.7531 64.1154 -52.2063 66.5264 -55.2155 66.5226C-58.2247 66.5226 -60.6704 64.1042 -60.6667 61.1374C-60.6667 58.1707 -58.2135 55.7635 -55.2043 55.7635C-52.195 55.7635 -49.7493 58.1782 -49.7531 61.1449V61.1487Z" fill="url(#paint18_linear_79_9478)"/>
<path d="M22.1938 25.9683L22.1825 42.86L33.2314 34.4254L22.1938 25.9683Z" fill="url(#paint19_linear_79_9478)"/>
<path d="M106.865 14.2328L106.858 21.7511L90.3426 34.4667L106.839 47.2087L106.831 54.7307L85.5451 38.2259L64.4994 54.7006L43.4837 38.1958L22.1675 54.6706L22.175 47.1486L38.69 34.4329L22.1976 21.691L22.2051 14.1727L43.495 30.6776L64.5369 14.2065L85.5564 30.7114L106.869 14.2403L106.865 14.2328ZM80.7514 34.463L64.5294 21.721L48.2887 34.4405L64.5069 47.1824L80.7476 34.4667L80.7514 34.463Z" fill="url(#paint20_linear_79_9478)"/>
<path d="M106.843 42.9276L106.858 26.0359L95.8087 34.4743L106.843 42.9276Z" fill="url(#paint21_linear_79_9478)"/>
<path d="M106.876 0.0638412H22.2163V2.59496H106.876V0.0638412Z" fill="url(#paint22_linear_79_9478)"/>
<path d="M106.865 13.9887H22.2051V16.5199H106.865V13.9887Z" fill="url(#paint23_linear_79_9478)"/>
<path d="M106.831 53.3562H22.1713V55.6846H106.831V53.3562Z" fill="url(#paint24_linear_79_9478)"/>
<path d="M36.7778 8.26931C36.7778 4.25858 33.5169 0.987661 29.4971 0.983906C25.4848 0.983906 22.2088 4.24356 22.2051 8.25805C22.2051 12.2688 25.4698 15.5397 29.4858 15.5397C33.5056 15.5397 36.774 12.28 36.7778 8.26931ZM34.952 8.26931C34.952 11.2323 32.4988 13.6432 29.4896 13.6432C26.4803 13.6432 24.0347 11.2248 24.0384 8.2618C24.0384 5.29506 26.4916 2.88412 29.5008 2.88788C32.51 2.88788 34.9557 5.30258 34.952 8.26931Z" fill="url(#paint25_linear_79_9478)"/>
<path d="M50.7982 8.28058C50.7982 4.26985 47.5373 0.998927 43.5175 0.995172C39.5052 0.995172 36.2293 4.25483 36.2255 8.26931C36.2255 12.28 39.4902 15.551 43.5063 15.551C47.5261 15.551 50.7945 12.2913 50.7982 8.28058ZM48.9687 8.28058C48.9687 11.2436 46.5155 13.6545 43.5063 13.6545C40.497 13.6545 38.0514 11.2361 38.0551 8.27307C38.0551 5.30258 40.5083 2.89539 43.5175 2.89914C46.5267 2.89914 48.9724 5.31384 48.9687 8.28058Z" fill="url(#paint26_linear_79_9478)"/>
<path d="M64.815 8.29185C64.815 4.28112 61.554 1.01019 57.5342 1.00644C53.522 1.00644 50.246 4.26609 50.2422 8.28058C50.2422 12.2913 53.5069 15.5622 57.523 15.5622C61.5428 15.5622 64.8112 12.3026 64.815 8.29185ZM62.9854 8.29185C62.9854 11.2548 60.5322 13.6658 57.523 13.6658C54.5137 13.6658 52.0681 11.2473 52.0718 8.28434C52.0718 5.31384 54.525 2.90665 57.5342 2.91041C60.5435 2.91041 62.9891 5.32511 62.9854 8.29185Z" fill="url(#paint27_linear_79_9478)"/>
<path d="M78.8354 8.30311C78.8354 4.29238 75.5745 1.02146 71.5547 1.0177C67.5424 1.0177 64.2665 4.27736 64.2627 8.29185C64.2627 12.3026 67.5274 15.5735 71.5434 15.5735C75.5632 15.5735 78.8317 12.3138 78.8354 8.30311ZM77.0058 8.30311C77.0058 11.2661 74.5526 13.6808 71.5434 13.677C68.5342 13.677 66.0885 11.2586 66.0923 8.2956C66.0923 5.32511 68.5455 2.91792 71.5547 2.92167C74.5639 2.92167 77.0096 5.33637 77.0058 8.30311Z" fill="url(#paint28_linear_79_9478)"/>
<path d="M92.8521 8.31438C92.8521 4.30365 89.5912 1.03273 85.5714 1.02897C81.5591 1.02897 78.2832 4.28863 78.2794 8.30311C78.2794 12.3138 81.5441 15.5848 85.5601 15.5848C89.5799 15.5848 92.8484 12.3251 92.8521 8.31438ZM91.0225 8.31438C91.0225 11.2774 88.5693 13.6883 85.5601 13.6883C82.5509 13.6883 80.1052 11.2698 80.109 8.30687C80.109 5.33637 82.5622 2.92918 85.5714 2.93294C88.5806 2.93294 91.0263 5.34764 91.0225 8.31813V8.31438Z" fill="url(#paint29_linear_79_9478)"/>
<path d="M106.869 8.32564C106.869 4.31491 103.608 1.04399 99.5881 1.04024C95.5758 1.04024 92.2999 4.29989 92.2961 8.31438C92.2961 12.3251 95.5608 15.596 99.5768 15.596C103.597 15.596 106.865 12.3364 106.869 8.32564ZM105.043 8.32564C105.043 11.2886 102.59 13.6996 99.5806 13.6996C96.5714 13.6996 94.1257 11.2811 94.1294 8.31813C94.1294 5.34764 96.5826 2.94045 99.5919 2.94421C102.601 2.94421 105.047 5.35891 105.043 8.32564Z" fill="url(#paint30_linear_79_9478)"/>
<path d="M106.82 66.9319H22.16V69.463H106.82V66.9319Z" fill="url(#paint31_linear_79_9478)"/>
<path d="M106.827 61.2725C106.827 57.2581 103.567 53.9909 99.5468 53.9909C95.5345 53.9909 92.2585 57.2505 92.2548 61.2613C92.2548 65.2758 95.5195 68.5429 99.5355 68.5467C103.555 68.5467 106.824 65.287 106.827 61.2725ZM104.998 61.2688C104.998 64.2355 102.545 66.6465 99.5355 66.6427C96.5263 66.6427 94.0806 64.2243 94.0844 61.2613C94.0844 58.2945 96.5376 55.8873 99.5468 55.8873C102.556 55.8873 105.002 58.302 104.998 61.2688Z" fill="url(#paint32_linear_79_9478)"/>
<path d="M92.8108 61.2613C92.8108 57.2468 89.5499 53.9796 85.5301 53.9796C81.5178 53.9796 78.2418 57.2393 78.2381 61.25C78.2381 65.2645 81.5028 68.5317 85.5188 68.5354C89.5386 68.5354 92.807 65.2758 92.8108 61.2613ZM90.9812 61.2575C90.9812 64.2243 88.528 66.6352 85.5188 66.6314C82.5096 66.6314 80.0639 64.213 80.0677 61.25C80.0677 58.2833 82.5209 55.8723 85.5301 55.8761C88.5393 55.8761 90.985 58.2908 90.9812 61.2575Z" fill="url(#paint33_linear_79_9478)"/>
<path d="M78.7903 61.25C78.7903 57.2355 75.5294 53.9684 71.5096 53.9684C67.4973 53.9684 64.2214 57.228 64.2176 61.2387C64.2176 65.2532 67.4823 68.5204 71.4983 68.5241C75.5181 68.5241 78.7866 65.2645 78.7903 61.25ZM76.9645 61.2462C76.9645 64.213 74.5113 66.6239 71.5021 66.6202C68.4929 66.6202 66.0472 64.2017 66.0509 61.2387C66.0509 58.272 68.5042 55.8611 71.5134 55.8648C74.5226 55.8648 76.9683 58.2795 76.9645 61.2462Z" fill="url(#paint34_linear_79_9478)"/>
<path d="M64.7736 61.2387C64.7736 57.2243 61.5127 53.9571 57.4929 53.9571C53.4806 53.9571 50.2047 57.2167 50.2009 61.2275C50.2009 65.242 53.4656 68.5091 57.4816 68.5129C61.5014 68.5129 64.7699 65.2532 64.7736 61.2387ZM62.9441 61.2387C62.9441 64.2055 60.4909 66.6164 57.4816 66.6127C54.4724 66.6127 52.0267 64.1942 52.0305 61.2312C52.0305 58.2645 54.4837 55.8573 57.4929 55.8573C60.5021 55.8573 62.9478 58.272 62.9441 61.2387Z" fill="url(#paint35_linear_79_9478)"/>
<path d="M50.7569 61.2275C50.7569 57.213 47.496 53.9458 43.4762 53.9458C39.4639 53.9458 36.188 57.2055 36.1842 61.2162C36.1842 65.2307 39.4489 68.4979 43.4649 68.5016C47.4847 68.5016 50.7532 65.242 50.7569 61.2275ZM48.9274 61.2275C48.9274 64.1942 46.4742 66.6052 43.4649 66.6014C40.4557 66.6014 38.01 64.1829 38.0138 61.22C38.0138 58.2532 40.467 55.846 43.4762 55.846C46.4854 55.846 48.9311 58.2607 48.9274 61.2275Z" fill="url(#paint36_linear_79_9478)"/>
<path d="M36.7365 61.2162C36.7365 57.2017 33.4755 53.9346 29.4557 53.9346C25.4435 53.9346 22.1675 57.1942 22.1638 61.2049C22.1638 65.2194 25.4284 68.4866 29.4445 68.4903C33.4643 68.4903 36.7327 65.2307 36.7365 61.2162ZM34.9107 61.2162C34.9107 64.1829 32.4575 66.5939 29.4482 66.5901C26.439 66.5901 23.9933 64.1717 23.9971 61.2087C23.9971 58.242 26.4503 55.831 29.4595 55.8348C32.4687 55.8348 34.9144 58.2495 34.9107 61.2162Z" fill="url(#paint37_linear_79_9478)"/>
<path d="M106.858 26.0359L106.843 42.9276L117.891 34.4893L106.858 26.0359Z" fill="url(#paint38_linear_79_9478)"/>
<path d="M191.525 14.3004L191.518 21.8187L175.003 34.5343L191.499 47.2763L191.491 54.7983L170.205 38.2897L149.159 54.7645L128.144 38.2559L106.827 54.7307L106.835 47.2087L123.35 34.493L106.858 21.7511L106.865 14.2328L128.155 30.7377L149.197 14.2666L170.216 30.7715L191.529 14.3004H191.525ZM165.411 34.5268L149.189 21.7849L132.949 34.5043L149.167 47.2463L165.408 34.5306L165.411 34.5268Z" fill="url(#paint39_linear_79_9478)"/>
<path d="M191.503 42.9952L191.518 26.1035L180.469 34.5418L191.503 42.9952Z" fill="url(#paint40_linear_79_9478)"/>
<path d="M191.536 0.131438H106.876V2.66255H191.536V0.131438Z" fill="url(#paint41_linear_79_9478)"/>
<path d="M191.525 14.0526H106.865V16.5837H191.525V14.0526Z" fill="url(#paint42_linear_79_9478)"/>
<path d="M191.495 53.4239H106.835V55.7522H191.495V53.4239Z" fill="url(#paint43_linear_79_9478)"/>
<path d="M121.442 8.33691C121.442 4.32618 118.181 1.05526 114.161 1.0515C110.149 1.0515 106.873 4.31116 106.869 8.32564C106.869 12.3364 110.133 15.6073 114.15 15.6073C118.169 15.6073 121.438 12.3476 121.442 8.33691ZM119.612 8.33691C119.612 11.2999 117.159 13.7108 114.15 13.7108C111.14 13.7108 108.695 11.2924 108.698 8.3294C108.698 5.35891 111.152 2.95172 114.161 2.95547C117.17 2.95547 119.616 5.37017 119.612 8.34067V8.33691Z" fill="url(#paint44_linear_79_9478)"/>
<path d="M135.458 8.34818C135.458 4.33745 132.197 1.06652 128.178 1.06277C124.165 1.06277 120.889 4.32243 120.886 8.33691C120.886 12.3476 124.15 15.6186 128.166 15.6186C132.186 15.6186 135.454 12.3589 135.458 8.34818ZM133.629 8.34818C133.629 11.3112 131.175 13.7221 128.166 13.7221C125.157 13.7221 122.711 11.3036 122.715 8.34067C122.715 5.37017 125.168 2.96298 128.178 2.96674C131.187 2.96674 133.632 5.38144 133.629 8.35193V8.34818Z" fill="url(#paint45_linear_79_9478)"/>
<path d="M149.475 8.35944C149.475 4.34871 146.214 1.07779 142.194 1.07403C138.182 1.07403 134.906 4.33369 134.902 8.34818C134.902 12.3589 138.167 15.6298 142.183 15.6298C146.203 15.6298 149.471 12.3702 149.475 8.35944ZM147.649 8.35944C147.649 11.3224 145.196 13.7371 142.187 13.7334C139.178 13.7334 136.732 11.3149 136.736 8.35193C136.736 5.38144 139.189 2.97425 142.198 2.978C145.207 2.978 147.653 5.3927 147.649 8.3632V8.35944Z" fill="url(#paint46_linear_79_9478)"/>
<path d="M163.495 8.37071C163.495 4.35998 160.234 1.08906 156.215 1.0853C152.202 1.0853 148.926 4.34496 148.923 8.35944C148.923 12.3702 152.187 15.6411 156.203 15.6411C160.223 15.6411 163.492 12.3814 163.495 8.37071ZM161.666 8.37071C161.666 11.3337 159.213 13.7484 156.203 13.7446C153.194 13.7446 150.749 11.3262 150.752 8.3632C150.752 5.3927 153.205 2.98552 156.215 2.98927C159.224 2.98927 161.67 5.40397 161.666 8.37071Z" fill="url(#paint47_linear_79_9478)"/>
<path d="M177.512 8.38197C177.512 4.37124 174.251 1.10032 170.231 1.09657C166.219 1.09657 162.943 4.35622 162.939 8.37071C162.939 12.3814 166.204 15.6524 170.22 15.6524C174.24 15.6524 177.508 12.3927 177.512 8.38197ZM175.683 8.38197C175.683 11.345 173.229 13.7559 170.22 13.7559C167.211 13.7559 164.765 11.3374 164.769 8.37446C164.769 5.40773 167.222 2.99678 170.231 3.00054C173.241 3.00054 175.686 5.41524 175.683 8.38197Z" fill="url(#paint48_linear_79_9478)"/>
<path d="M191.533 8.39324C191.533 4.38251 188.272 1.11159 184.252 1.10783C180.24 1.10783 176.964 4.36749 176.96 8.38197C176.96 12.3927 180.225 15.6636 184.241 15.6636C188.26 15.6636 191.529 12.404 191.533 8.39324ZM189.703 8.39324C189.703 11.3562 187.25 13.7672 184.241 13.7672C181.231 13.7672 178.786 11.3487 178.789 8.38573C178.789 5.41524 181.243 3.00805 184.252 3.0118C187.261 3.0118 189.707 5.4265 189.703 8.39324Z" fill="url(#paint49_linear_79_9478)"/>
<path d="M191.484 66.9996H106.824V69.5307H191.484V66.9996Z" fill="url(#paint50_linear_79_9478)"/>
<path d="M191.487 61.3402C191.487 57.3257 188.227 54.0586 184.207 54.0586C180.194 54.0586 176.919 57.3182 176.915 61.329C176.915 65.3434 180.179 68.6106 184.195 68.6144C188.215 68.6144 191.484 65.3547 191.487 61.3402ZM189.662 61.3365C189.662 64.3032 187.208 66.7141 184.199 66.7104C181.19 66.7104 178.744 64.2919 178.748 61.329C178.748 58.3622 181.201 55.955 184.211 55.955C187.22 55.955 189.665 58.3697 189.662 61.3365Z" fill="url(#paint51_linear_79_9478)"/>
<path d="M177.471 61.329C177.471 57.3145 174.21 54.0473 170.19 54.0473C166.178 54.0473 162.902 57.307 162.898 61.3177C162.898 65.3322 166.163 68.5993 170.179 68.6031C174.199 68.6031 177.467 65.3434 177.471 61.329ZM175.641 61.3252C175.641 64.2919 173.188 66.7029 170.179 66.6991C167.17 66.6991 164.724 64.2807 164.728 61.3139C164.728 58.3472 167.181 55.94 170.19 55.94C173.199 55.94 175.645 58.3547 175.641 61.3214V61.3252Z" fill="url(#paint52_linear_79_9478)"/>
<path d="M163.454 61.3177C163.454 57.3032 160.193 54.036 156.173 54.036C152.161 54.036 148.885 57.2957 148.881 61.3064C148.881 65.3209 152.146 68.5881 156.162 68.5918C160.182 68.5918 163.45 65.3322 163.454 61.3177ZM161.625 61.3139C161.625 64.2807 159.171 66.6916 156.162 66.6879C153.153 66.6879 150.707 64.2694 150.711 61.3064C150.711 58.3397 153.164 55.9287 156.173 55.9325C159.183 55.9325 161.628 58.3472 161.625 61.3139Z" fill="url(#paint53_linear_79_9478)"/>
<path d="M149.434 61.3064C149.434 57.2919 146.173 54.0248 142.153 54.0248C138.141 54.0248 134.865 57.2844 134.861 61.2952C134.861 65.3096 138.126 68.5768 142.142 68.5806C146.161 68.5806 149.43 65.3209 149.434 61.3064ZM147.608 61.3027C147.608 64.2694 145.155 66.6804 142.145 66.6766C139.136 66.6766 136.69 64.2581 136.694 61.2952C136.694 58.3284 139.147 55.9212 142.157 55.9212C145.166 55.9212 147.612 58.3359 147.608 61.3027Z" fill="url(#paint54_linear_79_9478)"/>
<path d="M135.417 61.2952C135.417 57.2807 132.156 54.0135 128.136 54.0135C124.124 54.0135 120.848 57.2732 120.844 61.2839C120.844 65.2984 124.109 68.5655 128.125 68.5693C132.145 68.5693 135.413 65.3096 135.417 61.2952ZM133.587 61.2914C133.587 64.2581 131.134 66.6691 128.125 66.6653C125.116 66.6653 122.67 64.2469 122.674 61.2839C122.674 58.3172 125.127 55.91 128.136 55.91C131.145 55.91 133.591 58.3247 133.587 61.2914Z" fill="url(#paint55_linear_79_9478)"/>
<path d="M121.4 61.2839C121.4 57.2694 118.139 54.0022 114.119 54.0022C110.107 54.0022 106.831 57.2618 106.827 61.2725C106.827 65.287 110.092 68.5543 114.108 68.558C118.128 68.558 121.396 65.2984 121.4 61.2839ZM119.571 61.2801C119.571 64.2469 117.117 66.6578 114.108 66.6541C111.099 66.6541 108.653 64.2356 108.657 61.2726C108.657 58.3059 111.11 55.8987 114.119 55.8987C117.129 55.8987 119.574 58.3134 119.571 61.2801Z" fill="url(#paint56_linear_79_9478)"/>
<path d="M191.518 26.1035L191.503 42.9952L202.551 34.5569L191.518 26.1035Z" fill="url(#paint57_linear_79_9478)"/>
<path d="M276.185 14.3643L276.178 21.8825L259.663 34.5982L276.159 47.3401L276.151 54.8621L254.865 38.3573L233.819 54.8321L212.804 38.3235L191.487 54.7983L191.495 47.2763L208.01 34.5606L191.518 21.8187L191.525 14.3004L212.815 30.8053L233.857 14.3342L254.876 30.8391L276.189 14.368L276.185 14.3643ZM250.071 34.5944L233.849 21.8525L217.609 34.5719L233.827 47.3138L250.068 34.5982L250.071 34.5944Z" fill="url(#paint58_linear_79_9478)"/>
<path d="M276.163 43.0628L276.178 26.1711L265.129 34.6057L276.163 43.0628Z" fill="url(#paint59_linear_79_9478)"/>
<path d="M276.2 0.199034H191.536V2.73015H276.2V0.199034Z" fill="url(#paint60_linear_79_9478)"/>
<path d="M276.185 14.1202H191.525V16.6513H276.185V14.1202Z" fill="url(#paint61_linear_79_9478)"/>
<path d="M276.155 53.4878H191.495V55.8161H276.155V53.4878Z" fill="url(#paint62_linear_79_9478)"/>
<path d="M206.102 8.40451C206.102 4.39378 202.841 1.12285 198.821 1.1191C194.809 1.1191 191.533 4.37876 191.529 8.39324C191.529 12.404 194.793 15.6749 198.81 15.6749C202.829 15.6749 206.098 12.4152 206.102 8.40451ZM204.272 8.40451C204.272 11.3675 201.819 13.7784 198.81 13.7784C195.8 13.7784 193.355 11.36 193.358 8.397C193.358 5.4265 195.812 3.01931 198.821 3.02307C201.83 3.02307 204.276 5.43777 204.272 8.40826V8.40451Z" fill="url(#paint63_linear_79_9478)"/>
<path d="M220.118 8.41577C220.118 4.40504 216.857 1.13412 212.838 1.13036C208.825 1.13036 205.549 4.39002 205.546 8.40451C205.546 12.4152 208.81 15.6862 212.826 15.6862C216.846 15.6862 220.114 12.4265 220.118 8.41577ZM218.292 8.41577C218.292 11.3788 215.839 13.7897 212.83 13.7897C209.821 13.7897 207.375 11.3712 207.379 8.40826C207.379 5.43777 209.832 3.03058 212.841 3.03433C215.85 3.03433 218.296 5.44903 218.292 8.41953V8.41577Z" fill="url(#paint64_linear_79_9478)"/>
<path d="M234.139 8.42704C234.139 4.41631 230.878 1.14539 226.858 1.14163C222.846 1.14163 219.57 4.40129 219.566 8.41577C219.566 12.4265 222.831 15.6974 226.847 15.6974C230.866 15.6974 234.135 12.4378 234.139 8.42704ZM232.309 8.42704C232.309 11.39 229.856 13.8047 226.847 13.801C223.837 13.801 221.392 11.3825 221.396 8.41953C221.396 5.44904 223.849 3.04185 226.858 3.0456C229.867 3.0456 232.313 5.4603 232.309 8.43079V8.42704Z" fill="url(#paint65_linear_79_9478)"/>
<path d="M248.155 8.4383C248.155 4.42758 244.894 1.15665 240.875 1.1529C236.862 1.1529 233.586 4.41255 233.583 8.42704C233.583 12.4378 236.847 15.7087 240.863 15.7087C244.883 15.7087 248.152 12.449 248.155 8.4383ZM246.326 8.4383C246.326 11.4013 243.873 13.816 240.863 13.8122C237.854 13.8122 235.408 11.3938 235.412 8.43079C235.412 5.4603 237.865 3.05311 240.875 3.05687C243.884 3.05687 246.33 5.47157 246.326 8.44206V8.4383Z" fill="url(#paint66_linear_79_9478)"/>
<path d="M262.172 8.44957C262.172 4.43884 258.911 1.16792 254.891 1.16416C250.879 1.16416 247.603 4.42382 247.599 8.4383C247.599 12.449 250.864 15.72 254.88 15.72C258.9 15.72 262.168 12.4603 262.172 8.44957ZM260.346 8.44957C260.346 11.4126 257.893 13.8235 254.884 13.8235C251.875 13.8235 249.429 11.405 249.433 8.44206C249.433 5.47157 251.886 3.06438 254.895 3.06813C257.904 3.06813 260.35 5.48283 260.346 8.45333V8.44957Z" fill="url(#paint67_linear_79_9478)"/>
<path d="M276.193 8.46084C276.193 4.45011 272.932 1.17918 268.912 1.17543C264.9 1.17543 261.624 4.43509 261.62 8.44957C261.62 12.4603 264.885 15.7312 268.901 15.7312C272.92 15.7312 276.189 12.4716 276.193 8.46084ZM274.363 8.46084C274.363 11.4238 271.91 13.8348 268.901 13.8348C265.891 13.8348 263.446 11.4163 263.449 8.45333C263.449 5.48283 265.903 3.07564 268.912 3.0794C271.921 3.0794 274.367 5.4941 274.363 8.46084Z" fill="url(#paint68_linear_79_9478)"/>
<path d="M276.144 67.0672H191.484V69.5983H276.144V67.0672Z" fill="url(#paint69_linear_79_9478)"/>
<path d="M276.147 61.4041C276.147 57.3896 272.887 54.1224 268.867 54.1224C264.851 54.1224 261.579 57.3821 261.575 61.3928C261.575 65.4073 264.839 68.6745 268.855 68.6782C272.875 68.6782 276.144 65.4186 276.147 61.4041ZM274.322 61.4041C274.322 64.3708 271.868 66.7817 268.859 66.778C265.85 66.778 263.404 64.3595 263.408 61.3966C263.408 58.4298 265.861 56.0226 268.87 56.0226C271.88 56.0226 274.325 58.4373 274.322 61.4041Z" fill="url(#paint70_linear_79_9478)"/>
<path d="M262.131 61.3928C262.131 57.3783 258.87 54.1111 254.85 54.1111C250.834 54.1111 247.562 57.3708 247.558 61.3815C247.558 65.396 250.823 68.6632 254.839 68.6669C258.859 68.6669 262.127 65.4073 262.131 61.3928ZM260.301 61.3928C260.301 64.3595 257.848 66.7705 254.839 66.7667C251.83 66.7667 249.384 64.3483 249.388 61.3853C249.388 58.4185 251.841 56.0076 254.85 56.0114C257.859 56.0114 260.305 58.4261 260.301 61.3928Z" fill="url(#paint71_linear_79_9478)"/>
<path d="M248.114 61.3853C248.114 57.3708 244.853 54.1036 240.833 54.1036C236.817 54.1036 233.545 57.3633 233.541 61.374C233.541 65.3885 236.806 68.6557 240.822 68.6594C244.842 68.6594 248.11 65.3998 248.114 61.3853ZM246.284 61.3815C246.284 64.3483 243.831 66.7592 240.822 66.7555C237.813 66.7555 235.367 64.337 235.371 61.374C235.371 58.4073 237.824 55.9963 240.833 56.0001C243.843 56.0001 246.288 58.4148 246.284 61.3815Z" fill="url(#paint72_linear_79_9478)"/>
<path d="M234.094 61.374C234.094 57.3595 230.833 54.0924 226.813 54.0924C222.797 54.0924 219.525 57.352 219.521 61.3628C219.521 65.3772 222.786 68.6444 226.802 68.6482C230.821 68.6482 234.09 65.3885 234.094 61.374ZM232.268 61.3703C232.268 64.337 229.815 66.7479 226.805 66.7442C223.796 66.7442 221.35 64.3257 221.354 61.3628C221.354 58.396 223.807 55.9888 226.817 55.9888C229.826 55.9888 232.272 58.4035 232.268 61.3703Z" fill="url(#paint73_linear_79_9478)"/>
<path d="M220.077 61.3628C220.077 57.3483 216.816 54.0811 212.796 54.0811C208.78 54.0811 205.508 57.3408 205.504 61.3515C205.504 65.366 208.769 68.6331 212.785 68.6369C216.805 68.6369 220.073 65.3772 220.077 61.3628ZM218.247 61.359C218.247 64.3257 215.794 66.7367 212.785 66.7329C209.776 66.7329 207.33 64.3145 207.334 61.3515C207.334 58.3848 209.787 55.9776 212.796 55.9776C215.805 55.9776 218.251 58.3923 218.247 61.359Z" fill="url(#paint74_linear_79_9478)"/>
<path d="M206.06 61.3515C206.06 57.337 202.799 54.0698 198.779 54.0698C194.763 54.0698 191.491 57.3295 191.487 61.3402C191.487 65.3547 194.752 68.6219 198.768 68.6256C202.788 68.6256 206.056 65.366 206.06 61.3515ZM204.231 61.3477C204.231 64.3145 201.777 66.7254 198.768 66.7217C195.759 66.7217 193.313 64.3032 193.317 61.3365C193.317 58.3697 195.77 55.9625 198.779 55.9625C201.789 55.9625 204.234 58.3772 204.231 61.344V61.3477Z" fill="url(#paint75_linear_79_9478)"/>
<path d="M276.178 26.1711L276.163 43.0628L287.211 34.6245L276.178 26.1711Z" fill="url(#paint76_linear_79_9478)"/>
<path d="M360.849 14.4319L360.841 21.9501L344.326 34.6658L360.823 47.4077L360.815 54.9297L339.529 38.4249L318.483 54.8997L297.467 38.3911L276.151 54.8659L276.159 47.3439L292.674 34.6282L276.181 21.8863L276.189 14.368L297.479 30.8729L318.521 14.4018L339.54 30.9067L360.853 14.4356L360.849 14.4319ZM334.731 34.662L318.509 21.9201L302.269 34.6395L318.487 47.3814L334.728 34.6658L334.731 34.662Z" fill="url(#paint77_linear_79_9478)"/>
<path d="M360.826 43.1266L360.837 26.235L349.789 34.6733L360.826 43.1266Z" fill="url(#paint78_linear_79_9478)"/>
<path d="M360.856 0.266631H276.196V2.79775H360.856V0.266631Z" fill="url(#paint79_linear_79_9478)"/>
<path d="M360.845 14.1878H276.185V16.7189H360.845V14.1878Z" fill="url(#paint80_linear_79_9478)"/>
<path d="M360.815 53.5554H276.155V55.8837H360.815V53.5554Z" fill="url(#paint81_linear_79_9478)"/>
<path d="M290.762 8.4721C290.762 4.46137 287.501 1.19045 283.481 1.1867C279.468 1.1867 276.193 4.44635 276.189 8.46084C276.189 12.4716 279.453 15.7387 283.47 15.7425C287.489 15.7425 290.758 12.4828 290.762 8.4721ZM288.932 8.4721C288.932 11.4351 286.479 13.846 283.47 13.846C280.46 13.846 278.015 11.4276 278.018 8.46459C278.018 5.49785 280.472 3.08691 283.481 3.09067C286.49 3.09067 288.936 5.50536 288.932 8.4721Z" fill="url(#paint82_linear_79_9478)"/>
<path d="M304.778 8.48337C304.778 4.47264 301.517 1.20172 297.497 1.19796C293.485 1.19796 290.209 4.45762 290.206 8.4721C290.206 12.4828 293.47 15.7538 297.486 15.7538C301.506 15.7538 304.774 12.4941 304.778 8.48337ZM302.952 8.48337C302.952 11.4464 300.499 13.8573 297.49 13.8573C294.481 13.8573 292.035 11.4388 292.039 8.47586C292.039 5.50537 294.492 3.09818 297.501 3.10193C300.51 3.10193 302.956 5.51663 302.952 8.48337Z" fill="url(#paint83_linear_79_9478)"/>
<path d="M318.799 8.49464C318.799 4.48391 315.538 1.21298 311.518 1.20923C307.506 1.20923 304.23 4.46888 304.226 8.48337C304.226 12.4941 307.491 15.765 311.507 15.765C315.526 15.765 318.795 12.5054 318.799 8.49464ZM316.969 8.49088C316.969 11.4539 314.516 13.8686 311.507 13.8648C308.497 13.8648 306.052 11.4464 306.056 8.48337C306.056 5.51288 308.509 3.10569 311.518 3.10944C314.527 3.10944 316.973 5.52414 316.969 8.49088Z" fill="url(#paint84_linear_79_9478)"/>
<path d="M332.815 8.5059C332.815 4.49517 329.554 1.22425 325.535 1.22049C321.522 1.22049 318.246 4.48015 318.243 8.49464C318.243 12.5054 321.507 15.7763 325.523 15.7763C329.543 15.7763 332.812 12.5166 332.815 8.5059ZM330.986 8.50215C330.986 11.4651 328.533 13.8761 325.523 13.8761C322.514 13.8761 320.068 11.4576 320.072 8.49464C320.072 5.52414 322.525 3.11695 325.535 3.12071C328.544 3.12071 330.99 5.53541 330.986 8.50215Z" fill="url(#paint85_linear_79_9478)"/>
<path d="M346.836 8.51717C346.836 4.50644 343.575 1.23551 339.555 1.23176C335.543 1.23176 332.267 4.49142 332.263 8.5059C332.263 12.5166 335.528 15.7876 339.544 15.7876C343.564 15.7876 346.832 12.5279 346.836 8.51717ZM345.006 8.51341C345.006 11.4764 342.553 13.8873 339.544 13.8873C336.535 13.8873 334.089 11.4689 334.093 8.5059C334.093 5.53916 336.546 3.12822 339.555 3.13197C342.564 3.13197 345.01 5.54667 345.006 8.51341Z" fill="url(#paint86_linear_79_9478)"/>
<path d="M360.853 8.52843C360.853 4.5177 357.592 1.24678 353.572 1.24303C349.56 1.24303 346.284 4.50268 346.28 8.51717C346.28 12.5279 349.544 15.7988 353.561 15.7988C357.58 15.7988 360.849 12.5392 360.853 8.52843ZM359.023 8.52468C359.023 11.4877 356.57 13.8986 353.561 13.8986C350.551 13.8986 348.106 11.4802 348.109 8.51717C348.109 5.54667 350.563 3.13949 353.572 3.14324C356.581 3.14324 359.027 5.55794 359.023 8.52843V8.52468Z" fill="url(#paint87_linear_79_9478)"/>
<path d="M360.804 67.1348H276.144V69.6659H360.804V67.1348Z" fill="url(#paint88_linear_79_9478)"/>
<path d="M360.811 61.4717C360.811 57.4572 357.55 54.19 353.53 54.19C349.518 54.19 346.242 57.4497 346.238 61.4604C346.238 65.4749 349.503 68.742 353.519 68.7458C357.539 68.7458 360.807 65.4861 360.811 61.4717ZM358.982 61.4717C358.982 64.4384 356.528 66.8493 353.519 66.8456C350.51 66.8456 348.064 64.4271 348.068 61.4641C348.068 58.4974 350.521 56.0902 353.53 56.0902C356.54 56.0902 358.985 58.5049 358.982 61.4717Z" fill="url(#paint89_linear_79_9478)"/>
<path d="M346.791 61.4604C346.791 57.4459 343.53 54.1787 339.51 54.1787C335.498 54.1787 332.222 57.4384 332.218 61.4491C332.218 65.4636 335.483 68.7308 339.499 68.7345C343.519 68.7345 346.787 65.4749 346.791 61.4604ZM344.965 61.4604C344.965 64.4271 342.512 66.8381 339.503 66.8343C336.493 66.8343 334.048 64.4159 334.051 61.4529C334.051 58.4861 336.505 56.0752 339.514 56.079C342.523 56.079 344.969 58.4937 344.965 61.4604Z" fill="url(#paint90_linear_79_9478)"/>
<path d="M332.774 61.4491C332.774 57.4346 329.513 54.1712 325.493 54.1675C321.481 54.1675 318.205 57.4271 318.201 61.4379C318.201 65.4523 321.466 68.7195 325.482 68.7233C329.502 68.7233 332.77 65.4636 332.774 61.4491ZM330.944 61.4491C330.944 64.4159 328.491 66.8268 325.482 66.8231C322.473 66.8231 320.027 64.4046 320.031 61.4416C320.031 58.4749 322.484 56.0639 325.493 56.0677C328.503 56.0677 330.948 58.4824 330.944 61.4491Z" fill="url(#paint91_linear_79_9478)"/>
<path d="M318.757 61.4379C318.757 57.4234 315.496 54.1562 311.477 54.1562C307.464 54.1562 304.188 57.4159 304.185 61.4266C304.185 65.4411 307.449 68.7083 311.465 68.712C315.485 68.712 318.754 65.4523 318.757 61.4379ZM316.928 61.4379C316.928 64.4046 314.475 66.8155 311.465 66.8118C308.456 66.8118 306.01 64.3933 306.014 61.4304C306.014 58.4636 308.467 56.0564 311.477 56.0564C314.486 56.0564 316.932 58.4711 316.928 61.4379Z" fill="url(#paint92_linear_79_9478)"/>
<path d="M304.737 61.4266C304.737 57.4121 301.476 54.1449 297.456 54.1449C293.444 54.1449 290.168 57.4046 290.164 61.4153C290.164 65.4298 293.429 68.697 297.445 68.7007C301.465 68.7007 304.733 65.4411 304.737 61.4266ZM302.911 61.4266C302.911 64.3933 300.458 66.8043 297.449 66.8005C294.439 66.8005 291.994 64.3821 291.997 61.4191C291.997 58.4523 294.451 56.0452 297.46 56.0452C300.469 56.0452 302.915 58.4599 302.911 61.4266Z" fill="url(#paint93_linear_79_9478)"/>
<path d="M290.72 61.4153C290.72 57.4008 287.459 54.1337 283.439 54.1337C279.427 54.1337 276.151 57.3933 276.147 61.4041C276.147 65.4186 279.412 68.6857 283.428 68.6895C287.448 68.6895 290.716 65.4298 290.72 61.4153ZM288.891 61.4153C288.891 64.3821 286.437 66.793 283.428 66.7893C280.419 66.7893 277.973 64.3708 277.977 61.4078C277.977 58.4411 280.43 56.0339 283.439 56.0339C286.449 56.0339 288.894 58.4486 288.891 61.4153Z" fill="url(#paint94_linear_79_9478)"/>
<path d="M360.837 26.235L360.826 43.1266L371.875 34.6921L360.837 26.235Z" fill="url(#paint95_linear_79_9478)"/>
<path d="M445.509 14.4995L445.501 22.0177L428.986 34.7334L445.482 47.4753L445.475 54.9973L424.189 38.4887L403.143 54.9635L382.127 38.4549L360.811 54.9297L360.819 47.4077L377.334 34.6921L360.841 21.9501L360.849 14.4319L382.139 30.9367L403.181 14.4657L424.2 30.9705L445.513 14.4995H445.509ZM419.395 34.7296L403.173 21.9877L386.932 34.7033L403.151 47.4453L419.391 34.7296H419.395Z" fill="url(#paint96_linear_79_9478)"/>
<path d="M445.486 43.1942L445.497 26.3026L434.449 34.7409L445.486 43.1942Z" fill="url(#paint97_linear_79_9478)"/>
<path d="M445.52 0.334227H360.86V2.86534H445.52V0.334227Z" fill="url(#paint98_linear_79_9478)"/>
<path d="M445.505 14.2554H360.845V16.7865H445.505V14.2554Z" fill="url(#paint99_linear_79_9478)"/>
<path d="M445.475 53.6229H360.815V55.9512H445.475V53.6229Z" fill="url(#paint100_linear_79_9478)"/>
<path d="M375.422 8.5397C375.422 4.52897 372.161 1.25805 368.141 1.25429C364.128 1.25429 360.853 4.51395 360.849 8.52843C360.849 12.5392 364.113 15.8101 368.13 15.8101C372.149 15.8101 375.418 12.5504 375.422 8.5397ZM373.596 8.53594C373.596 11.4989 371.142 13.9099 368.133 13.9099C365.124 13.9099 362.678 11.4914 362.682 8.52843C362.682 5.55794 365.135 3.15075 368.145 3.15451C371.154 3.15451 373.599 5.56921 373.596 8.5397V8.53594Z" fill="url(#paint101_linear_79_9478)"/>
<path d="M389.442 8.55097C389.442 4.54024 386.181 1.26931 382.161 1.26556C378.149 1.26556 374.873 4.52521 374.869 8.5397C374.869 12.5504 378.134 15.8214 382.15 15.8214C386.17 15.8214 389.438 12.5617 389.442 8.55097ZM387.612 8.54721C387.612 11.5102 385.159 13.9211 382.15 13.9211C379.141 13.9211 376.695 11.5027 376.699 8.5397C376.699 5.56921 379.152 3.16202 382.161 3.16577C385.17 3.16577 387.616 5.58047 387.612 8.55097V8.54721Z" fill="url(#paint102_linear_79_9478)"/>
<path d="M403.459 8.56223C403.459 4.5515 400.198 1.28058 396.178 1.27682C392.166 1.27682 388.89 4.53648 388.886 8.55097C388.886 12.5617 392.151 15.8326 396.167 15.8326C400.186 15.8326 403.455 12.573 403.459 8.56223ZM401.629 8.55848C401.629 11.5215 399.176 13.9362 396.167 13.9324C393.157 13.9324 390.712 11.5139 390.716 8.55097C390.716 5.58047 393.169 3.17328 396.178 3.17704C399.187 3.17704 401.633 5.59174 401.629 8.55848Z" fill="url(#paint103_linear_79_9478)"/>
<path d="M417.475 8.5735C417.475 4.56277 414.214 1.29185 410.195 1.28809C406.182 1.28809 402.906 4.54775 402.903 8.56223C402.903 12.573 406.167 15.8439 410.183 15.8439C414.203 15.8439 417.472 12.5842 417.475 8.5735ZM415.65 8.56974C415.65 11.5327 413.196 13.9474 410.187 13.9437C407.178 13.9437 404.732 11.5252 404.736 8.56223C404.736 5.59174 407.189 3.18455 410.198 3.1883C413.208 3.1883 415.653 5.603 415.65 8.5735V8.56974Z" fill="url(#paint104_linear_79_9478)"/>
<path d="M431.496 8.58476C431.496 4.57403 428.235 1.30311 424.215 1.29936C420.203 1.29936 416.927 4.55901 416.923 8.5735C416.923 12.5842 420.188 15.8552 424.204 15.8552C428.224 15.8552 431.492 12.5955 431.496 8.58476ZM429.666 8.58101C429.666 11.544 427.213 13.9549 424.204 13.9549C421.195 13.9549 418.749 11.5365 418.753 8.5735C418.753 5.60676 421.206 3.19582 424.215 3.19957C427.224 3.19957 429.67 5.61427 429.666 8.58476V8.58101Z" fill="url(#paint105_linear_79_9478)"/>
<path d="M445.513 8.59603C445.513 4.5853 442.252 1.31438 438.232 1.31062C434.219 1.31062 430.944 4.57028 430.94 8.58476C430.94 12.5955 434.204 15.8664 438.221 15.8664C442.24 15.8664 445.509 12.6068 445.513 8.59603ZM443.683 8.59227C443.683 11.5553 441.23 13.9662 438.221 13.9662C435.211 13.9662 432.766 11.5477 432.769 8.58476C432.769 5.61427 435.223 3.20708 438.232 3.21084C441.241 3.21084 443.687 5.62554 443.683 8.59603V8.59227Z" fill="url(#paint106_linear_79_9478)"/>
<path d="M445.464 67.2023H360.804V69.7334H445.464V67.2023Z" fill="url(#paint107_linear_79_9478)"/>
<path d="M445.471 61.5392C445.471 57.5247 442.21 54.2575 438.19 54.2575C434.178 54.2575 430.902 57.5172 430.898 61.5279C430.898 65.5424 434.163 68.8096 438.179 68.8133C442.199 68.8133 445.467 65.5537 445.471 61.5392ZM443.642 61.5392C443.642 64.5059 441.188 66.9168 438.179 66.9131C435.17 66.9131 432.724 64.4946 432.728 61.5317C432.728 58.5649 435.181 56.1577 438.19 56.1577C441.2 56.1577 443.645 58.5724 443.642 61.5392Z" fill="url(#paint108_linear_79_9478)"/>
<path d="M431.454 61.5279C431.454 57.5134 428.194 54.2462 424.174 54.2462C420.161 54.2462 416.886 57.5059 416.882 61.5166C416.882 65.5311 420.146 68.7983 424.163 68.802C428.182 68.802 431.451 65.5424 431.454 61.5279ZM429.625 61.5279C429.625 64.4946 427.172 66.9056 424.163 66.9018C421.153 66.9018 418.708 64.4834 418.711 61.5166C418.711 58.5499 421.165 56.1427 424.174 56.1427C427.183 56.1427 429.629 58.5574 429.625 61.5241V61.5279Z" fill="url(#paint109_linear_79_9478)"/>
<path d="M417.434 61.5166C417.434 57.5021 414.173 54.235 410.153 54.235C406.141 54.235 402.865 57.4946 402.861 61.5054C402.861 65.5199 406.126 68.787 410.142 68.7908C414.162 68.7908 417.43 65.5311 417.434 61.5166ZM415.604 61.5166C415.604 64.4834 413.151 66.8943 410.142 66.8906C407.133 66.8906 404.687 64.4721 404.691 61.5091C404.691 58.5424 407.144 56.1314 410.153 56.1352C413.163 56.1352 415.608 58.5499 415.604 61.5166Z" fill="url(#paint110_linear_79_9478)"/>
<path d="M403.417 61.5054C403.417 57.4909 400.156 54.2237 396.137 54.2237C392.124 54.2237 388.848 57.4834 388.845 61.4941C388.845 65.5086 392.109 68.7758 396.125 68.7795C400.145 68.7795 403.414 65.5199 403.417 61.5054ZM401.588 61.5054C401.588 64.4721 399.135 66.883 396.125 66.8793C393.116 66.8793 390.67 64.4608 390.674 61.4979C390.674 58.5311 393.127 56.1239 396.137 56.1239C399.146 56.1239 401.591 58.5386 401.588 61.5054Z" fill="url(#paint111_linear_79_9478)"/>
<path d="M389.401 61.4941C389.401 57.4796 386.14 54.2124 382.12 54.2124C378.108 54.2124 374.832 57.4721 374.828 61.4828C374.828 65.4973 378.093 68.7645 382.109 68.7682C386.128 68.7682 389.397 65.5086 389.401 61.4941ZM387.571 61.4941C387.571 64.4608 385.118 66.8718 382.109 66.868C379.099 66.868 376.654 64.4496 376.657 61.4866C376.657 58.5199 379.111 56.1127 382.12 56.1127C385.129 56.1127 387.575 58.5274 387.571 61.4941Z" fill="url(#paint112_linear_79_9478)"/>
<path d="M375.38 61.4828C375.38 57.4683 372.119 54.2012 368.099 54.2012C364.087 54.2012 360.811 57.4608 360.807 61.4716C360.807 65.4861 364.072 68.7532 368.088 68.757C372.108 68.757 375.376 65.4973 375.38 61.4828ZM373.551 61.4828C373.551 64.4496 371.097 66.8605 368.088 66.8568C365.079 66.8568 362.633 64.4383 362.637 61.4753C362.637 58.5086 365.09 56.1014 368.099 56.1014C371.109 56.1014 373.554 58.5161 373.551 61.4828Z" fill="url(#paint113_linear_79_9478)"/>
<path d="M445.497 26.3026L445.486 43.1942L456.535 34.7597L445.497 26.3026Z" fill="url(#paint114_linear_79_9478)"/>
<path d="M530.169 14.5671L530.161 22.0853L513.646 34.801L530.142 47.5429L530.135 55.0649L508.849 38.5601L487.803 55.0349L466.787 38.5263L445.471 55.0011L445.479 47.4791L461.994 34.7634L445.501 22.0215L445.509 14.5032L466.799 31.008L487.837 14.537L508.856 31.0418L530.169 14.5708V14.5671ZM504.055 34.7972L487.833 22.0553L471.596 34.7747L487.814 47.5166L504.055 34.801V34.7972Z" fill="url(#paint115_linear_79_9478)"/>
<path d="M530.146 43.2618L530.161 26.3702L519.112 34.8085L530.146 43.2618Z" fill="url(#paint116_linear_79_9478)"/>
<path d="M530.18 0.401824H445.52V2.93294H530.18V0.401824Z" fill="url(#paint117_linear_79_9478)"/>
<path d="M530.169 14.323H445.509V16.8541H530.169V14.323Z" fill="url(#paint118_linear_79_9478)"/>
<path d="M530.135 53.6905H445.475V56.0188H530.135V53.6905Z" fill="url(#paint119_linear_79_9478)"/>
<path d="M460.081 8.6073C460.081 4.59657 456.821 1.32564 452.801 1.32189C448.788 1.32189 445.513 4.58155 445.509 8.59603C445.509 12.6068 448.773 15.8777 452.789 15.8777C456.809 15.8777 460.078 12.618 460.081 8.6073ZM458.256 8.60354C458.256 11.5665 455.802 13.9775 452.793 13.9775C449.784 13.9775 447.338 11.559 447.342 8.59603C447.342 5.62554 449.795 3.21835 452.805 3.2221C455.814 3.2221 458.259 5.6368 458.256 8.6073V8.60354Z" fill="url(#paint120_linear_79_9478)"/>
<path d="M474.102 8.61856C474.102 4.60783 470.841 1.33691 466.821 1.33315C462.809 1.33315 459.533 4.59281 459.529 8.6073C459.529 12.618 462.794 15.889 466.81 15.889C470.83 15.889 474.098 12.6293 474.102 8.61856ZM472.272 8.61481C472.272 11.5778 469.819 13.9887 466.81 13.9887C463.801 13.9887 461.355 11.5703 461.359 8.6073C461.359 5.6368 463.812 3.22961 466.821 3.23337C469.83 3.23337 472.276 5.64807 472.272 8.61856V8.61481Z" fill="url(#paint121_linear_79_9478)"/>
<path d="M488.119 8.62983C488.119 4.6191 484.858 1.34818 480.838 1.34442C476.826 1.34442 473.55 4.60408 473.546 8.61856C473.546 12.6293 476.811 15.9002 480.827 15.9002C484.846 15.9002 488.115 12.6406 488.119 8.62983ZM486.293 8.62607C486.293 11.5891 483.84 14.0038 480.83 14C477.821 14 475.375 11.5815 475.379 8.61856C475.379 5.64807 477.832 3.24088 480.842 3.24464C483.851 3.24464 486.297 5.65934 486.293 8.62983V8.62607Z" fill="url(#paint122_linear_79_9478)"/>
<path d="M502.139 8.63734C502.139 4.62661 498.878 1.35569 494.858 1.35193C490.846 1.35193 487.57 4.61159 487.566 8.62607C487.566 12.6368 490.831 15.9077 494.847 15.9077C498.867 15.9077 502.135 12.6481 502.139 8.63734ZM500.31 8.63734C500.31 11.6003 497.856 14.015 494.847 14.0113C491.838 14.0113 489.392 11.5928 489.396 8.62983C489.396 5.65934 491.849 3.25215 494.858 3.2559C497.868 3.2559 500.313 5.6706 500.31 8.6411V8.63734Z" fill="url(#paint123_linear_79_9478)"/>
<path d="M516.156 8.64861C516.156 4.63788 512.895 1.36695 508.875 1.3632C504.863 1.3632 501.587 4.62285 501.583 8.63734C501.583 12.6481 504.848 15.919 508.864 15.919C512.884 15.919 516.152 12.6593 516.156 8.64861ZM514.326 8.64861C514.326 11.6116 511.873 14.0225 508.864 14.0225C505.855 14.0225 503.409 11.6041 503.413 8.6411C503.413 5.6706 505.866 3.26341 508.875 3.26717C511.884 3.26717 514.33 5.68187 514.326 8.65236V8.64861Z" fill="url(#paint124_linear_79_9478)"/>
<path d="M530.172 8.65987C530.172 4.64914 526.912 1.37822 522.892 1.37446C518.88 1.37446 515.604 4.63412 515.6 8.64861C515.6 12.6593 518.865 15.9303 522.881 15.9303C526.9 15.9303 530.169 12.6706 530.172 8.65987ZM528.347 8.65987C528.347 11.6229 525.893 14.0338 522.884 14.0338C519.875 14.0338 517.429 11.6153 517.433 8.65236C517.433 5.68187 519.886 3.27468 522.896 3.27843C525.905 3.27843 528.35 5.69313 528.347 8.66363V8.65987Z" fill="url(#paint125_linear_79_9478)"/>
<path d="M530.124 67.2699H445.464V69.801H530.124V67.2699Z" fill="url(#paint126_linear_79_9478)"/>
<path d="M530.131 61.6068C530.131 57.5923 526.87 54.3251 522.85 54.3251C518.834 54.3251 515.562 57.5848 515.558 61.5955C515.558 65.61 518.823 68.8771 522.839 68.8809C526.859 68.8809 530.127 65.6212 530.131 61.6068ZM528.302 61.6068C528.302 64.5735 525.848 66.9844 522.839 66.9807C519.83 66.9807 517.384 64.5622 517.388 61.5992C517.388 58.6325 519.841 56.2253 522.85 56.2253C525.86 56.2253 528.305 58.64 528.302 61.6068Z" fill="url(#paint127_linear_79_9478)"/>
<path d="M516.115 61.5955C516.115 57.581 512.854 54.3138 508.834 54.3138C504.818 54.3138 501.546 57.5735 501.542 61.5842C501.542 65.5987 504.806 68.8659 508.823 68.8696C512.842 68.8696 516.111 65.61 516.115 61.5955ZM514.285 61.5955C514.285 64.5622 511.832 66.9732 508.823 66.9694C505.813 66.9694 503.368 64.551 503.371 61.588C503.371 58.6212 505.825 56.2103 508.834 56.2141C511.843 56.2141 514.289 58.6288 514.285 61.5955Z" fill="url(#paint128_linear_79_9478)"/>
<path d="M502.094 61.5842C502.094 57.5697 498.833 54.3026 494.813 54.3026C490.797 54.3026 487.525 57.5622 487.521 61.573C487.521 65.5874 490.786 68.8546 494.802 68.8584C498.822 68.8584 502.09 65.5987 502.094 61.5842ZM500.268 61.5842C500.268 64.551 497.815 66.9619 494.806 66.9582C491.797 66.9582 489.351 64.5397 489.355 61.5767C489.355 58.61 491.808 56.199 494.817 56.2028C497.826 56.2028 500.272 58.6175 500.268 61.5842Z" fill="url(#paint129_linear_79_9478)"/>
<path d="M488.077 61.573C488.077 57.5585 484.816 54.2913 480.797 54.2913C476.781 54.2913 473.508 57.551 473.505 61.5617C473.505 65.5762 476.769 68.8434 480.785 68.8471C484.805 68.8471 488.074 65.5874 488.077 61.573ZM486.248 61.573C486.248 64.5397 483.795 66.9506 480.785 66.9469C477.776 66.9469 475.33 64.5284 475.334 61.5655C475.334 58.5987 477.787 56.1915 480.797 56.1915C483.806 56.1915 486.252 58.6062 486.248 61.573Z" fill="url(#paint130_linear_79_9478)"/>
<path d="M474.061 61.5617C474.061 57.5472 470.8 54.28 466.78 54.28C462.768 54.28 459.492 57.5397 459.488 61.5504C459.488 65.5649 462.753 68.8321 466.769 68.8358C470.788 68.8358 474.057 65.5762 474.061 61.5617ZM472.231 61.5617C472.231 64.5284 469.778 66.9394 466.769 66.9356C463.759 66.9356 461.314 64.5172 461.318 61.5542C461.318 58.5874 463.771 56.1803 466.78 56.1803C469.789 56.1803 472.235 58.595 472.231 61.5617Z" fill="url(#paint131_linear_79_9478)"/>
<path d="M460.04 61.5504C460.04 57.5359 456.779 54.2688 452.759 54.2688C448.747 54.2688 445.471 57.5284 445.467 61.5392C445.467 65.5536 448.732 68.8208 452.748 68.8246C456.768 68.8246 460.036 65.5649 460.04 61.5504ZM458.214 61.5504C458.214 64.5172 455.761 66.9281 452.752 66.9244C449.743 66.9244 447.297 64.5059 447.301 61.5429C447.301 58.5762 449.754 56.169 452.763 56.169C455.772 56.169 458.218 58.5837 458.214 61.5504Z" fill="url(#paint132_linear_79_9478)"/>
<path d="M530.161 26.3702L530.146 43.2618L541.195 34.8273L530.161 26.3702Z" fill="url(#paint133_linear_79_9478)"/>
<path d="M614.829 14.6347L614.821 22.1529L598.306 34.8686L614.802 47.6105L614.795 55.1325L593.509 38.6277L572.463 55.1025L551.447 38.5939L530.131 55.0687L530.139 47.5467L546.654 34.831L530.161 22.0891L530.169 14.5708L551.459 31.0756L572.497 14.6046L593.516 31.1094L614.829 14.6384V14.6347ZM588.715 34.8648L572.493 22.1229L556.252 34.8423L572.471 47.5842L588.711 34.8686L588.715 34.8648Z" fill="url(#paint134_linear_79_9478)"/>
<path d="M614.806 43.3294L614.821 26.4378L603.772 34.8761L614.806 43.3294Z" fill="url(#paint135_linear_79_9478)"/>
<path d="M614.84 0.465665H530.18V2.99678H614.84V0.465665Z" fill="url(#paint136_linear_79_9478)"/>
<path d="M614.829 14.3906H530.169V16.9217H614.829V14.3906Z" fill="url(#paint137_linear_79_9478)"/>
<path d="M614.799 53.7581H530.139V56.0865H614.799V53.7581Z" fill="url(#paint138_linear_79_9478)"/>
<path d="M544.745 8.67114C544.745 4.66041 541.484 1.38948 537.464 1.38573C533.452 1.38573 530.176 4.64539 530.172 8.65987C530.172 12.6706 533.437 15.9415 537.453 15.9415C541.473 15.9415 544.741 12.6819 544.745 8.67114ZM542.916 8.67114C542.916 11.6341 540.462 14.0451 537.453 14.0451C534.444 14.0451 531.998 11.6266 532.002 8.66363C532.002 5.69313 534.455 3.28594 537.464 3.2897C540.474 3.2897 542.919 5.7044 542.916 8.67114Z" fill="url(#paint139_linear_79_9478)"/>
<path d="M558.762 8.6824C558.762 4.67167 555.501 1.40075 551.481 1.397C547.469 1.397 544.193 4.65665 544.189 8.67114C544.189 12.6819 547.454 15.9528 551.47 15.9528C555.49 15.9528 558.758 12.6931 558.762 8.6824ZM556.932 8.6824C556.932 11.6454 554.479 14.0563 551.47 14.0563C548.461 14.0563 546.015 11.6379 546.019 8.67489C546.019 5.7044 548.472 3.29721 551.481 3.30097C554.49 3.30097 556.936 5.71566 556.932 8.6824Z" fill="url(#paint140_linear_79_9478)"/>
<path d="M572.779 8.69367C572.779 4.68294 569.518 1.41202 565.498 1.40826C561.486 1.40826 558.21 4.66792 558.206 8.6824C558.206 12.6931 561.471 15.9603 565.487 15.9641C569.506 15.9641 572.775 12.7044 572.779 8.69367ZM570.953 8.69367C570.953 11.6567 568.5 14.0714 565.49 14.0676C562.481 14.0676 560.035 11.6491 560.039 8.68616C560.039 5.71567 562.492 3.30848 565.502 3.31223C568.511 3.31223 570.957 5.72693 570.953 8.69367Z" fill="url(#paint141_linear_79_9478)"/>
<path d="M586.799 8.70494C586.799 4.69421 583.538 1.42328 579.518 1.41953C575.506 1.41953 572.23 4.67918 572.226 8.69367C572.226 12.7044 575.491 15.9753 579.507 15.9753C583.527 15.9753 586.795 12.7157 586.799 8.70494ZM584.969 8.70494C584.969 11.6679 582.516 14.0789 579.507 14.0789C576.498 14.0789 574.052 11.6604 574.056 8.69743C574.056 5.72693 576.509 3.31974 579.518 3.3235C582.528 3.3235 584.973 5.7382 584.969 8.70494Z" fill="url(#paint142_linear_79_9478)"/>
<path d="M600.816 8.7162C600.816 4.70547 597.555 1.43455 593.535 1.43079C589.523 1.43079 586.247 4.69045 586.243 8.70494C586.243 12.7157 589.508 15.9866 593.524 15.9866C597.544 15.9866 600.812 12.7269 600.816 8.7162ZM598.986 8.7162C598.986 11.6792 596.533 14.0901 593.524 14.0901C590.515 14.0901 588.069 11.6717 588.073 8.70869C588.073 5.7382 590.526 3.33101 593.535 3.33476C596.544 3.33476 598.99 5.74946 598.986 8.7162Z" fill="url(#paint143_linear_79_9478)"/>
<path d="M614.832 8.72747C614.832 4.71674 611.572 1.44582 607.552 1.44206C603.54 1.44206 600.264 4.70172 600.26 8.7162C600.26 12.7269 603.524 15.9979 607.541 15.9979C611.56 15.9979 614.829 12.7382 614.832 8.72747ZM613.007 8.72747C613.007 11.6905 610.553 14.1014 607.544 14.1014C604.535 14.1014 602.089 11.6829 602.093 8.71996C602.093 5.74946 604.546 3.34227 607.555 3.34603C610.565 3.34603 613.01 5.76073 613.007 8.72747Z" fill="url(#paint144_linear_79_9478)"/>
<path d="M614.787 67.3338H530.127V69.8649H614.787V67.3338Z" fill="url(#paint145_linear_79_9478)"/>
<path d="M614.791 61.6745C614.791 57.66 611.53 54.3965 607.51 54.3928C603.498 54.3928 600.222 57.6525 600.218 61.6632C600.218 65.6777 603.483 68.9448 607.499 68.9486C611.519 68.9486 614.787 65.6889 614.791 61.6745ZM612.965 61.6707C612.965 64.6374 610.512 67.0484 607.503 67.0446C604.494 67.0446 602.048 64.6262 602.052 61.6632C602.052 58.6964 604.505 56.2893 607.514 56.2893C610.523 56.2893 612.969 58.704 612.965 61.6707Z" fill="url(#paint146_linear_79_9478)"/>
<path d="M600.774 61.6632C600.774 57.6487 597.513 54.3815 593.494 54.3815C589.481 54.3815 586.206 57.6412 586.202 61.6519C586.202 65.6664 589.466 68.9336 593.482 68.9373C597.502 68.9373 600.771 65.6777 600.774 61.6632ZM598.945 61.6594C598.945 64.6262 596.492 67.0371 593.482 67.0334C590.473 67.0334 588.028 64.6149 588.031 61.6519C588.031 58.6852 590.484 56.2742 593.494 56.278C596.503 56.278 598.949 58.6927 598.945 61.6594Z" fill="url(#paint147_linear_79_9478)"/>
<path d="M586.758 61.6519C586.758 57.6374 583.497 54.3703 579.477 54.3703C575.465 54.3703 572.189 57.6299 572.185 61.6406C572.185 65.6551 575.45 68.9223 579.466 68.9261C583.486 68.9261 586.754 65.6664 586.758 61.6519ZM584.928 61.6482C584.928 64.6149 582.475 67.0258 579.466 67.0221C576.457 67.0221 574.011 64.6036 574.015 61.6406C574.015 58.6739 576.468 56.263 579.477 56.2667C582.486 56.2667 584.932 58.6814 584.928 61.6482Z" fill="url(#paint148_linear_79_9478)"/>
<path d="M572.737 61.6406C572.737 57.6262 569.476 54.359 565.457 54.359C561.444 54.359 558.168 57.6187 558.165 61.6294C558.165 65.6439 561.429 68.911 565.445 68.9148C569.465 68.9148 572.734 65.6551 572.737 61.6406ZM570.911 61.6406C570.911 64.6074 568.458 67.0183 565.449 67.0146C562.44 67.0146 559.994 64.5961 559.998 61.6331C559.998 58.6664 562.451 56.2592 565.46 56.2592C568.47 56.2592 570.915 58.6739 570.911 61.6406Z" fill="url(#paint149_linear_79_9478)"/>
<path d="M558.721 61.6294C558.721 57.6149 555.46 54.3477 551.44 54.3477C547.428 54.3477 544.152 57.6074 544.148 61.6181C544.148 65.6326 547.413 68.8998 551.429 68.9035C555.448 68.9035 558.717 65.6439 558.721 61.6294ZM556.891 61.6294C556.891 64.5961 554.438 67.0071 551.429 67.0033C548.419 67.0033 545.974 64.5849 545.977 61.6219C545.977 58.6551 548.431 56.2479 551.44 56.2479C554.449 56.2479 556.895 58.6626 556.891 61.6294Z" fill="url(#paint150_linear_79_9478)"/>
<path d="M544.704 61.6181C544.704 57.6036 541.443 54.3365 537.423 54.3365C533.407 54.3365 530.135 57.596 530.131 61.6068C530.131 65.6212 533.396 68.8885 537.412 68.8923C541.432 68.8923 544.7 65.6326 544.704 61.6181ZM542.874 61.6181C542.874 64.5849 540.421 66.9958 537.412 66.992C534.403 66.992 531.957 64.5736 531.961 61.6106C531.961 58.6439 534.414 56.2367 537.423 56.2367C540.432 56.2367 542.878 58.6514 542.874 61.6181Z" fill="url(#paint151_linear_79_9478)"/>
<path d="M614.821 26.4378L614.806 43.3294L625.855 34.8911L614.821 26.4378Z" fill="url(#paint152_linear_79_9478)"/>
<path d="M699.489 14.7023L699.481 22.2205L682.966 34.9399L699.462 47.6819L699.455 55.2039L678.169 38.6953L657.123 55.1701L636.107 38.6615L614.791 55.1363L614.799 47.6143L631.314 34.8986L614.821 22.1567L614.829 14.6384L636.119 31.1432L657.161 14.6722L678.18 31.177L699.492 14.706L699.489 14.7023ZM673.375 34.9286L657.153 22.1867L640.912 34.9024L657.131 47.6443L673.371 34.9286H673.375Z" fill="url(#paint153_linear_79_9478)"/>
<path d="M699.466 43.397L699.481 26.5054L688.432 34.9437L699.466 43.397Z" fill="url(#paint154_linear_79_9478)"/>
<path d="M699.5 0.533262H614.84V3.06438H699.5V0.533262Z" fill="url(#paint155_linear_79_9478)"/>
<path d="M699.489 14.4544H614.829V16.9855H699.489V14.4544Z" fill="url(#paint156_linear_79_9478)"/>
<path d="M699.459 53.8257H614.799V56.1541H699.459V53.8257Z" fill="url(#paint157_linear_79_9478)"/>
<path d="M629.405 8.73874C629.405 4.72801 626.144 1.45708 622.124 1.45333C618.112 1.45333 614.836 4.71298 614.832 8.72747C614.832 12.7382 618.097 16.0091 622.113 16.0091C626.133 16.0091 629.401 12.7495 629.405 8.73874ZM627.576 8.73874C627.576 11.7017 625.122 14.1127 622.113 14.1127C619.104 14.1127 616.658 11.6942 616.662 8.73122C616.662 5.76073 619.115 3.35354 622.124 3.3573C625.134 3.3573 627.579 5.772 627.576 8.73874Z" fill="url(#paint158_linear_79_9478)"/>
<path d="M643.422 8.75C643.422 4.73927 640.161 1.46835 636.141 1.46459C632.129 1.46459 628.853 4.72425 628.849 8.73873C628.849 12.7495 632.114 16.0204 636.13 16.0204C640.15 16.0204 643.418 12.7607 643.422 8.75ZM641.596 8.75C641.596 11.713 639.143 14.1239 636.134 14.1239C633.124 14.1239 630.679 11.7055 630.683 8.74249C630.683 5.772 633.136 3.36481 636.145 3.36856C639.154 3.36856 641.6 5.78326 641.596 8.75376V8.75Z" fill="url(#paint159_linear_79_9478)"/>
<path d="M657.442 8.76127C657.442 4.75054 654.181 1.47961 650.162 1.47586C646.149 1.47586 642.873 4.73552 642.87 8.75C642.87 12.7607 646.134 16.0317 650.15 16.0317C654.17 16.0317 657.439 12.772 657.442 8.76127ZM655.613 8.76127C655.613 11.7242 653.16 14.1389 650.15 14.1352C647.141 14.1352 644.695 11.7167 644.699 8.75376C644.699 5.78326 647.152 3.37607 650.162 3.37983C653.171 3.37983 655.617 5.79453 655.613 8.76502V8.76127Z" fill="url(#paint160_linear_79_9478)"/>
<path d="M671.459 8.77253C671.459 4.7618 668.198 1.49088 664.178 1.48712C660.166 1.48712 656.89 4.74678 656.886 8.76127C656.886 12.772 660.151 16.0429 664.167 16.0429C668.187 16.0429 671.455 12.7833 671.459 8.77253ZM669.63 8.77253C669.63 11.7355 667.176 14.1502 664.167 14.1465C661.158 14.1465 658.712 11.728 658.716 8.76502C658.716 5.79453 661.169 3.38734 664.178 3.39109C667.188 3.39109 669.633 5.80579 669.63 8.77629V8.77253Z" fill="url(#paint161_linear_79_9478)"/>
<path d="M685.476 8.7838C685.476 4.77307 682.215 1.50215 678.195 1.49839C674.183 1.49839 670.907 4.75805 670.903 8.77253C670.903 12.7833 674.168 16.0542 678.184 16.0542C682.204 16.0542 685.472 12.7945 685.476 8.7838ZM683.65 8.7838C683.65 11.7468 681.197 14.1577 678.188 14.1577C675.178 14.1577 672.733 11.7393 672.736 8.77629C672.736 5.80579 675.19 3.39861 678.199 3.40236C681.208 3.40236 683.654 5.81706 683.65 8.78755V8.7838Z" fill="url(#paint162_linear_79_9478)"/>
<path d="M699.496 8.79506C699.496 4.78434 696.235 1.51341 692.216 1.50966C688.203 1.50966 684.927 4.76931 684.924 8.7838C684.924 12.7945 688.188 16.0655 692.204 16.0655C696.224 16.0655 699.492 12.8058 699.496 8.79506ZM697.667 8.79506C697.667 11.758 695.213 14.169 692.204 14.169C689.195 14.169 686.749 11.7505 686.753 8.78755C686.753 5.81706 689.206 3.40987 692.216 3.41363C695.225 3.41363 697.67 5.82833 697.667 8.79882V8.79506Z" fill="url(#paint163_linear_79_9478)"/>
<path d="M699.447 67.4014H614.787V69.9325H699.447V67.4014Z" fill="url(#paint164_linear_79_9478)"/>
<path d="M699.455 61.7421C699.455 57.7276 696.194 54.4604 692.174 54.4604C688.162 54.4604 684.886 57.7201 684.882 61.7308C684.882 65.7453 688.147 69.0124 692.163 69.0162C696.183 69.0162 699.451 65.7565 699.455 61.7421ZM697.625 61.7383C697.625 64.705 695.172 67.116 692.163 67.1122C689.154 67.1122 686.708 64.6938 686.712 61.7308C686.712 58.764 689.165 56.3569 692.174 56.3569C695.183 56.3569 697.629 58.7716 697.625 61.7383Z" fill="url(#paint165_linear_79_9478)"/>
<path d="M685.434 61.7308C685.434 57.7163 682.173 54.4491 678.154 54.4491C674.141 54.4491 670.865 57.7088 670.862 61.7195C670.862 65.734 674.126 69.0012 678.142 69.0049C682.162 69.0049 685.431 65.7453 685.434 61.7308ZM683.605 61.727C683.605 64.6938 681.152 67.1047 678.142 67.101C675.133 67.101 672.688 64.6825 672.691 61.7158C672.691 58.749 675.144 56.3418 678.154 56.3418C681.163 56.3418 683.609 58.7565 683.605 61.7233V61.727Z" fill="url(#paint166_linear_79_9478)"/>
<path d="M671.418 61.7195C671.418 57.705 668.157 54.4379 664.137 54.4379C660.125 54.4379 656.849 57.6975 656.845 61.7083C656.845 65.7227 660.11 68.9899 664.126 68.9937C668.146 68.9937 671.414 65.734 671.418 61.7195ZM669.588 61.7158C669.588 64.6825 667.135 67.0934 664.126 67.0897C661.117 67.0897 658.671 64.6712 658.675 61.7045C658.675 58.7378 661.128 56.3268 664.137 56.3306C667.146 56.3306 669.592 58.7453 669.588 61.712V61.7158Z" fill="url(#paint167_linear_79_9478)"/>
<path d="M657.397 61.7083C657.397 57.6938 654.136 54.4266 650.117 54.4266C646.104 54.4266 642.828 57.6863 642.825 61.697C642.825 65.7115 646.089 68.9786 650.105 68.9824C654.125 68.9824 657.393 65.7227 657.397 61.7083ZM655.571 61.7045C655.571 64.6712 653.118 67.0822 650.109 67.0784C647.1 67.0784 644.654 64.66 644.658 61.697C644.658 58.7302 647.111 56.3231 650.12 56.3231C653.13 56.3231 655.575 58.7378 655.571 61.7045Z" fill="url(#paint168_linear_79_9478)"/>
<path d="M643.381 61.697C643.381 57.6825 640.12 54.4153 636.1 54.4153C632.088 54.4153 628.812 57.675 628.808 61.6857C628.808 65.7002 632.073 68.9674 636.089 68.9711C640.108 68.9711 643.377 65.7115 643.381 61.697ZM641.551 61.6932C641.551 64.66 639.098 67.0709 636.089 67.0672C633.079 67.0672 630.634 64.6487 630.637 61.682C630.637 58.7152 633.091 56.308 636.1 56.308C639.109 56.308 641.555 58.7227 641.551 61.6895V61.6932Z" fill="url(#paint169_linear_79_9478)"/>
<path d="M629.364 61.6857C629.364 57.6712 626.103 54.4041 622.083 54.4041C618.071 54.4041 614.795 57.6637 614.791 61.6745C614.791 65.6889 618.056 68.9561 622.072 68.9599C626.092 68.9599 629.36 65.7002 629.364 61.6857ZM627.534 61.682C627.534 64.6487 625.081 67.0596 622.072 67.0559C619.063 67.0559 616.617 64.6374 616.621 61.6745C616.621 58.7077 619.074 56.3005 622.083 56.3005C625.092 56.3005 627.538 58.7152 627.534 61.682Z" fill="url(#paint170_linear_79_9478)"/>
<defs>
<linearGradient id="paint0_linear_79_9478" x1="-62.5" y1="34.9663" x2="699.5" y2="34.9663" gradientUnits="userSpaceOnUse">
<stop stop-color="#EDEDED"/>
<stop offset="1" stop-color="#EDEDED" stop-opacity="0"/>
</linearGradient>
<linearGradient id="paint1_linear_79_9478" x1="-62.5" y1="34.9663" x2="699.5" y2="34.9663" gradientUnits="userSpaceOnUse">
<stop stop-color="#EDEDED"/>
<stop offset="1" stop-color="#EDEDED" stop-opacity="0"/>
</linearGradient>
<linearGradient id="paint2_linear_79_9478" x1="-62.5" y1="34.9663" x2="699.5" y2="34.9663" gradientUnits="userSpaceOnUse">
<stop stop-color="#EDEDED"/>
<stop offset="1" stop-color="#EDEDED" stop-opacity="0"/>
</linearGradient>
<linearGradient id="paint3_linear_79_9478" x1="-62.5" y1="34.9663" x2="699.5" y2="34.9663" gradientUnits="userSpaceOnUse">
<stop stop-color="#EDEDED"/>
<stop offset="1" stop-color="#EDEDED" stop-opacity="0"/>
</linearGradient>
<linearGradient id="paint4_linear_79_9478" x1="-62.5" y1="34.9663" x2="699.5" y2="34.9663" gradientUnits="userSpaceOnUse">
<stop stop-color="#EDEDED"/>
<stop offset="1" stop-color="#EDEDED" stop-opacity="0"/>
</linearGradient>
<linearGradient id="paint5_linear_79_9478" x1="-62.5" y1="34.9663" x2="699.5" y2="34.9663" gradientUnits="userSpaceOnUse">
<stop stop-color="#EDEDED"/>
<stop offset="1" stop-color="#EDEDED" stop-opacity="0"/>
</linearGradient>
<linearGradient id="paint6_linear_79_9478" x1="-62.5" y1="34.9663" x2="699.5" y2="34.9663" gradientUnits="userSpaceOnUse">
<stop stop-color="#EDEDED"/>
<stop offset="1" stop-color="#EDEDED" stop-opacity="0"/>
</linearGradient>
<linearGradient id="paint7_linear_79_9478" x1="-62.5" y1="34.9663" x2="699.5" y2="34.9663" gradientUnits="userSpaceOnUse">
<stop stop-color="#EDEDED"/>
<stop offset="1" stop-color="#EDEDED" stop-opacity="0"/>
</linearGradient>
<linearGradient id="paint8_linear_79_9478" x1="-62.5" y1="34.9663" x2="699.5" y2="34.9663" gradientUnits="userSpaceOnUse">
<stop stop-color="#EDEDED"/>
<stop offset="1" stop-color="#EDEDED" stop-opacity="0"/>
</linearGradient>
<linearGradient id="paint9_linear_79_9478" x1="-62.5" y1="34.9663" x2="699.5" y2="34.9663" gradientUnits="userSpaceOnUse">
<stop stop-color="#EDEDED"/>
<stop offset="1" stop-color="#EDEDED" stop-opacity="0"/>
</linearGradient>
<linearGradient id="paint10_linear_79_9478" x1="-62.5" y1="34.9663" x2="699.5" y2="34.9663" gradientUnits="userSpaceOnUse">
<stop stop-color="#EDEDED"/>
<stop offset="1" stop-color="#EDEDED" stop-opacity="0"/>
</linearGradient>
<linearGradient id="paint11_linear_79_9478" x1="-62.5" y1="34.9663" x2="699.5" y2="34.9663" gradientUnits="userSpaceOnUse">
<stop stop-color="#EDEDED"/>
<stop offset="1" stop-color="#EDEDED" stop-opacity="0"/>
</linearGradient>
<linearGradient id="paint12_linear_79_9478" x1="-62.5" y1="34.9663" x2="699.5" y2="34.9663" gradientUnits="userSpaceOnUse">
<stop stop-color="#EDEDED"/>
<stop offset="1" stop-color="#EDEDED" stop-opacity="0"/>
</linearGradient>
<linearGradient id="paint13_linear_79_9478" x1="-62.5" y1="34.9663" x2="699.5" y2="34.9663" gradientUnits="userSpaceOnUse">
<stop stop-color="#EDEDED"/>
<stop offset="1" stop-color="#EDEDED" stop-opacity="0"/>
</linearGradient>
<linearGradient id="paint14_linear_79_9478" x1="-62.5" y1="34.9663" x2="699.5" y2="34.9663" gradientUnits="userSpaceOnUse">
<stop stop-color="#EDEDED"/>
<stop offset="1" stop-color="#EDEDED" stop-opacity="0"/>
</linearGradient>
<linearGradient id="paint15_linear_79_9478" x1="-62.5" y1="34.9663" x2="699.5" y2="34.9663" gradientUnits="userSpaceOnUse">
<stop stop-color="#EDEDED"/>
<stop offset="1" stop-color="#EDEDED" stop-opacity="0"/>
</linearGradient>
<linearGradient id="paint16_linear_79_9478" x1="-62.5" y1="34.9663" x2="699.5" y2="34.9663" gradientUnits="userSpaceOnUse">
<stop stop-color="#EDEDED"/>
<stop offset="1" stop-color="#EDEDED" stop-opacity="0"/>
</linearGradient>
<linearGradient id="paint17_linear_79_9478" x1="-62.5" y1="34.9663" x2="699.5" y2="34.9663" gradientUnits="userSpaceOnUse">
<stop stop-color="#EDEDED"/>
<stop offset="1" stop-color="#EDEDED" stop-opacity="0"/>
</linearGradient>
<linearGradient id="paint18_linear_79_9478" x1="-62.5" y1="34.9663" x2="699.5" y2="34.9663" gradientUnits="userSpaceOnUse">
<stop stop-color="#EDEDED"/>
<stop offset="1" stop-color="#EDEDED" stop-opacity="0"/>
</linearGradient>
<linearGradient id="paint19_linear_79_9478" x1="-62.5" y1="34.9663" x2="699.5" y2="34.9663" gradientUnits="userSpaceOnUse">
<stop stop-color="#EDEDED"/>
<stop offset="1" stop-color="#EDEDED" stop-opacity="0"/>
</linearGradient>
<linearGradient id="paint20_linear_79_9478" x1="-62.5" y1="34.9663" x2="699.5" y2="34.9663" gradientUnits="userSpaceOnUse">
<stop stop-color="#EDEDED"/>
<stop offset="1" stop-color="#EDEDED" stop-opacity="0"/>
</linearGradient>
<linearGradient id="paint21_linear_79_9478" x1="-62.5" y1="34.9663" x2="699.5" y2="34.9663" gradientUnits="userSpaceOnUse">
<stop stop-color="#EDEDED"/>
<stop offset="1" stop-color="#EDEDED" stop-opacity="0"/>
</linearGradient>
<linearGradient id="paint22_linear_79_9478" x1="-62.5" y1="34.9663" x2="699.5" y2="34.9663" gradientUnits="userSpaceOnUse">
<stop stop-color="#EDEDED"/>
<stop offset="1" stop-color="#EDEDED" stop-opacity="0"/>
</linearGradient>
<linearGradient id="paint23_linear_79_9478" x1="-62.5" y1="34.9663" x2="699.5" y2="34.9663" gradientUnits="userSpaceOnUse">
<stop stop-color="#EDEDED"/>
<stop offset="1" stop-color="#EDEDED" stop-opacity="0"/>
</linearGradient>
<linearGradient id="paint24_linear_79_9478" x1="-62.5" y1="34.9663" x2="699.5" y2="34.9663" gradientUnits="userSpaceOnUse">
<stop stop-color="#EDEDED"/>
<stop offset="1" stop-color="#EDEDED" stop-opacity="0"/>
</linearGradient>
<linearGradient id="paint25_linear_79_9478" x1="-62.5" y1="34.9663" x2="699.5" y2="34.9663" gradientUnits="userSpaceOnUse">
<stop stop-color="#EDEDED"/>
<stop offset="1" stop-color="#EDEDED" stop-opacity="0"/>
</linearGradient>
<linearGradient id="paint26_linear_79_9478" x1="-62.5" y1="34.9663" x2="699.5" y2="34.9663" gradientUnits="userSpaceOnUse">
<stop stop-color="#EDEDED"/>
<stop offset="1" stop-color="#EDEDED" stop-opacity="0"/>
</linearGradient>
<linearGradient id="paint27_linear_79_9478" x1="-62.5" y1="34.9663" x2="699.5" y2="34.9663" gradientUnits="userSpaceOnUse">
<stop stop-color="#EDEDED"/>
<stop offset="1" stop-color="#EDEDED" stop-opacity="0"/>
</linearGradient>
<linearGradient id="paint28_linear_79_9478" x1="-62.5" y1="34.9663" x2="699.5" y2="34.9663" gradientUnits="userSpaceOnUse">
<stop stop-color="#EDEDED"/>
<stop offset="1" stop-color="#EDEDED" stop-opacity="0"/>
</linearGradient>
<linearGradient id="paint29_linear_79_9478" x1="-62.5" y1="34.9663" x2="699.5" y2="34.9663" gradientUnits="userSpaceOnUse">
<stop stop-color="#EDEDED"/>
<stop offset="1" stop-color="#EDEDED" stop-opacity="0"/>
</linearGradient>
<linearGradient id="paint30_linear_79_9478" x1="-62.5" y1="34.9663" x2="699.5" y2="34.9663" gradientUnits="userSpaceOnUse">
<stop stop-color="#EDEDED"/>
<stop offset="1" stop-color="#EDEDED" stop-opacity="0"/>
</linearGradient>
<linearGradient id="paint31_linear_79_9478" x1="-62.5" y1="34.9663" x2="699.5" y2="34.9663" gradientUnits="userSpaceOnUse">
<stop stop-color="#EDEDED"/>
<stop offset="1" stop-color="#EDEDED" stop-opacity="0"/>
</linearGradient>
<linearGradient id="paint32_linear_79_9478" x1="-62.5" y1="34.9663" x2="699.5" y2="34.9663" gradientUnits="userSpaceOnUse">
<stop stop-color="#EDEDED"/>
<stop offset="1" stop-color="#EDEDED" stop-opacity="0"/>
</linearGradient>
<linearGradient id="paint33_linear_79_9478" x1="-62.5" y1="34.9663" x2="699.5" y2="34.9663" gradientUnits="userSpaceOnUse">
<stop stop-color="#EDEDED"/>
<stop offset="1" stop-color="#EDEDED" stop-opacity="0"/>
</linearGradient>
<linearGradient id="paint34_linear_79_9478" x1="-62.5" y1="34.9663" x2="699.5" y2="34.9663" gradientUnits="userSpaceOnUse">
<stop stop-color="#EDEDED"/>
<stop offset="1" stop-color="#EDEDED" stop-opacity="0"/>
</linearGradient>
<linearGradient id="paint35_linear_79_9478" x1="-62.5" y1="34.9663" x2="699.5" y2="34.9663" gradientUnits="userSpaceOnUse">
<stop stop-color="#EDEDED"/>
<stop offset="1" stop-color="#EDEDED" stop-opacity="0"/>
</linearGradient>
<linearGradient id="paint36_linear_79_9478" x1="-62.5" y1="34.9663" x2="699.5" y2="34.9663" gradientUnits="userSpaceOnUse">
<stop stop-color="#EDEDED"/>
<stop offset="1" stop-color="#EDEDED" stop-opacity="0"/>
</linearGradient>
<linearGradient id="paint37_linear_79_9478" x1="-62.5" y1="34.9663" x2="699.5" y2="34.9663" gradientUnits="userSpaceOnUse">
<stop stop-color="#EDEDED"/>
<stop offset="1" stop-color="#EDEDED" stop-opacity="0"/>
</linearGradient>
<linearGradient id="paint38_linear_79_9478" x1="-62.5" y1="34.9663" x2="699.5" y2="34.9663" gradientUnits="userSpaceOnUse">
<stop stop-color="#EDEDED"/>
<stop offset="1" stop-color="#EDEDED" stop-opacity="0"/>
</linearGradient>
<linearGradient id="paint39_linear_79_9478" x1="-62.5" y1="34.9663" x2="699.5" y2="34.9663" gradientUnits="userSpaceOnUse">
<stop stop-color="#EDEDED"/>
<stop offset="1" stop-color="#EDEDED" stop-opacity="0"/>
</linearGradient>
<linearGradient id="paint40_linear_79_9478" x1="-62.5" y1="34.9663" x2="699.5" y2="34.9663" gradientUnits="userSpaceOnUse">
<stop stop-color="#EDEDED"/>
<stop offset="1" stop-color="#EDEDED" stop-opacity="0"/>
</linearGradient>
<linearGradient id="paint41_linear_79_9478" x1="-62.5" y1="34.9663" x2="699.5" y2="34.9663" gradientUnits="userSpaceOnUse">
<stop stop-color="#EDEDED"/>
<stop offset="1" stop-color="#EDEDED" stop-opacity="0"/>
</linearGradient>
<linearGradient id="paint42_linear_79_9478" x1="-62.5" y1="34.9663" x2="699.5" y2="34.9663" gradientUnits="userSpaceOnUse">
<stop stop-color="#EDEDED"/>
<stop offset="1" stop-color="#EDEDED" stop-opacity="0"/>
</linearGradient>
<linearGradient id="paint43_linear_79_9478" x1="-62.5" y1="34.9663" x2="699.5" y2="34.9663" gradientUnits="userSpaceOnUse">
<stop stop-color="#EDEDED"/>
<stop offset="1" stop-color="#EDEDED" stop-opacity="0"/>
</linearGradient>
<linearGradient id="paint44_linear_79_9478" x1="-62.5" y1="34.9663" x2="699.5" y2="34.9663" gradientUnits="userSpaceOnUse">
<stop stop-color="#EDEDED"/>
<stop offset="1" stop-color="#EDEDED" stop-opacity="0"/>
</linearGradient>
<linearGradient id="paint45_linear_79_9478" x1="-62.5" y1="34.9663" x2="699.5" y2="34.9663" gradientUnits="userSpaceOnUse">
<stop stop-color="#EDEDED"/>
<stop offset="1" stop-color="#EDEDED" stop-opacity="0"/>
</linearGradient>
<linearGradient id="paint46_linear_79_9478" x1="-62.5" y1="34.9663" x2="699.5" y2="34.9663" gradientUnits="userSpaceOnUse">
<stop stop-color="#EDEDED"/>
<stop offset="1" stop-color="#EDEDED" stop-opacity="0"/>
</linearGradient>
<linearGradient id="paint47_linear_79_9478" x1="-62.5" y1="34.9663" x2="699.5" y2="34.9663" gradientUnits="userSpaceOnUse">
<stop stop-color="#EDEDED"/>
<stop offset="1" stop-color="#EDEDED" stop-opacity="0"/>
</linearGradient>
<linearGradient id="paint48_linear_79_9478" x1="-62.5" y1="34.9663" x2="699.5" y2="34.9663" gradientUnits="userSpaceOnUse">
<stop stop-color="#EDEDED"/>
<stop offset="1" stop-color="#EDEDED" stop-opacity="0"/>
</linearGradient>
<linearGradient id="paint49_linear_79_9478" x1="-62.5" y1="34.9663" x2="699.5" y2="34.9663" gradientUnits="userSpaceOnUse">
<stop stop-color="#EDEDED"/>
<stop offset="1" stop-color="#EDEDED" stop-opacity="0"/>
</linearGradient>
<linearGradient id="paint50_linear_79_9478" x1="-62.5" y1="34.9663" x2="699.5" y2="34.9663" gradientUnits="userSpaceOnUse">
<stop stop-color="#EDEDED"/>
<stop offset="1" stop-color="#EDEDED" stop-opacity="0"/>
</linearGradient>
<linearGradient id="paint51_linear_79_9478" x1="-62.5" y1="34.9663" x2="699.5" y2="34.9663" gradientUnits="userSpaceOnUse">
<stop stop-color="#EDEDED"/>
<stop offset="1" stop-color="#EDEDED" stop-opacity="0"/>
</linearGradient>
<linearGradient id="paint52_linear_79_9478" x1="-62.5" y1="34.9663" x2="699.5" y2="34.9663" gradientUnits="userSpaceOnUse">
<stop stop-color="#EDEDED"/>
<stop offset="1" stop-color="#EDEDED" stop-opacity="0"/>
</linearGradient>
<linearGradient id="paint53_linear_79_9478" x1="-62.5" y1="34.9663" x2="699.5" y2="34.9663" gradientUnits="userSpaceOnUse">
<stop stop-color="#EDEDED"/>
<stop offset="1" stop-color="#EDEDED" stop-opacity="0"/>
</linearGradient>
<linearGradient id="paint54_linear_79_9478" x1="-62.5" y1="34.9663" x2="699.5" y2="34.9663" gradientUnits="userSpaceOnUse">
<stop stop-color="#EDEDED"/>
<stop offset="1" stop-color="#EDEDED" stop-opacity="0"/>
</linearGradient>
<linearGradient id="paint55_linear_79_9478" x1="-62.5" y1="34.9663" x2="699.5" y2="34.9663" gradientUnits="userSpaceOnUse">
<stop stop-color="#EDEDED"/>
<stop offset="1" stop-color="#EDEDED" stop-opacity="0"/>
</linearGradient>
<linearGradient id="paint56_linear_79_9478" x1="-62.5" y1="34.9663" x2="699.5" y2="34.9663" gradientUnits="userSpaceOnUse">
<stop stop-color="#EDEDED"/>
<stop offset="1" stop-color="#EDEDED" stop-opacity="0"/>
</linearGradient>
<linearGradient id="paint57_linear_79_9478" x1="-62.5" y1="34.9663" x2="699.5" y2="34.9663" gradientUnits="userSpaceOnUse">
<stop stop-color="#EDEDED"/>
<stop offset="1" stop-color="#EDEDED" stop-opacity="0"/>
</linearGradient>
<linearGradient id="paint58_linear_79_9478" x1="-62.5" y1="34.9663" x2="699.5" y2="34.9663" gradientUnits="userSpaceOnUse">
<stop stop-color="#EDEDED"/>
<stop offset="1" stop-color="#EDEDED" stop-opacity="0"/>
</linearGradient>
<linearGradient id="paint59_linear_79_9478" x1="-62.5" y1="34.9663" x2="699.5" y2="34.9663" gradientUnits="userSpaceOnUse">
<stop stop-color="#EDEDED"/>
<stop offset="1" stop-color="#EDEDED" stop-opacity="0"/>
</linearGradient>
<linearGradient id="paint60_linear_79_9478" x1="-62.5" y1="34.9663" x2="699.5" y2="34.9663" gradientUnits="userSpaceOnUse">
<stop stop-color="#EDEDED"/>
<stop offset="1" stop-color="#EDEDED" stop-opacity="0"/>
</linearGradient>
<linearGradient id="paint61_linear_79_9478" x1="-62.5" y1="34.9663" x2="699.5" y2="34.9663" gradientUnits="userSpaceOnUse">
<stop stop-color="#EDEDED"/>
<stop offset="1" stop-color="#EDEDED" stop-opacity="0"/>
</linearGradient>
<linearGradient id="paint62_linear_79_9478" x1="-62.5" y1="34.9663" x2="699.5" y2="34.9663" gradientUnits="userSpaceOnUse">
<stop stop-color="#EDEDED"/>
<stop offset="1" stop-color="#EDEDED" stop-opacity="0"/>
</linearGradient>
<linearGradient id="paint63_linear_79_9478" x1="-62.5" y1="34.9663" x2="699.5" y2="34.9663" gradientUnits="userSpaceOnUse">
<stop stop-color="#EDEDED"/>
<stop offset="1" stop-color="#EDEDED" stop-opacity="0"/>
</linearGradient>
<linearGradient id="paint64_linear_79_9478" x1="-62.5" y1="34.9663" x2="699.5" y2="34.9663" gradientUnits="userSpaceOnUse">
<stop stop-color="#EDEDED"/>
<stop offset="1" stop-color="#EDEDED" stop-opacity="0"/>
</linearGradient>
<linearGradient id="paint65_linear_79_9478" x1="-62.5" y1="34.9663" x2="699.5" y2="34.9663" gradientUnits="userSpaceOnUse">
<stop stop-color="#EDEDED"/>
<stop offset="1" stop-color="#EDEDED" stop-opacity="0"/>
</linearGradient>
<linearGradient id="paint66_linear_79_9478" x1="-62.5" y1="34.9663" x2="699.5" y2="34.9663" gradientUnits="userSpaceOnUse">
<stop stop-color="#EDEDED"/>
<stop offset="1" stop-color="#EDEDED" stop-opacity="0"/>
</linearGradient>
<linearGradient id="paint67_linear_79_9478" x1="-62.5" y1="34.9663" x2="699.5" y2="34.9663" gradientUnits="userSpaceOnUse">
<stop stop-color="#EDEDED"/>
<stop offset="1" stop-color="#EDEDED" stop-opacity="0"/>
</linearGradient>
<linearGradient id="paint68_linear_79_9478" x1="-62.5" y1="34.9663" x2="699.5" y2="34.9663" gradientUnits="userSpaceOnUse">
<stop stop-color="#EDEDED"/>
<stop offset="1" stop-color="#EDEDED" stop-opacity="0"/>
</linearGradient>
<linearGradient id="paint69_linear_79_9478" x1="-62.5" y1="34.9663" x2="699.5" y2="34.9663" gradientUnits="userSpaceOnUse">
<stop stop-color="#EDEDED"/>
<stop offset="1" stop-color="#EDEDED" stop-opacity="0"/>
</linearGradient>
<linearGradient id="paint70_linear_79_9478" x1="-62.5" y1="34.9663" x2="699.5" y2="34.9663" gradientUnits="userSpaceOnUse">
<stop stop-color="#EDEDED"/>
<stop offset="1" stop-color="#EDEDED" stop-opacity="0"/>
</linearGradient>
<linearGradient id="paint71_linear_79_9478" x1="-62.5" y1="34.9663" x2="699.5" y2="34.9663" gradientUnits="userSpaceOnUse">
<stop stop-color="#EDEDED"/>
<stop offset="1" stop-color="#EDEDED" stop-opacity="0"/>
</linearGradient>
<linearGradient id="paint72_linear_79_9478" x1="-62.5" y1="34.9663" x2="699.5" y2="34.9663" gradientUnits="userSpaceOnUse">
<stop stop-color="#EDEDED"/>
<stop offset="1" stop-color="#EDEDED" stop-opacity="0"/>
</linearGradient>
<linearGradient id="paint73_linear_79_9478" x1="-62.5" y1="34.9663" x2="699.5" y2="34.9663" gradientUnits="userSpaceOnUse">
<stop stop-color="#EDEDED"/>
<stop offset="1" stop-color="#EDEDED" stop-opacity="0"/>
</linearGradient>
<linearGradient id="paint74_linear_79_9478" x1="-62.5" y1="34.9663" x2="699.5" y2="34.9663" gradientUnits="userSpaceOnUse">
<stop stop-color="#EDEDED"/>
<stop offset="1" stop-color="#EDEDED" stop-opacity="0"/>
</linearGradient>
<linearGradient id="paint75_linear_79_9478" x1="-62.5" y1="34.9663" x2="699.5" y2="34.9663" gradientUnits="userSpaceOnUse">
<stop stop-color="#EDEDED"/>
<stop offset="1" stop-color="#EDEDED" stop-opacity="0"/>
</linearGradient>
<linearGradient id="paint76_linear_79_9478" x1="-62.5" y1="34.9663" x2="699.5" y2="34.9663" gradientUnits="userSpaceOnUse">
<stop stop-color="#EDEDED"/>
<stop offset="1" stop-color="#EDEDED" stop-opacity="0"/>
</linearGradient>
<linearGradient id="paint77_linear_79_9478" x1="-62.5" y1="34.9663" x2="699.5" y2="34.9663" gradientUnits="userSpaceOnUse">
<stop stop-color="#EDEDED"/>
<stop offset="1" stop-color="#EDEDED" stop-opacity="0"/>
</linearGradient>
<linearGradient id="paint78_linear_79_9478" x1="-62.5" y1="34.9663" x2="699.5" y2="34.9663" gradientUnits="userSpaceOnUse">
<stop stop-color="#EDEDED"/>
<stop offset="1" stop-color="#EDEDED" stop-opacity="0"/>
</linearGradient>
<linearGradient id="paint79_linear_79_9478" x1="-62.5" y1="34.9663" x2="699.5" y2="34.9663" gradientUnits="userSpaceOnUse">
<stop stop-color="#EDEDED"/>
<stop offset="1" stop-color="#EDEDED" stop-opacity="0"/>
</linearGradient>
<linearGradient id="paint80_linear_79_9478" x1="-62.5" y1="34.9663" x2="699.5" y2="34.9663" gradientUnits="userSpaceOnUse">
<stop stop-color="#EDEDED"/>
<stop offset="1" stop-color="#EDEDED" stop-opacity="0"/>
</linearGradient>
<linearGradient id="paint81_linear_79_9478" x1="-62.5" y1="34.9663" x2="699.5" y2="34.9663" gradientUnits="userSpaceOnUse">
<stop stop-color="#EDEDED"/>
<stop offset="1" stop-color="#EDEDED" stop-opacity="0"/>
</linearGradient>
<linearGradient id="paint82_linear_79_9478" x1="-62.5" y1="34.9663" x2="699.5" y2="34.9663" gradientUnits="userSpaceOnUse">
<stop stop-color="#EDEDED"/>
<stop offset="1" stop-color="#EDEDED" stop-opacity="0"/>
</linearGradient>
<linearGradient id="paint83_linear_79_9478" x1="-62.5" y1="34.9663" x2="699.5" y2="34.9663" gradientUnits="userSpaceOnUse">
<stop stop-color="#EDEDED"/>
<stop offset="1" stop-color="#EDEDED" stop-opacity="0"/>
</linearGradient>
<linearGradient id="paint84_linear_79_9478" x1="-62.5" y1="34.9663" x2="699.5" y2="34.9663" gradientUnits="userSpaceOnUse">
<stop stop-color="#EDEDED"/>
<stop offset="1" stop-color="#EDEDED" stop-opacity="0"/>
</linearGradient>
<linearGradient id="paint85_linear_79_9478" x1="-62.5" y1="34.9663" x2="699.5" y2="34.9663" gradientUnits="userSpaceOnUse">
<stop stop-color="#EDEDED"/>
<stop offset="1" stop-color="#EDEDED" stop-opacity="0"/>
</linearGradient>
<linearGradient id="paint86_linear_79_9478" x1="-62.5" y1="34.9663" x2="699.5" y2="34.9663" gradientUnits="userSpaceOnUse">
<stop stop-color="#EDEDED"/>
<stop offset="1" stop-color="#EDEDED" stop-opacity="0"/>
</linearGradient>
<linearGradient id="paint87_linear_79_9478" x1="-62.5" y1="34.9663" x2="699.5" y2="34.9663" gradientUnits="userSpaceOnUse">
<stop stop-color="#EDEDED"/>
<stop offset="1" stop-color="#EDEDED" stop-opacity="0"/>
</linearGradient>
<linearGradient id="paint88_linear_79_9478" x1="-62.5" y1="34.9663" x2="699.5" y2="34.9663" gradientUnits="userSpaceOnUse">
<stop stop-color="#EDEDED"/>
<stop offset="1" stop-color="#EDEDED" stop-opacity="0"/>
</linearGradient>
<linearGradient id="paint89_linear_79_9478" x1="-62.5" y1="34.9663" x2="699.5" y2="34.9663" gradientUnits="userSpaceOnUse">
<stop stop-color="#EDEDED"/>
<stop offset="1" stop-color="#EDEDED" stop-opacity="0"/>
</linearGradient>
<linearGradient id="paint90_linear_79_9478" x1="-62.5" y1="34.9663" x2="699.5" y2="34.9663" gradientUnits="userSpaceOnUse">
<stop stop-color="#EDEDED"/>
<stop offset="1" stop-color="#EDEDED" stop-opacity="0"/>
</linearGradient>
<linearGradient id="paint91_linear_79_9478" x1="-62.5" y1="34.9663" x2="699.5" y2="34.9663" gradientUnits="userSpaceOnUse">
<stop stop-color="#EDEDED"/>
<stop offset="1" stop-color="#EDEDED" stop-opacity="0"/>
</linearGradient>
<linearGradient id="paint92_linear_79_9478" x1="-62.5" y1="34.9663" x2="699.5" y2="34.9663" gradientUnits="userSpaceOnUse">
<stop stop-color="#EDEDED"/>
<stop offset="1" stop-color="#EDEDED" stop-opacity="0"/>
</linearGradient>
<linearGradient id="paint93_linear_79_9478" x1="-62.5" y1="34.9663" x2="699.5" y2="34.9663" gradientUnits="userSpaceOnUse">
<stop stop-color="#EDEDED"/>
<stop offset="1" stop-color="#EDEDED" stop-opacity="0"/>
</linearGradient>
<linearGradient id="paint94_linear_79_9478" x1="-62.5" y1="34.9663" x2="699.5" y2="34.9663" gradientUnits="userSpaceOnUse">
<stop stop-color="#EDEDED"/>
<stop offset="1" stop-color="#EDEDED" stop-opacity="0"/>
</linearGradient>
<linearGradient id="paint95_linear_79_9478" x1="-62.5" y1="34.9663" x2="699.5" y2="34.9663" gradientUnits="userSpaceOnUse">
<stop stop-color="#EDEDED"/>
<stop offset="1" stop-color="#EDEDED" stop-opacity="0"/>
</linearGradient>
<linearGradient id="paint96_linear_79_9478" x1="-62.5" y1="34.9663" x2="699.5" y2="34.9663" gradientUnits="userSpaceOnUse">
<stop stop-color="#EDEDED"/>
<stop offset="1" stop-color="#EDEDED" stop-opacity="0"/>
</linearGradient>
<linearGradient id="paint97_linear_79_9478" x1="-62.5" y1="34.9663" x2="699.5" y2="34.9663" gradientUnits="userSpaceOnUse">
<stop stop-color="#EDEDED"/>
<stop offset="1" stop-color="#EDEDED" stop-opacity="0"/>
</linearGradient>
<linearGradient id="paint98_linear_79_9478" x1="-62.5" y1="34.9663" x2="699.5" y2="34.9663" gradientUnits="userSpaceOnUse">
<stop stop-color="#EDEDED"/>
<stop offset="1" stop-color="#EDEDED" stop-opacity="0"/>
</linearGradient>
<linearGradient id="paint99_linear_79_9478" x1="-62.5" y1="34.9663" x2="699.5" y2="34.9663" gradientUnits="userSpaceOnUse">
<stop stop-color="#EDEDED"/>
<stop offset="1" stop-color="#EDEDED" stop-opacity="0"/>
</linearGradient>
<linearGradient id="paint100_linear_79_9478" x1="-62.5" y1="34.9663" x2="699.5" y2="34.9663" gradientUnits="userSpaceOnUse">
<stop stop-color="#EDEDED"/>
<stop offset="1" stop-color="#EDEDED" stop-opacity="0"/>
</linearGradient>
<linearGradient id="paint101_linear_79_9478" x1="-62.5" y1="34.9663" x2="699.5" y2="34.9663" gradientUnits="userSpaceOnUse">
<stop stop-color="#EDEDED"/>
<stop offset="1" stop-color="#EDEDED" stop-opacity="0"/>
</linearGradient>
<linearGradient id="paint102_linear_79_9478" x1="-62.5" y1="34.9663" x2="699.5" y2="34.9663" gradientUnits="userSpaceOnUse">
<stop stop-color="#EDEDED"/>
<stop offset="1" stop-color="#EDEDED" stop-opacity="0"/>
</linearGradient>
<linearGradient id="paint103_linear_79_9478" x1="-62.5" y1="34.9663" x2="699.5" y2="34.9663" gradientUnits="userSpaceOnUse">
<stop stop-color="#EDEDED"/>
<stop offset="1" stop-color="#EDEDED" stop-opacity="0"/>
</linearGradient>
<linearGradient id="paint104_linear_79_9478" x1="-62.5" y1="34.9663" x2="699.5" y2="34.9663" gradientUnits="userSpaceOnUse">
<stop stop-color="#EDEDED"/>
<stop offset="1" stop-color="#EDEDED" stop-opacity="0"/>
</linearGradient>
<linearGradient id="paint105_linear_79_9478" x1="-62.5" y1="34.9663" x2="699.5" y2="34.9663" gradientUnits="userSpaceOnUse">
<stop stop-color="#EDEDED"/>
<stop offset="1" stop-color="#EDEDED" stop-opacity="0"/>
</linearGradient>
<linearGradient id="paint106_linear_79_9478" x1="-62.5" y1="34.9663" x2="699.5" y2="34.9663" gradientUnits="userSpaceOnUse">
<stop stop-color="#EDEDED"/>
<stop offset="1" stop-color="#EDEDED" stop-opacity="0"/>
</linearGradient>
<linearGradient id="paint107_linear_79_9478" x1="-62.5" y1="34.9663" x2="699.5" y2="34.9663" gradientUnits="userSpaceOnUse">
<stop stop-color="#EDEDED"/>
<stop offset="1" stop-color="#EDEDED" stop-opacity="0"/>
</linearGradient>
<linearGradient id="paint108_linear_79_9478" x1="-62.5" y1="34.9663" x2="699.5" y2="34.9663" gradientUnits="userSpaceOnUse">
<stop stop-color="#EDEDED"/>
<stop offset="1" stop-color="#EDEDED" stop-opacity="0"/>
</linearGradient>
<linearGradient id="paint109_linear_79_9478" x1="-62.5" y1="34.9663" x2="699.5" y2="34.9663" gradientUnits="userSpaceOnUse">
<stop stop-color="#EDEDED"/>
<stop offset="1" stop-color="#EDEDED" stop-opacity="0"/>
</linearGradient>
<linearGradient id="paint110_linear_79_9478" x1="-62.5" y1="34.9663" x2="699.5" y2="34.9663" gradientUnits="userSpaceOnUse">
<stop stop-color="#EDEDED"/>
<stop offset="1" stop-color="#EDEDED" stop-opacity="0"/>
</linearGradient>
<linearGradient id="paint111_linear_79_9478" x1="-62.5" y1="34.9663" x2="699.5" y2="34.9663" gradientUnits="userSpaceOnUse">
<stop stop-color="#EDEDED"/>
<stop offset="1" stop-color="#EDEDED" stop-opacity="0"/>
</linearGradient>
<linearGradient id="paint112_linear_79_9478" x1="-62.5" y1="34.9663" x2="699.5" y2="34.9663" gradientUnits="userSpaceOnUse">
<stop stop-color="#EDEDED"/>
<stop offset="1" stop-color="#EDEDED" stop-opacity="0"/>
</linearGradient>
<linearGradient id="paint113_linear_79_9478" x1="-62.5" y1="34.9663" x2="699.5" y2="34.9663" gradientUnits="userSpaceOnUse">
<stop stop-color="#EDEDED"/>
<stop offset="1" stop-color="#EDEDED" stop-opacity="0"/>
</linearGradient>
<linearGradient id="paint114_linear_79_9478" x1="-62.5" y1="34.9663" x2="699.5" y2="34.9663" gradientUnits="userSpaceOnUse">
<stop stop-color="#EDEDED"/>
<stop offset="1" stop-color="#EDEDED" stop-opacity="0"/>
</linearGradient>
<linearGradient id="paint115_linear_79_9478" x1="-62.5" y1="34.9663" x2="699.5" y2="34.9663" gradientUnits="userSpaceOnUse">
<stop stop-color="#EDEDED"/>
<stop offset="1" stop-color="#EDEDED" stop-opacity="0"/>
</linearGradient>
<linearGradient id="paint116_linear_79_9478" x1="-62.5" y1="34.9663" x2="699.5" y2="34.9663" gradientUnits="userSpaceOnUse">
<stop stop-color="#EDEDED"/>
<stop offset="1" stop-color="#EDEDED" stop-opacity="0"/>
</linearGradient>
<linearGradient id="paint117_linear_79_9478" x1="-62.5" y1="34.9663" x2="699.5" y2="34.9663" gradientUnits="userSpaceOnUse">
<stop stop-color="#EDEDED"/>
<stop offset="1" stop-color="#EDEDED" stop-opacity="0"/>
</linearGradient>
<linearGradient id="paint118_linear_79_9478" x1="-62.5" y1="34.9663" x2="699.5" y2="34.9663" gradientUnits="userSpaceOnUse">
<stop stop-color="#EDEDED"/>
<stop offset="1" stop-color="#EDEDED" stop-opacity="0"/>
</linearGradient>
<linearGradient id="paint119_linear_79_9478" x1="-62.5" y1="34.9663" x2="699.5" y2="34.9663" gradientUnits="userSpaceOnUse">
<stop stop-color="#EDEDED"/>
<stop offset="1" stop-color="#EDEDED" stop-opacity="0"/>
</linearGradient>
<linearGradient id="paint120_linear_79_9478" x1="-62.5" y1="34.9663" x2="699.5" y2="34.9663" gradientUnits="userSpaceOnUse">
<stop stop-color="#EDEDED"/>
<stop offset="1" stop-color="#EDEDED" stop-opacity="0"/>
</linearGradient>
<linearGradient id="paint121_linear_79_9478" x1="-62.5" y1="34.9663" x2="699.5" y2="34.9663" gradientUnits="userSpaceOnUse">
<stop stop-color="#EDEDED"/>
<stop offset="1" stop-color="#EDEDED" stop-opacity="0"/>
</linearGradient>
<linearGradient id="paint122_linear_79_9478" x1="-62.5" y1="34.9663" x2="699.5" y2="34.9663" gradientUnits="userSpaceOnUse">
<stop stop-color="#EDEDED"/>
<stop offset="1" stop-color="#EDEDED" stop-opacity="0"/>
</linearGradient>
<linearGradient id="paint123_linear_79_9478" x1="-62.5" y1="34.9663" x2="699.5" y2="34.9663" gradientUnits="userSpaceOnUse">
<stop stop-color="#EDEDED"/>
<stop offset="1" stop-color="#EDEDED" stop-opacity="0"/>
</linearGradient>
<linearGradient id="paint124_linear_79_9478" x1="-62.5" y1="34.9663" x2="699.5" y2="34.9663" gradientUnits="userSpaceOnUse">
<stop stop-color="#EDEDED"/>
<stop offset="1" stop-color="#EDEDED" stop-opacity="0"/>
</linearGradient>
<linearGradient id="paint125_linear_79_9478" x1="-62.5" y1="34.9663" x2="699.5" y2="34.9663" gradientUnits="userSpaceOnUse">
<stop stop-color="#EDEDED"/>
<stop offset="1" stop-color="#EDEDED" stop-opacity="0"/>
</linearGradient>
<linearGradient id="paint126_linear_79_9478" x1="-62.5" y1="34.9663" x2="699.5" y2="34.9663" gradientUnits="userSpaceOnUse">
<stop stop-color="#EDEDED"/>
<stop offset="1" stop-color="#EDEDED" stop-opacity="0"/>
</linearGradient>
<linearGradient id="paint127_linear_79_9478" x1="-62.5" y1="34.9663" x2="699.5" y2="34.9663" gradientUnits="userSpaceOnUse">
<stop stop-color="#EDEDED"/>
<stop offset="1" stop-color="#EDEDED" stop-opacity="0"/>
</linearGradient>
<linearGradient id="paint128_linear_79_9478" x1="-62.5" y1="34.9663" x2="699.5" y2="34.9663" gradientUnits="userSpaceOnUse">
<stop stop-color="#EDEDED"/>
<stop offset="1" stop-color="#EDEDED" stop-opacity="0"/>
</linearGradient>
<linearGradient id="paint129_linear_79_9478" x1="-62.5" y1="34.9663" x2="699.5" y2="34.9663" gradientUnits="userSpaceOnUse">
<stop stop-color="#EDEDED"/>
<stop offset="1" stop-color="#EDEDED" stop-opacity="0"/>
</linearGradient>
<linearGradient id="paint130_linear_79_9478" x1="-62.5" y1="34.9663" x2="699.5" y2="34.9663" gradientUnits="userSpaceOnUse">
<stop stop-color="#EDEDED"/>
<stop offset="1" stop-color="#EDEDED" stop-opacity="0"/>
</linearGradient>
<linearGradient id="paint131_linear_79_9478" x1="-62.5" y1="34.9663" x2="699.5" y2="34.9663" gradientUnits="userSpaceOnUse">
<stop stop-color="#EDEDED"/>
<stop offset="1" stop-color="#EDEDED" stop-opacity="0"/>
</linearGradient>
<linearGradient id="paint132_linear_79_9478" x1="-62.5" y1="34.9663" x2="699.5" y2="34.9663" gradientUnits="userSpaceOnUse">
<stop stop-color="#EDEDED"/>
<stop offset="1" stop-color="#EDEDED" stop-opacity="0"/>
</linearGradient>
<linearGradient id="paint133_linear_79_9478" x1="-62.5" y1="34.9663" x2="699.5" y2="34.9663" gradientUnits="userSpaceOnUse">
<stop stop-color="#EDEDED"/>
<stop offset="1" stop-color="#EDEDED" stop-opacity="0"/>
</linearGradient>
<linearGradient id="paint134_linear_79_9478" x1="-62.5" y1="34.9663" x2="699.5" y2="34.9663" gradientUnits="userSpaceOnUse">
<stop stop-color="#EDEDED"/>
<stop offset="1" stop-color="#EDEDED" stop-opacity="0"/>
</linearGradient>
<linearGradient id="paint135_linear_79_9478" x1="-62.5" y1="34.9663" x2="699.5" y2="34.9663" gradientUnits="userSpaceOnUse">
<stop stop-color="#EDEDED"/>
<stop offset="1" stop-color="#EDEDED" stop-opacity="0"/>
</linearGradient>
<linearGradient id="paint136_linear_79_9478" x1="-62.5" y1="34.9663" x2="699.5" y2="34.9663" gradientUnits="userSpaceOnUse">
<stop stop-color="#EDEDED"/>
<stop offset="1" stop-color="#EDEDED" stop-opacity="0"/>
</linearGradient>
<linearGradient id="paint137_linear_79_9478" x1="-62.5" y1="34.9663" x2="699.5" y2="34.9663" gradientUnits="userSpaceOnUse">
<stop stop-color="#EDEDED"/>
<stop offset="1" stop-color="#EDEDED" stop-opacity="0"/>
</linearGradient>
<linearGradient id="paint138_linear_79_9478" x1="-62.5" y1="34.9663" x2="699.5" y2="34.9663" gradientUnits="userSpaceOnUse">
<stop stop-color="#EDEDED"/>
<stop offset="1" stop-color="#EDEDED" stop-opacity="0"/>
</linearGradient>
<linearGradient id="paint139_linear_79_9478" x1="-62.5" y1="34.9663" x2="699.5" y2="34.9663" gradientUnits="userSpaceOnUse">
<stop stop-color="#EDEDED"/>
<stop offset="1" stop-color="#EDEDED" stop-opacity="0"/>
</linearGradient>
<linearGradient id="paint140_linear_79_9478" x1="-62.5" y1="34.9663" x2="699.5" y2="34.9663" gradientUnits="userSpaceOnUse">
<stop stop-color="#EDEDED"/>
<stop offset="1" stop-color="#EDEDED" stop-opacity="0"/>
</linearGradient>
<linearGradient id="paint141_linear_79_9478" x1="-62.5" y1="34.9663" x2="699.5" y2="34.9663" gradientUnits="userSpaceOnUse">
<stop stop-color="#EDEDED"/>
<stop offset="1" stop-color="#EDEDED" stop-opacity="0"/>
</linearGradient>
<linearGradient id="paint142_linear_79_9478" x1="-62.5" y1="34.9663" x2="699.5" y2="34.9663" gradientUnits="userSpaceOnUse">
<stop stop-color="#EDEDED"/>
<stop offset="1" stop-color="#EDEDED" stop-opacity="0"/>
</linearGradient>
<linearGradient id="paint143_linear_79_9478" x1="-62.5" y1="34.9663" x2="699.5" y2="34.9663" gradientUnits="userSpaceOnUse">
<stop stop-color="#EDEDED"/>
<stop offset="1" stop-color="#EDEDED" stop-opacity="0"/>
</linearGradient>
<linearGradient id="paint144_linear_79_9478" x1="-62.5" y1="34.9663" x2="699.5" y2="34.9663" gradientUnits="userSpaceOnUse">
<stop stop-color="#EDEDED"/>
<stop offset="1" stop-color="#EDEDED" stop-opacity="0"/>
</linearGradient>
<linearGradient id="paint145_linear_79_9478" x1="-62.5" y1="34.9663" x2="699.5" y2="34.9663" gradientUnits="userSpaceOnUse">
<stop stop-color="#EDEDED"/>
<stop offset="1" stop-color="#EDEDED" stop-opacity="0"/>
</linearGradient>
<linearGradient id="paint146_linear_79_9478" x1="-62.5" y1="34.9663" x2="699.5" y2="34.9663" gradientUnits="userSpaceOnUse">
<stop stop-color="#EDEDED"/>
<stop offset="1" stop-color="#EDEDED" stop-opacity="0"/>
</linearGradient>
<linearGradient id="paint147_linear_79_9478" x1="-62.5" y1="34.9663" x2="699.5" y2="34.9663" gradientUnits="userSpaceOnUse">
<stop stop-color="#EDEDED"/>
<stop offset="1" stop-color="#EDEDED" stop-opacity="0"/>
</linearGradient>
<linearGradient id="paint148_linear_79_9478" x1="-62.5" y1="34.9663" x2="699.5" y2="34.9663" gradientUnits="userSpaceOnUse">
<stop stop-color="#EDEDED"/>
<stop offset="1" stop-color="#EDEDED" stop-opacity="0"/>
</linearGradient>
<linearGradient id="paint149_linear_79_9478" x1="-62.5" y1="34.9663" x2="699.5" y2="34.9663" gradientUnits="userSpaceOnUse">
<stop stop-color="#EDEDED"/>
<stop offset="1" stop-color="#EDEDED" stop-opacity="0"/>
</linearGradient>
<linearGradient id="paint150_linear_79_9478" x1="-62.5" y1="34.9663" x2="699.5" y2="34.9663" gradientUnits="userSpaceOnUse">
<stop stop-color="#EDEDED"/>
<stop offset="1" stop-color="#EDEDED" stop-opacity="0"/>
</linearGradient>
<linearGradient id="paint151_linear_79_9478" x1="-62.5" y1="34.9663" x2="699.5" y2="34.9663" gradientUnits="userSpaceOnUse">
<stop stop-color="#EDEDED"/>
<stop offset="1" stop-color="#EDEDED" stop-opacity="0"/>
</linearGradient>
<linearGradient id="paint152_linear_79_9478" x1="-62.5" y1="34.9663" x2="699.5" y2="34.9663" gradientUnits="userSpaceOnUse">
<stop stop-color="#EDEDED"/>
<stop offset="1" stop-color="#EDEDED" stop-opacity="0"/>
</linearGradient>
<linearGradient id="paint153_linear_79_9478" x1="-62.5" y1="34.9663" x2="699.5" y2="34.9663" gradientUnits="userSpaceOnUse">
<stop stop-color="#EDEDED"/>
<stop offset="1" stop-color="#EDEDED" stop-opacity="0"/>
</linearGradient>
<linearGradient id="paint154_linear_79_9478" x1="-62.5" y1="34.9663" x2="699.5" y2="34.9663" gradientUnits="userSpaceOnUse">
<stop stop-color="#EDEDED"/>
<stop offset="1" stop-color="#EDEDED" stop-opacity="0"/>
</linearGradient>
<linearGradient id="paint155_linear_79_9478" x1="-62.5" y1="34.9663" x2="699.5" y2="34.9663" gradientUnits="userSpaceOnUse">
<stop stop-color="#EDEDED"/>
<stop offset="1" stop-color="#EDEDED" stop-opacity="0"/>
</linearGradient>
<linearGradient id="paint156_linear_79_9478" x1="-62.5" y1="34.9663" x2="699.5" y2="34.9663" gradientUnits="userSpaceOnUse">
<stop stop-color="#EDEDED"/>
<stop offset="1" stop-color="#EDEDED" stop-opacity="0"/>
</linearGradient>
<linearGradient id="paint157_linear_79_9478" x1="-62.5" y1="34.9663" x2="699.5" y2="34.9663" gradientUnits="userSpaceOnUse">
<stop stop-color="#EDEDED"/>
<stop offset="1" stop-color="#EDEDED" stop-opacity="0"/>
</linearGradient>
<linearGradient id="paint158_linear_79_9478" x1="-62.5" y1="34.9663" x2="699.5" y2="34.9663" gradientUnits="userSpaceOnUse">
<stop stop-color="#EDEDED"/>
<stop offset="1" stop-color="#EDEDED" stop-opacity="0"/>
</linearGradient>
<linearGradient id="paint159_linear_79_9478" x1="-62.5" y1="34.9663" x2="699.5" y2="34.9663" gradientUnits="userSpaceOnUse">
<stop stop-color="#EDEDED"/>
<stop offset="1" stop-color="#EDEDED" stop-opacity="0"/>
</linearGradient>
<linearGradient id="paint160_linear_79_9478" x1="-62.5" y1="34.9663" x2="699.5" y2="34.9663" gradientUnits="userSpaceOnUse">
<stop stop-color="#EDEDED"/>
<stop offset="1" stop-color="#EDEDED" stop-opacity="0"/>
</linearGradient>
<linearGradient id="paint161_linear_79_9478" x1="-62.5" y1="34.9663" x2="699.5" y2="34.9663" gradientUnits="userSpaceOnUse">
<stop stop-color="#EDEDED"/>
<stop offset="1" stop-color="#EDEDED" stop-opacity="0"/>
</linearGradient>
<linearGradient id="paint162_linear_79_9478" x1="-62.5" y1="34.9663" x2="699.5" y2="34.9663" gradientUnits="userSpaceOnUse">
<stop stop-color="#EDEDED"/>
<stop offset="1" stop-color="#EDEDED" stop-opacity="0"/>
</linearGradient>
<linearGradient id="paint163_linear_79_9478" x1="-62.5" y1="34.9663" x2="699.5" y2="34.9663" gradientUnits="userSpaceOnUse">
<stop stop-color="#EDEDED"/>
<stop offset="1" stop-color="#EDEDED" stop-opacity="0"/>
</linearGradient>
<linearGradient id="paint164_linear_79_9478" x1="-62.5" y1="34.9663" x2="699.5" y2="34.9663" gradientUnits="userSpaceOnUse">
<stop stop-color="#EDEDED"/>
<stop offset="1" stop-color="#EDEDED" stop-opacity="0"/>
</linearGradient>
<linearGradient id="paint165_linear_79_9478" x1="-62.5" y1="34.9663" x2="699.5" y2="34.9663" gradientUnits="userSpaceOnUse">
<stop stop-color="#EDEDED"/>
<stop offset="1" stop-color="#EDEDED" stop-opacity="0"/>
</linearGradient>
<linearGradient id="paint166_linear_79_9478" x1="-62.5" y1="34.9663" x2="699.5" y2="34.9663" gradientUnits="userSpaceOnUse">
<stop stop-color="#EDEDED"/>
<stop offset="1" stop-color="#EDEDED" stop-opacity="0"/>
</linearGradient>
<linearGradient id="paint167_linear_79_9478" x1="-62.5" y1="34.9663" x2="699.5" y2="34.9663" gradientUnits="userSpaceOnUse">
<stop stop-color="#EDEDED"/>
<stop offset="1" stop-color="#EDEDED" stop-opacity="0"/>
</linearGradient>
<linearGradient id="paint168_linear_79_9478" x1="-62.5" y1="34.9663" x2="699.5" y2="34.9663" gradientUnits="userSpaceOnUse">
<stop stop-color="#EDEDED"/>
<stop offset="1" stop-color="#EDEDED" stop-opacity="0"/>
</linearGradient>
<linearGradient id="paint169_linear_79_9478" x1="-62.5" y1="34.9663" x2="699.5" y2="34.9663" gradientUnits="userSpaceOnUse">
<stop stop-color="#EDEDED"/>
<stop offset="1" stop-color="#EDEDED" stop-opacity="0"/>
</linearGradient>
<linearGradient id="paint170_linear_79_9478" x1="-62.5" y1="34.9663" x2="699.5" y2="34.9663" gradientUnits="userSpaceOnUse">
<stop stop-color="#EDEDED"/>
<stop offset="1" stop-color="#EDEDED" stop-opacity="0"/>
</linearGradient>
</defs>
</svg>
