<svg width="700" height="70" viewBox="0 0 700 70" fill="none" xmlns="http://www.w3.org/2000/svg">
<path d="M0.0338238 25.9008L0.0225533 42.7924L11.0714 34.3578L0.0338238 25.9008Z" fill="url(#paint0_linear_79_9479)"/>
<path d="M84.7051 14.1652L84.6976 21.6835L68.1826 34.3991L84.6788 47.1411L84.6713 54.6631L63.3851 38.1583L42.3394 54.633L21.3237 38.1245L0.0112829 54.5992L0.0187965 47.0773L16.5338 34.3616L0.0375806 21.6159L0.0450943 14.0976L21.335 30.6025L42.377 14.1314L63.3964 30.6363L84.7088 14.1652H84.7051ZM58.5914 34.3954L42.3695 21.6534L26.1287 34.3691L42.3469 47.1111L58.5877 34.3954H58.5914Z" fill="url(#paint1_linear_79_9479)"/>
<path d="M84.6825 42.86L84.6938 25.9683L73.645 34.4067L84.6825 42.86Z" fill="url(#paint2_linear_79_9479)"/>
<path d="M84.7126 0H0.0526079V2.53112H84.7126V0Z" fill="url(#paint3_linear_79_9479)"/>
<path d="M84.7013 13.9211H0.0413375V16.4523H84.7013V13.9211Z" fill="url(#paint4_linear_79_9479)"/>
<path d="M84.6713 53.2887H0.0112705V55.617H84.6713V53.2887Z" fill="url(#paint5_linear_79_9479)"/>
<path d="M14.6178 8.20547C14.6178 4.19474 11.3569 0.92382 7.33709 0.920064C3.3248 0.916309 0.0526079 4.17972 0.0488511 8.19421C0.0488511 12.2049 3.31353 15.4759 7.32957 15.4759C11.3494 15.4759 14.6178 12.2162 14.6216 8.20547H14.6178ZM12.792 8.20172C12.792 11.1647 10.3388 13.5756 7.32957 13.5756C4.32036 13.5756 1.87467 11.1572 1.87842 8.19421C1.87842 5.22371 4.33163 2.81652 7.34084 2.82028C10.3501 2.82028 12.7957 5.23498 12.792 8.20547V8.20172Z" fill="url(#paint6_linear_79_9479)"/>
<path d="M28.6383 8.21674C28.6383 4.20601 25.3773 0.935086 21.3575 0.931331C17.3453 0.931331 14.0693 4.19099 14.0656 8.20547C14.0656 12.2162 17.3302 15.4871 21.3463 15.4871C25.3661 15.4871 28.6345 12.2275 28.6383 8.21674ZM26.8087 8.21298C26.8087 11.176 24.3555 13.5869 21.3463 13.5869C18.3371 13.5869 15.8914 11.1685 15.8951 8.20547C15.8951 5.23498 18.3483 2.82779 21.3575 2.83155C24.3668 2.83155 26.8125 5.24624 26.8087 8.21298Z" fill="url(#paint7_linear_79_9479)"/>
<path d="M42.655 8.228C42.655 4.21727 39.3941 0.946352 35.3743 0.942597C31.362 0.942597 28.086 4.20225 28.0823 8.21674C28.0785 12.2312 31.3469 15.4984 35.363 15.4984C39.3828 15.4984 42.6512 12.2387 42.655 8.228ZM40.8254 8.22425C40.8254 11.1872 38.3722 13.6019 35.363 13.5982C32.3538 13.5982 29.9081 11.1797 29.9118 8.21674C29.9118 5.24625 32.365 2.83906 35.3743 2.84281C38.3835 2.84281 40.8292 5.25751 40.8254 8.228V8.22425Z" fill="url(#paint8_linear_79_9479)"/>
<path d="M56.6717 8.23552C56.6717 4.22479 53.4108 0.953863 49.391 0.950107C45.3787 0.950107 42.1027 4.20976 42.099 8.22425C42.099 12.235 45.3636 15.5059 49.3797 15.5059C53.3995 15.5059 56.6679 12.2462 56.6717 8.23552ZM54.8459 8.23552C54.8459 11.1985 52.3927 13.6132 49.3834 13.6094C46.3742 13.6094 43.9285 11.191 43.9323 8.22801C43.9323 5.25751 46.3855 2.85032 49.3947 2.85408C52.4039 2.85408 54.8496 5.26878 54.8459 8.23927V8.23552Z" fill="url(#paint9_linear_79_9479)"/>
<path d="M70.6921 8.24678C70.6921 4.23605 67.4312 0.965129 63.4114 0.961374C59.3991 0.961374 56.1232 4.22103 56.1194 8.23552C56.1194 12.2462 59.3841 15.5172 63.4001 15.5172C67.4199 15.5172 70.6884 12.2575 70.6921 8.24678ZM68.8626 8.24678C68.8626 11.2098 66.4093 13.6207 63.4001 13.6207C60.3909 13.6207 57.9452 11.2023 57.949 8.23927C57.949 5.26878 60.4022 2.86159 63.4114 2.86534C66.4206 2.86534 68.8663 5.28004 68.8626 8.25054V8.24678Z" fill="url(#paint10_linear_79_9479)"/>
<path d="M84.7088 8.25805C84.7088 4.24732 81.4479 0.976395 77.4281 0.97264C73.4158 0.97264 70.1399 4.2323 70.1361 8.24678C70.1361 12.2575 73.4008 15.5284 77.4168 15.5284C81.4366 15.5284 84.7051 12.2688 84.7088 8.25805ZM82.8793 8.25805C82.8793 11.221 80.4261 13.632 77.4168 13.632C74.4076 13.632 71.9619 11.2135 71.9657 8.25054C71.9657 5.28004 74.4189 2.87285 77.4281 2.87661C80.4373 2.87661 82.883 5.29131 82.8793 8.2618V8.25805Z" fill="url(#paint11_linear_79_9479)"/>
<path d="M84.66 66.8681H0V69.3992H84.66V66.8681Z" fill="url(#paint12_linear_79_9479)"/>
<path d="M84.6675 61.205C84.6675 57.1905 81.4066 53.9234 77.3868 53.9234C73.3745 53.9234 70.0985 57.183 70.0948 61.1938C70.0948 65.2083 73.3595 68.4754 77.3755 68.4792C81.3953 68.4792 84.6637 65.2195 84.6675 61.205ZM82.8379 61.205C82.8379 64.1718 80.3847 66.5827 77.3755 66.579C74.3663 66.579 71.9206 64.1605 71.9244 61.1975C71.9244 58.2308 74.3776 55.8236 77.3868 55.8236C80.396 55.8236 82.8417 58.2383 82.8379 61.205Z" fill="url(#paint13_linear_79_9479)"/>
<path d="M70.6508 61.1938C70.6508 57.1793 67.3899 53.9121 63.3701 53.9121C59.3578 53.9121 56.0818 57.1718 56.0781 61.1825C56.0781 65.197 59.3428 68.4642 63.3588 68.4679C67.3786 68.4679 70.647 65.2083 70.6508 61.1938ZM68.8212 61.1938C68.8212 64.1605 66.368 66.5714 63.3588 66.5677C60.3496 66.5677 57.9039 64.1492 57.9077 61.1825C57.9077 58.2158 60.3609 55.8048 63.3701 55.8086C66.3793 55.8086 68.825 58.2233 68.8212 61.19V61.1938Z" fill="url(#paint14_linear_79_9479)"/>
<path d="M56.6303 61.1825C56.6303 57.168 53.3694 53.9008 49.3496 53.9008C45.3373 53.9008 42.0614 57.1605 42.0576 61.1712C42.0576 65.1857 45.3223 68.4529 49.3383 68.4566C53.3581 68.4566 56.6266 65.197 56.6303 61.1825ZM54.8045 61.1825C54.8045 64.1492 52.3513 66.5602 49.3421 66.5564C46.3329 66.5564 43.8872 64.138 43.891 61.175C43.891 58.2083 46.3442 55.7973 49.3534 55.8011C52.3626 55.8011 54.8083 58.2158 54.8045 61.1825Z" fill="url(#paint15_linear_79_9479)"/>
<path d="M42.6136 61.1712C42.6136 57.1567 39.3527 53.8896 35.3329 53.8896C31.3169 53.8896 28.0447 57.1492 28.0409 61.16C28.0409 65.1745 31.3056 68.4416 35.3216 68.4454C39.3414 68.4454 42.6099 65.1857 42.6136 61.1712ZM40.7841 61.1712C40.7841 64.138 38.3309 66.5489 35.3216 66.5452C32.3124 66.5452 29.8667 64.1267 29.8705 61.16C29.8705 58.1932 32.3237 55.786 35.3329 55.786C38.3421 55.786 40.7878 58.2007 40.7841 61.1675V61.1712Z" fill="url(#paint16_linear_79_9479)"/>
<path d="M28.5932 61.16C28.5932 57.1455 25.3323 53.8783 21.3125 53.8783C17.2964 53.8783 14.0242 57.138 14.0205 61.1487C14.0205 65.1632 17.2851 68.4304 21.3012 68.4341C25.321 68.4341 28.5894 65.1745 28.5932 61.16ZM26.7674 61.16C26.7674 64.1267 24.3142 66.5376 21.3049 66.5339C18.2957 66.5339 15.85 64.1154 15.8538 61.1525C15.8538 58.1857 18.307 55.7785 21.3162 55.7785C24.3254 55.7785 26.7711 58.1932 26.7674 61.16Z" fill="url(#paint17_linear_79_9479)"/>
<path d="M14.5765 61.1487C14.5765 57.1342 11.3155 53.867 7.29575 53.867C3.27971 53.867 0.00751364 57.1267 0.00375682 61.1374C0.00375682 65.1519 3.26844 68.4191 7.28448 68.4228C11.3043 68.4228 14.5727 65.1632 14.5765 61.1487ZM12.7469 61.1487C12.7469 64.1154 10.2937 66.5264 7.28448 66.5226C4.27526 66.5226 1.82957 64.1042 1.83333 61.1374C1.83333 58.1707 4.28653 55.7635 7.29575 55.7635C10.305 55.7635 12.7507 58.1782 12.7469 61.1449V61.1487Z" fill="url(#paint18_linear_79_9479)"/>
<path d="M84.6938 25.9683L84.6825 42.86L95.7314 34.4254L84.6938 25.9683Z" fill="url(#paint19_linear_79_9479)"/>
<path d="M169.365 14.2328L169.358 21.7511L152.843 34.4667L169.339 47.2087L169.331 54.7307L148.045 38.2259L126.999 54.7006L105.984 38.1958L84.6675 54.6706L84.675 47.1486L101.19 34.4329L84.6976 21.691L84.7051 14.1727L105.995 30.6776L127.037 14.2065L148.056 30.7114L169.369 14.2403L169.365 14.2328ZM143.251 34.463L127.029 21.721L110.789 34.4405L127.007 47.1824L143.248 34.4667L143.251 34.463Z" fill="url(#paint20_linear_79_9479)"/>
<path d="M169.343 42.9276L169.358 26.0359L158.309 34.4743L169.343 42.9276Z" fill="url(#paint21_linear_79_9479)"/>
<path d="M169.376 0.0638412H84.7163V2.59496H169.376V0.0638412Z" fill="url(#paint22_linear_79_9479)"/>
<path d="M169.365 13.9887H84.7051V16.5199H169.365V13.9887Z" fill="url(#paint23_linear_79_9479)"/>
<path d="M169.331 53.3562H84.6713V55.6846H169.331V53.3562Z" fill="url(#paint24_linear_79_9479)"/>
<path d="M99.2778 8.26931C99.2778 4.25858 96.0169 0.987661 91.9971 0.983906C87.9848 0.983906 84.7088 4.24356 84.7051 8.25805C84.7051 12.2688 87.9698 15.5397 91.9858 15.5397C96.0056 15.5397 99.274 12.28 99.2778 8.26931ZM97.452 8.26931C97.452 11.2323 94.9988 13.6432 91.9896 13.6432C88.9803 13.6432 86.5347 11.2248 86.5384 8.2618C86.5384 5.29506 88.9916 2.88412 92.0008 2.88788C95.01 2.88788 97.4557 5.30258 97.452 8.26931Z" fill="url(#paint25_linear_79_9479)"/>
<path d="M113.298 8.28058C113.298 4.26985 110.037 0.998927 106.018 0.995172C102.005 0.995172 98.7293 4.25483 98.7255 8.26931C98.7255 12.28 101.99 15.551 106.006 15.551C110.026 15.551 113.294 12.2913 113.298 8.28058ZM111.469 8.28058C111.469 11.2436 109.015 13.6545 106.006 13.6545C102.997 13.6545 100.551 11.2361 100.555 8.27307C100.555 5.30258 103.008 2.89539 106.018 2.89914C109.027 2.89914 111.472 5.31384 111.469 8.28058Z" fill="url(#paint26_linear_79_9479)"/>
<path d="M127.315 8.29185C127.315 4.28112 124.054 1.01019 120.034 1.00644C116.022 1.00644 112.746 4.26609 112.742 8.28058C112.742 12.2913 116.007 15.5622 120.023 15.5622C124.043 15.5622 127.311 12.3026 127.315 8.29185ZM125.485 8.29185C125.485 11.2548 123.032 13.6658 120.023 13.6658C117.014 13.6658 114.568 11.2473 114.572 8.28434C114.572 5.31384 117.025 2.90665 120.034 2.91041C123.043 2.91041 125.489 5.32511 125.485 8.29185Z" fill="url(#paint27_linear_79_9479)"/>
<path d="M141.335 8.30311C141.335 4.29238 138.074 1.02146 134.055 1.0177C130.042 1.0177 126.766 4.27736 126.763 8.29185C126.763 12.3026 130.027 15.5735 134.043 15.5735C138.063 15.5735 141.332 12.3138 141.335 8.30311ZM139.506 8.30311C139.506 11.2661 137.053 13.6808 134.043 13.677C131.034 13.677 128.589 11.2586 128.592 8.2956C128.592 5.32511 131.045 2.91792 134.055 2.92167C137.064 2.92167 139.51 5.33637 139.506 8.30311Z" fill="url(#paint28_linear_79_9479)"/>
<path d="M155.352 8.31438C155.352 4.30365 152.091 1.03273 148.071 1.02897C144.059 1.02897 140.783 4.28863 140.779 8.30311C140.779 12.3138 144.044 15.5848 148.06 15.5848C152.08 15.5848 155.348 12.3251 155.352 8.31438ZM153.523 8.31438C153.523 11.2774 151.069 13.6883 148.06 13.6883C145.051 13.6883 142.605 11.2698 142.609 8.30687C142.609 5.33637 145.062 2.92918 148.071 2.93294C151.081 2.93294 153.526 5.34764 153.523 8.31813V8.31438Z" fill="url(#paint29_linear_79_9479)"/>
<path d="M169.369 8.32564C169.369 4.31491 166.108 1.04399 162.088 1.04024C158.076 1.04024 154.8 4.29989 154.796 8.31438C154.796 12.3251 158.061 15.596 162.077 15.596C166.097 15.596 169.365 12.3364 169.369 8.32564ZM167.543 8.32564C167.543 11.2886 165.09 13.6996 162.081 13.6996C159.071 13.6996 156.626 11.2811 156.629 8.31813C156.629 5.34764 159.083 2.94045 162.092 2.94421C165.101 2.94421 167.547 5.35891 167.543 8.32564Z" fill="url(#paint30_linear_79_9479)"/>
<path d="M169.32 66.9319H84.66V69.463H169.32V66.9319Z" fill="url(#paint31_linear_79_9479)"/>
<path d="M169.327 61.2725C169.327 57.2581 166.067 53.9909 162.047 53.9909C158.034 53.9909 154.759 57.2505 154.755 61.2613C154.755 65.2758 158.019 68.5429 162.036 68.5467C166.055 68.5467 169.324 65.287 169.327 61.2725ZM167.498 61.2688C167.498 64.2355 165.045 66.6465 162.036 66.6427C159.026 66.6427 156.581 64.2243 156.584 61.2613C156.584 58.2945 159.038 55.8873 162.047 55.8873C165.056 55.8873 167.502 58.302 167.498 61.2688Z" fill="url(#paint32_linear_79_9479)"/>
<path d="M155.311 61.2613C155.311 57.2468 152.05 53.9796 148.03 53.9796C144.018 53.9796 140.742 57.2393 140.738 61.25C140.738 65.2645 144.003 68.5317 148.019 68.5354C152.039 68.5354 155.307 65.2758 155.311 61.2613ZM153.481 61.2575C153.481 64.2243 151.028 66.6352 148.019 66.6314C145.01 66.6314 142.564 64.213 142.568 61.25C142.568 58.2833 145.021 55.8723 148.03 55.8761C151.039 55.8761 153.485 58.2908 153.481 61.2575Z" fill="url(#paint33_linear_79_9479)"/>
<path d="M141.29 61.25C141.29 57.2355 138.029 53.9684 134.01 53.9684C129.997 53.9684 126.721 57.228 126.718 61.2387C126.718 65.2532 129.982 68.5204 133.998 68.5241C138.018 68.5241 141.287 65.2645 141.29 61.25ZM139.465 61.2462C139.465 64.213 137.011 66.6239 134.002 66.6202C130.993 66.6202 128.547 64.2017 128.551 61.2387C128.551 58.272 131.004 55.8611 134.013 55.8648C137.023 55.8648 139.468 58.2795 139.465 61.2462Z" fill="url(#paint34_linear_79_9479)"/>
<path d="M127.274 61.2387C127.274 57.2243 124.013 53.9571 119.993 53.9571C115.981 53.9571 112.705 57.2167 112.701 61.2275C112.701 65.242 115.966 68.5091 119.982 68.5129C124.001 68.5129 127.27 65.2532 127.274 61.2387ZM125.444 61.2387C125.444 64.2055 122.991 66.6164 119.982 66.6127C116.972 66.6127 114.527 64.1942 114.53 61.2312C114.53 58.2645 116.984 55.8573 119.993 55.8573C123.002 55.8573 125.448 58.272 125.444 61.2387Z" fill="url(#paint35_linear_79_9479)"/>
<path d="M113.257 61.2275C113.257 57.213 109.996 53.9458 105.976 53.9458C101.964 53.9458 98.688 57.2055 98.6842 61.2162C98.6842 65.2307 101.949 68.4979 105.965 68.5016C109.985 68.5016 113.253 65.242 113.257 61.2275ZM111.427 61.2275C111.427 64.1942 108.974 66.6052 105.965 66.6014C102.956 66.6014 100.51 64.1829 100.514 61.22C100.514 58.2532 102.967 55.846 105.976 55.846C108.985 55.846 111.431 58.2607 111.427 61.2275Z" fill="url(#paint36_linear_79_9479)"/>
<path d="M99.2365 61.2162C99.2365 57.2017 95.9755 53.9346 91.9557 53.9346C87.9435 53.9346 84.6675 57.1942 84.6638 61.2049C84.6638 65.2194 87.9284 68.4866 91.9445 68.4903C95.9643 68.4903 99.2327 65.2307 99.2365 61.2162ZM97.4107 61.2162C97.4107 64.1829 94.9575 66.5939 91.9482 66.5901C88.939 66.5901 86.4933 64.1717 86.4971 61.2087C86.4971 58.242 88.9503 55.831 91.9595 55.8348C94.9687 55.8348 97.4144 58.2495 97.4107 61.2162Z" fill="url(#paint37_linear_79_9479)"/>
<path d="M169.358 26.0359L169.343 42.9276L180.391 34.4893L169.358 26.0359Z" fill="url(#paint38_linear_79_9479)"/>
<path d="M254.025 14.3004L254.018 21.8187L237.503 34.5343L253.999 47.2763L253.991 54.7983L232.705 38.2897L211.659 54.7645L190.644 38.2559L169.327 54.7307L169.335 47.2087L185.85 34.493L169.358 21.7511L169.365 14.2328L190.655 30.7377L211.697 14.2666L232.716 30.7715L254.029 14.3004H254.025ZM227.911 34.5268L211.689 21.7849L195.449 34.5043L211.667 47.2463L227.908 34.5306L227.911 34.5268Z" fill="url(#paint39_linear_79_9479)"/>
<path d="M254.003 42.9952L254.018 26.1035L242.969 34.5418L254.003 42.9952Z" fill="url(#paint40_linear_79_9479)"/>
<path d="M254.036 0.131438H169.376V2.66255H254.036V0.131438Z" fill="url(#paint41_linear_79_9479)"/>
<path d="M254.025 14.0526H169.365V16.5837H254.025V14.0526Z" fill="url(#paint42_linear_79_9479)"/>
<path d="M253.995 53.4239H169.335V55.7522H253.995V53.4239Z" fill="url(#paint43_linear_79_9479)"/>
<path d="M183.942 8.33691C183.942 4.32618 180.681 1.05526 176.661 1.0515C172.649 1.0515 169.373 4.31116 169.369 8.32564C169.369 12.3364 172.633 15.6073 176.65 15.6073C180.669 15.6073 183.938 12.3476 183.942 8.33691ZM182.112 8.33691C182.112 11.2999 179.659 13.7108 176.65 13.7108C173.64 13.7108 171.195 11.2924 171.198 8.3294C171.198 5.35891 173.652 2.95172 176.661 2.95547C179.67 2.95547 182.116 5.37017 182.112 8.34067V8.33691Z" fill="url(#paint44_linear_79_9479)"/>
<path d="M197.958 8.34818C197.958 4.33745 194.697 1.06652 190.678 1.06277C186.665 1.06277 183.389 4.32243 183.386 8.33691C183.386 12.3476 186.65 15.6186 190.666 15.6186C194.686 15.6186 197.954 12.3589 197.958 8.34818ZM196.129 8.34818C196.129 11.3112 193.675 13.7221 190.666 13.7221C187.657 13.7221 185.211 11.3036 185.215 8.34067C185.215 5.37017 187.668 2.96298 190.678 2.96674C193.687 2.96674 196.132 5.38144 196.129 8.35193V8.34818Z" fill="url(#paint45_linear_79_9479)"/>
<path d="M211.975 8.35944C211.975 4.34871 208.714 1.07779 204.694 1.07403C200.682 1.07403 197.406 4.33369 197.402 8.34818C197.402 12.3589 200.667 15.6298 204.683 15.6298C208.703 15.6298 211.971 12.3702 211.975 8.35944ZM210.149 8.35944C210.149 11.3224 207.696 13.7371 204.687 13.7334C201.678 13.7334 199.232 11.3149 199.236 8.35193C199.236 5.38144 201.689 2.97425 204.698 2.978C207.707 2.978 210.153 5.3927 210.149 8.3632V8.35944Z" fill="url(#paint46_linear_79_9479)"/>
<path d="M225.995 8.37071C225.995 4.35998 222.734 1.08906 218.715 1.0853C214.702 1.0853 211.426 4.34496 211.423 8.35944C211.423 12.3702 214.687 15.6411 218.703 15.6411C222.723 15.6411 225.992 12.3814 225.995 8.37071ZM224.166 8.37071C224.166 11.3337 221.713 13.7484 218.703 13.7446C215.694 13.7446 213.249 11.3262 213.252 8.3632C213.252 5.3927 215.705 2.98552 218.715 2.98927C221.724 2.98927 224.17 5.40397 224.166 8.37071Z" fill="url(#paint47_linear_79_9479)"/>
<path d="M240.012 8.38197C240.012 4.37124 236.751 1.10032 232.731 1.09657C228.719 1.09657 225.443 4.35622 225.439 8.37071C225.439 12.3814 228.704 15.6524 232.72 15.6524C236.74 15.6524 240.008 12.3927 240.012 8.38197ZM238.183 8.38197C238.183 11.345 235.729 13.7559 232.72 13.7559C229.711 13.7559 227.265 11.3374 227.269 8.37446C227.269 5.40773 229.722 2.99678 232.731 3.00054C235.741 3.00054 238.186 5.41524 238.183 8.38197Z" fill="url(#paint48_linear_79_9479)"/>
<path d="M254.033 8.39324C254.033 4.38251 250.772 1.11159 246.752 1.10783C242.74 1.10783 239.464 4.36749 239.46 8.38197C239.46 12.3927 242.725 15.6636 246.741 15.6636C250.76 15.6636 254.029 12.404 254.033 8.39324ZM252.203 8.39324C252.203 11.3562 249.75 13.7672 246.741 13.7672C243.731 13.7672 241.286 11.3487 241.289 8.38573C241.289 5.41524 243.743 3.00805 246.752 3.0118C249.761 3.0118 252.207 5.4265 252.203 8.39324Z" fill="url(#paint49_linear_79_9479)"/>
<path d="M253.984 66.9996H169.324V69.5307H253.984V66.9996Z" fill="url(#paint50_linear_79_9479)"/>
<path d="M253.987 61.3402C253.987 57.3257 250.727 54.0586 246.707 54.0586C242.694 54.0586 239.419 57.3182 239.415 61.329C239.415 65.3434 242.679 68.6106 246.695 68.6144C250.715 68.6144 253.984 65.3547 253.987 61.3402ZM252.162 61.3365C252.162 64.3032 249.708 66.7141 246.699 66.7104C243.69 66.7104 241.244 64.2919 241.248 61.329C241.248 58.3622 243.701 55.955 246.711 55.955C249.72 55.955 252.165 58.3697 252.162 61.3365Z" fill="url(#paint51_linear_79_9479)"/>
<path d="M239.971 61.329C239.971 57.3145 236.71 54.0473 232.69 54.0473C228.678 54.0473 225.402 57.307 225.398 61.3177C225.398 65.3322 228.663 68.5993 232.679 68.6031C236.699 68.6031 239.967 65.3434 239.971 61.329ZM238.141 61.3252C238.141 64.2919 235.688 66.7029 232.679 66.6991C229.67 66.6991 227.224 64.2807 227.228 61.3139C227.228 58.3472 229.681 55.94 232.69 55.94C235.699 55.94 238.145 58.3547 238.141 61.3214V61.3252Z" fill="url(#paint52_linear_79_9479)"/>
<path d="M225.954 61.3177C225.954 57.3032 222.693 54.036 218.673 54.036C214.661 54.036 211.385 57.2957 211.381 61.3064C211.381 65.3209 214.646 68.5881 218.662 68.5918C222.682 68.5918 225.95 65.3322 225.954 61.3177ZM224.125 61.3139C224.125 64.2807 221.671 66.6916 218.662 66.6879C215.653 66.6879 213.207 64.2694 213.211 61.3064C213.211 58.3397 215.664 55.9287 218.673 55.9325C221.683 55.9325 224.128 58.3472 224.125 61.3139Z" fill="url(#paint53_linear_79_9479)"/>
<path d="M211.934 61.3064C211.934 57.2919 208.673 54.0248 204.653 54.0248C200.641 54.0248 197.365 57.2844 197.361 61.2952C197.361 65.3096 200.626 68.5768 204.642 68.5806C208.661 68.5806 211.93 65.3209 211.934 61.3064ZM210.108 61.3027C210.108 64.2694 207.655 66.6804 204.645 66.6766C201.636 66.6766 199.19 64.2581 199.194 61.2952C199.194 58.3284 201.647 55.9212 204.657 55.9212C207.666 55.9212 210.112 58.3359 210.108 61.3027Z" fill="url(#paint54_linear_79_9479)"/>
<path d="M197.917 61.2952C197.917 57.2807 194.656 54.0135 190.636 54.0135C186.624 54.0135 183.348 57.2732 183.344 61.2839C183.344 65.2984 186.609 68.5655 190.625 68.5693C194.645 68.5693 197.913 65.3096 197.917 61.2952ZM196.087 61.2914C196.087 64.2581 193.634 66.6691 190.625 66.6653C187.616 66.6653 185.17 64.2469 185.174 61.2839C185.174 58.3172 187.627 55.91 190.636 55.91C193.645 55.91 196.091 58.3247 196.087 61.2914Z" fill="url(#paint55_linear_79_9479)"/>
<path d="M183.9 61.2839C183.9 57.2694 180.639 54.0022 176.619 54.0022C172.607 54.0022 169.331 57.2618 169.327 61.2725C169.327 65.287 172.592 68.5543 176.608 68.558C180.628 68.558 183.896 65.2984 183.9 61.2839ZM182.071 61.2801C182.071 64.2469 179.617 66.6578 176.608 66.6541C173.599 66.6541 171.153 64.2356 171.157 61.2726C171.157 58.3059 173.61 55.8987 176.619 55.8987C179.629 55.8987 182.074 58.3134 182.071 61.2801Z" fill="url(#paint56_linear_79_9479)"/>
<path d="M254.018 26.1035L254.003 42.9952L265.051 34.5569L254.018 26.1035Z" fill="url(#paint57_linear_79_9479)"/>
<path d="M338.685 14.3643L338.678 21.8825L322.163 34.5982L338.659 47.3401L338.651 54.8621L317.365 38.3573L296.319 54.8321L275.304 38.3235L253.987 54.7983L253.995 47.2763L270.51 34.5606L254.018 21.8187L254.025 14.3004L275.315 30.8053L296.357 14.3342L317.376 30.8391L338.689 14.368L338.685 14.3643ZM312.571 34.5944L296.349 21.8525L280.109 34.5719L296.327 47.3138L312.568 34.5982L312.571 34.5944Z" fill="url(#paint58_linear_79_9479)"/>
<path d="M338.663 43.0628L338.678 26.1711L327.629 34.6057L338.663 43.0628Z" fill="url(#paint59_linear_79_9479)"/>
<path d="M338.7 0.199034H254.036V2.73015H338.7V0.199034Z" fill="url(#paint60_linear_79_9479)"/>
<path d="M338.685 14.1202H254.025V16.6513H338.685V14.1202Z" fill="url(#paint61_linear_79_9479)"/>
<path d="M338.655 53.4878H253.995V55.8161H338.655V53.4878Z" fill="url(#paint62_linear_79_9479)"/>
<path d="M268.602 8.40451C268.602 4.39378 265.341 1.12285 261.321 1.1191C257.309 1.1191 254.033 4.37876 254.029 8.39324C254.029 12.404 257.293 15.6749 261.31 15.6749C265.329 15.6749 268.598 12.4152 268.602 8.40451ZM266.772 8.40451C266.772 11.3675 264.319 13.7784 261.31 13.7784C258.3 13.7784 255.855 11.36 255.858 8.397C255.858 5.4265 258.312 3.01931 261.321 3.02307C264.33 3.02307 266.776 5.43777 266.772 8.40826V8.40451Z" fill="url(#paint63_linear_79_9479)"/>
<path d="M282.618 8.41577C282.618 4.40504 279.357 1.13412 275.338 1.13036C271.325 1.13036 268.049 4.39002 268.046 8.40451C268.046 12.4152 271.31 15.6862 275.326 15.6862C279.346 15.6862 282.614 12.4265 282.618 8.41577ZM280.792 8.41577C280.792 11.3788 278.339 13.7897 275.33 13.7897C272.321 13.7897 269.875 11.3712 269.879 8.40826C269.879 5.43777 272.332 3.03058 275.341 3.03433C278.35 3.03433 280.796 5.44903 280.792 8.41953V8.41577Z" fill="url(#paint64_linear_79_9479)"/>
<path d="M296.639 8.42704C296.639 4.41631 293.378 1.14539 289.358 1.14163C285.346 1.14163 282.07 4.40129 282.066 8.41577C282.066 12.4265 285.331 15.6974 289.347 15.6974C293.366 15.6974 296.635 12.4378 296.639 8.42704ZM294.809 8.42704C294.809 11.39 292.356 13.8047 289.347 13.801C286.337 13.801 283.892 11.3825 283.896 8.41953C283.896 5.44904 286.349 3.04185 289.358 3.0456C292.367 3.0456 294.813 5.4603 294.809 8.43079V8.42704Z" fill="url(#paint65_linear_79_9479)"/>
<path d="M310.655 8.4383C310.655 4.42758 307.394 1.15665 303.375 1.1529C299.362 1.1529 296.086 4.41255 296.083 8.42704C296.083 12.4378 299.347 15.7087 303.363 15.7087C307.383 15.7087 310.652 12.449 310.655 8.4383ZM308.826 8.4383C308.826 11.4013 306.373 13.816 303.363 13.8122C300.354 13.8122 297.908 11.3938 297.912 8.43079C297.912 5.4603 300.365 3.05311 303.375 3.05687C306.384 3.05687 308.83 5.47157 308.826 8.44206V8.4383Z" fill="url(#paint66_linear_79_9479)"/>
<path d="M324.672 8.44957C324.672 4.43884 321.411 1.16792 317.391 1.16416C313.379 1.16416 310.103 4.42382 310.099 8.4383C310.099 12.449 313.364 15.72 317.38 15.72C321.4 15.72 324.668 12.4603 324.672 8.44957ZM322.846 8.44957C322.846 11.4126 320.393 13.8235 317.384 13.8235C314.375 13.8235 311.929 11.405 311.933 8.44206C311.933 5.47157 314.386 3.06438 317.395 3.06813C320.404 3.06813 322.85 5.48283 322.846 8.45333V8.44957Z" fill="url(#paint67_linear_79_9479)"/>
<path d="M338.693 8.46084C338.693 4.45011 335.432 1.17918 331.412 1.17543C327.4 1.17543 324.124 4.43509 324.12 8.44957C324.12 12.4603 327.385 15.7312 331.401 15.7312C335.42 15.7312 338.689 12.4716 338.693 8.46084ZM336.863 8.46084C336.863 11.4238 334.41 13.8348 331.401 13.8348C328.391 13.8348 325.946 11.4163 325.949 8.45333C325.949 5.48283 328.403 3.07564 331.412 3.0794C334.421 3.0794 336.867 5.4941 336.863 8.46084Z" fill="url(#paint68_linear_79_9479)"/>
<path d="M338.644 67.0672H253.984V69.5983H338.644V67.0672Z" fill="url(#paint69_linear_79_9479)"/>
<path d="M338.647 61.4041C338.647 57.3896 335.387 54.1224 331.367 54.1224C327.351 54.1224 324.079 57.3821 324.075 61.3928C324.075 65.4073 327.339 68.6745 331.355 68.6782C335.375 68.6782 338.644 65.4186 338.647 61.4041ZM336.822 61.4041C336.822 64.3708 334.368 66.7817 331.359 66.778C328.35 66.778 325.904 64.3595 325.908 61.3966C325.908 58.4298 328.361 56.0226 331.37 56.0226C334.38 56.0226 336.825 58.4373 336.822 61.4041Z" fill="url(#paint70_linear_79_9479)"/>
<path d="M324.631 61.3928C324.631 57.3783 321.37 54.1111 317.35 54.1111C313.334 54.1111 310.062 57.3708 310.058 61.3815C310.058 65.396 313.323 68.6632 317.339 68.6669C321.359 68.6669 324.627 65.4073 324.631 61.3928ZM322.801 61.3928C322.801 64.3595 320.348 66.7705 317.339 66.7667C314.33 66.7667 311.884 64.3483 311.888 61.3853C311.888 58.4185 314.341 56.0076 317.35 56.0114C320.359 56.0114 322.805 58.4261 322.801 61.3928Z" fill="url(#paint71_linear_79_9479)"/>
<path d="M310.614 61.3853C310.614 57.3708 307.353 54.1036 303.333 54.1036C299.317 54.1036 296.045 57.3633 296.041 61.374C296.041 65.3885 299.306 68.6557 303.322 68.6594C307.342 68.6594 310.61 65.3998 310.614 61.3853ZM308.784 61.3815C308.784 64.3483 306.331 66.7592 303.322 66.7555C300.313 66.7555 297.867 64.337 297.871 61.374C297.871 58.4073 300.324 55.9963 303.333 56.0001C306.343 56.0001 308.788 58.4148 308.784 61.3815Z" fill="url(#paint72_linear_79_9479)"/>
<path d="M296.594 61.374C296.594 57.3595 293.333 54.0924 289.313 54.0924C285.297 54.0924 282.025 57.352 282.021 61.3628C282.021 65.3772 285.286 68.6444 289.302 68.6482C293.321 68.6482 296.59 65.3885 296.594 61.374ZM294.768 61.3703C294.768 64.337 292.315 66.7479 289.305 66.7442C286.296 66.7442 283.85 64.3257 283.854 61.3628C283.854 58.396 286.307 55.9888 289.317 55.9888C292.326 55.9888 294.772 58.4035 294.768 61.3703Z" fill="url(#paint73_linear_79_9479)"/>
<path d="M282.577 61.3628C282.577 57.3483 279.316 54.0811 275.296 54.0811C271.28 54.0811 268.008 57.3408 268.004 61.3515C268.004 65.366 271.269 68.6331 275.285 68.6369C279.305 68.6369 282.573 65.3772 282.577 61.3628ZM280.747 61.359C280.747 64.3257 278.294 66.7367 275.285 66.7329C272.276 66.7329 269.83 64.3145 269.834 61.3515C269.834 58.3848 272.287 55.9776 275.296 55.9776C278.305 55.9776 280.751 58.3923 280.747 61.359Z" fill="url(#paint74_linear_79_9479)"/>
<path d="M268.56 61.3515C268.56 57.337 265.299 54.0698 261.279 54.0698C257.263 54.0698 253.991 57.3295 253.987 61.3402C253.987 65.3547 257.252 68.6219 261.268 68.6256C265.288 68.6256 268.556 65.366 268.56 61.3515ZM266.731 61.3477C266.731 64.3145 264.277 66.7254 261.268 66.7217C258.259 66.7217 255.813 64.3032 255.817 61.3365C255.817 58.3697 258.27 55.9625 261.279 55.9625C264.289 55.9625 266.734 58.3772 266.731 61.344V61.3477Z" fill="url(#paint75_linear_79_9479)"/>
<path d="M338.678 26.1711L338.663 43.0628L349.711 34.6245L338.678 26.1711Z" fill="url(#paint76_linear_79_9479)"/>
<path d="M423.349 14.4319L423.341 21.9501L406.826 34.6658L423.323 47.4077L423.315 54.9297L402.029 38.4249L380.983 54.8997L359.967 38.3911L338.651 54.8659L338.659 47.3439L355.174 34.6282L338.681 21.8863L338.689 14.368L359.979 30.8729L381.021 14.4018L402.04 30.9067L423.353 14.4356L423.349 14.4319ZM397.231 34.662L381.009 21.9201L364.769 34.6395L380.987 47.3814L397.228 34.6658L397.231 34.662Z" fill="url(#paint77_linear_79_9479)"/>
<path d="M423.326 43.1266L423.337 26.235L412.289 34.6733L423.326 43.1266Z" fill="url(#paint78_linear_79_9479)"/>
<path d="M423.356 0.266631H338.696V2.79775H423.356V0.266631Z" fill="url(#paint79_linear_79_9479)"/>
<path d="M423.345 14.1878H338.685V16.7189H423.345V14.1878Z" fill="url(#paint80_linear_79_9479)"/>
<path d="M423.315 53.5554H338.655V55.8837H423.315V53.5554Z" fill="url(#paint81_linear_79_9479)"/>
<path d="M353.262 8.4721C353.262 4.46137 350.001 1.19045 345.981 1.1867C341.968 1.1867 338.693 4.44635 338.689 8.46084C338.689 12.4716 341.953 15.7387 345.97 15.7425C349.989 15.7425 353.258 12.4828 353.262 8.4721ZM351.432 8.4721C351.432 11.4351 348.979 13.846 345.97 13.846C342.96 13.846 340.515 11.4276 340.518 8.46459C340.518 5.49785 342.972 3.08691 345.981 3.09067C348.99 3.09067 351.436 5.50536 351.432 8.4721Z" fill="url(#paint82_linear_79_9479)"/>
<path d="M367.278 8.48337C367.278 4.47264 364.017 1.20172 359.997 1.19796C355.985 1.19796 352.709 4.45762 352.706 8.4721C352.706 12.4828 355.97 15.7538 359.986 15.7538C364.006 15.7538 367.274 12.4941 367.278 8.48337ZM365.452 8.48337C365.452 11.4464 362.999 13.8573 359.99 13.8573C356.981 13.8573 354.535 11.4388 354.539 8.47586C354.539 5.50537 356.992 3.09818 360.001 3.10193C363.01 3.10193 365.456 5.51663 365.452 8.48337Z" fill="url(#paint83_linear_79_9479)"/>
<path d="M381.299 8.49464C381.299 4.48391 378.038 1.21298 374.018 1.20923C370.006 1.20923 366.73 4.46888 366.726 8.48337C366.726 12.4941 369.991 15.765 374.007 15.765C378.026 15.765 381.295 12.5054 381.299 8.49464ZM379.469 8.49088C379.469 11.4539 377.016 13.8686 374.007 13.8648C370.997 13.8648 368.552 11.4464 368.556 8.48337C368.556 5.51288 371.009 3.10569 374.018 3.10944C377.027 3.10944 379.473 5.52414 379.469 8.49088Z" fill="url(#paint84_linear_79_9479)"/>
<path d="M395.315 8.5059C395.315 4.49517 392.054 1.22425 388.035 1.22049C384.022 1.22049 380.746 4.48015 380.743 8.49464C380.743 12.5054 384.007 15.7763 388.023 15.7763C392.043 15.7763 395.312 12.5166 395.315 8.5059ZM393.486 8.50215C393.486 11.4651 391.033 13.8761 388.023 13.8761C385.014 13.8761 382.568 11.4576 382.572 8.49464C382.572 5.52414 385.025 3.11695 388.035 3.12071C391.044 3.12071 393.49 5.53541 393.486 8.50215Z" fill="url(#paint85_linear_79_9479)"/>
<path d="M409.336 8.51717C409.336 4.50644 406.075 1.23551 402.055 1.23176C398.043 1.23176 394.767 4.49142 394.763 8.5059C394.763 12.5166 398.028 15.7876 402.044 15.7876C406.064 15.7876 409.332 12.5279 409.336 8.51717ZM407.506 8.51341C407.506 11.4764 405.053 13.8873 402.044 13.8873C399.035 13.8873 396.589 11.4689 396.593 8.5059C396.593 5.53916 399.046 3.12822 402.055 3.13197C405.064 3.13197 407.51 5.54667 407.506 8.51341Z" fill="url(#paint86_linear_79_9479)"/>
<path d="M423.353 8.52843C423.353 4.5177 420.092 1.24678 416.072 1.24303C412.06 1.24303 408.784 4.50268 408.78 8.51717C408.78 12.5279 412.044 15.7988 416.061 15.7988C420.08 15.7988 423.349 12.5392 423.353 8.52843ZM421.523 8.52468C421.523 11.4877 419.07 13.8986 416.061 13.8986C413.051 13.8986 410.606 11.4802 410.609 8.51717C410.609 5.54667 413.063 3.13949 416.072 3.14324C419.081 3.14324 421.527 5.55794 421.523 8.52843V8.52468Z" fill="url(#paint87_linear_79_9479)"/>
<path d="M423.304 67.1348H338.644V69.6659H423.304V67.1348Z" fill="url(#paint88_linear_79_9479)"/>
<path d="M423.311 61.4717C423.311 57.4572 420.05 54.19 416.03 54.19C412.018 54.19 408.742 57.4497 408.738 61.4604C408.738 65.4749 412.003 68.742 416.019 68.7458C420.039 68.7458 423.307 65.4861 423.311 61.4717ZM421.482 61.4717C421.482 64.4384 419.028 66.8493 416.019 66.8456C413.01 66.8456 410.564 64.4271 410.568 61.4641C410.568 58.4974 413.021 56.0902 416.03 56.0902C419.04 56.0902 421.485 58.5049 421.482 61.4717Z" fill="url(#paint89_linear_79_9479)"/>
<path d="M409.291 61.4604C409.291 57.4459 406.03 54.1787 402.01 54.1787C397.998 54.1787 394.722 57.4384 394.718 61.4491C394.718 65.4636 397.983 68.7308 401.999 68.7345C406.019 68.7345 409.287 65.4749 409.291 61.4604ZM407.465 61.4604C407.465 64.4271 405.012 66.8381 402.003 66.8343C398.993 66.8343 396.548 64.4159 396.551 61.4529C396.551 58.4861 399.005 56.0752 402.014 56.079C405.023 56.079 407.469 58.4937 407.465 61.4604Z" fill="url(#paint90_linear_79_9479)"/>
<path d="M395.274 61.4491C395.274 57.4346 392.013 54.1712 387.993 54.1675C383.981 54.1675 380.705 57.4271 380.701 61.4379C380.701 65.4523 383.966 68.7195 387.982 68.7233C392.002 68.7233 395.27 65.4636 395.274 61.4491ZM393.444 61.4491C393.444 64.4159 390.991 66.8268 387.982 66.8231C384.973 66.8231 382.527 64.4046 382.531 61.4416C382.531 58.4749 384.984 56.0639 387.993 56.0677C391.003 56.0677 393.448 58.4824 393.444 61.4491Z" fill="url(#paint91_linear_79_9479)"/>
<path d="M381.257 61.4379C381.257 57.4234 377.996 54.1562 373.977 54.1562C369.964 54.1562 366.688 57.4159 366.685 61.4266C366.685 65.4411 369.949 68.7083 373.965 68.712C377.985 68.712 381.254 65.4523 381.257 61.4379ZM379.428 61.4379C379.428 64.4046 376.975 66.8155 373.965 66.8118C370.956 66.8118 368.51 64.3933 368.514 61.4304C368.514 58.4636 370.967 56.0564 373.977 56.0564C376.986 56.0564 379.432 58.4711 379.428 61.4379Z" fill="url(#paint92_linear_79_9479)"/>
<path d="M367.237 61.4266C367.237 57.4121 363.976 54.1449 359.956 54.1449C355.944 54.1449 352.668 57.4046 352.664 61.4153C352.664 65.4298 355.929 68.697 359.945 68.7007C363.965 68.7007 367.233 65.4411 367.237 61.4266ZM365.411 61.4266C365.411 64.3933 362.958 66.8043 359.949 66.8005C356.939 66.8005 354.494 64.3821 354.497 61.4191C354.497 58.4523 356.951 56.0452 359.96 56.0452C362.969 56.0452 365.415 58.4599 365.411 61.4266Z" fill="url(#paint93_linear_79_9479)"/>
<path d="M353.22 61.4153C353.22 57.4008 349.959 54.1337 345.939 54.1337C341.927 54.1337 338.651 57.3933 338.647 61.4041C338.647 65.4186 341.912 68.6857 345.928 68.6895C349.948 68.6895 353.216 65.4298 353.22 61.4153ZM351.391 61.4153C351.391 64.3821 348.937 66.793 345.928 66.7893C342.919 66.7893 340.473 64.3708 340.477 61.4078C340.477 58.4411 342.93 56.0339 345.939 56.0339C348.949 56.0339 351.394 58.4486 351.391 61.4153Z" fill="url(#paint94_linear_79_9479)"/>
<path d="M423.337 26.235L423.326 43.1266L434.375 34.6921L423.337 26.235Z" fill="url(#paint95_linear_79_9479)"/>
<path d="M508.009 14.4995L508.001 22.0177L491.486 34.7334L507.982 47.4753L507.975 54.9973L486.689 38.4887L465.643 54.9635L444.627 38.4549L423.311 54.9297L423.319 47.4077L439.834 34.6921L423.341 21.9501L423.349 14.4319L444.639 30.9367L465.681 14.4657L486.7 30.9705L508.013 14.4995H508.009ZM481.895 34.7296L465.673 21.9877L449.432 34.7033L465.651 47.4453L481.891 34.7296H481.895Z" fill="url(#paint96_linear_79_9479)"/>
<path d="M507.986 43.1942L507.997 26.3026L496.949 34.7409L507.986 43.1942Z" fill="url(#paint97_linear_79_9479)"/>
<path d="M508.02 0.334227H423.36V2.86534H508.02V0.334227Z" fill="url(#paint98_linear_79_9479)"/>
<path d="M508.005 14.2554H423.345V16.7865H508.005V14.2554Z" fill="url(#paint99_linear_79_9479)"/>
<path d="M507.975 53.6229H423.315V55.9512H507.975V53.6229Z" fill="url(#paint100_linear_79_9479)"/>
<path d="M437.922 8.5397C437.922 4.52897 434.661 1.25805 430.641 1.25429C426.628 1.25429 423.353 4.51395 423.349 8.52843C423.349 12.5392 426.613 15.8101 430.63 15.8101C434.649 15.8101 437.918 12.5504 437.922 8.5397ZM436.096 8.53594C436.096 11.4989 433.642 13.9099 430.633 13.9099C427.624 13.9099 425.178 11.4914 425.182 8.52843C425.182 5.55794 427.635 3.15075 430.645 3.15451C433.654 3.15451 436.099 5.56921 436.096 8.5397V8.53594Z" fill="url(#paint101_linear_79_9479)"/>
<path d="M451.942 8.55097C451.942 4.54024 448.681 1.26931 444.661 1.26556C440.649 1.26556 437.373 4.52521 437.369 8.5397C437.369 12.5504 440.634 15.8214 444.65 15.8214C448.67 15.8214 451.938 12.5617 451.942 8.55097ZM450.112 8.54721C450.112 11.5102 447.659 13.9211 444.65 13.9211C441.641 13.9211 439.195 11.5027 439.199 8.5397C439.199 5.56921 441.652 3.16202 444.661 3.16577C447.67 3.16577 450.116 5.58047 450.112 8.55097V8.54721Z" fill="url(#paint102_linear_79_9479)"/>
<path d="M465.959 8.56223C465.959 4.5515 462.698 1.28058 458.678 1.27682C454.666 1.27682 451.39 4.53648 451.386 8.55097C451.386 12.5617 454.651 15.8326 458.667 15.8326C462.686 15.8326 465.955 12.573 465.959 8.56223ZM464.129 8.55848C464.129 11.5215 461.676 13.9362 458.667 13.9324C455.657 13.9324 453.212 11.5139 453.216 8.55097C453.216 5.58047 455.669 3.17328 458.678 3.17704C461.687 3.17704 464.133 5.59174 464.129 8.55848Z" fill="url(#paint103_linear_79_9479)"/>
<path d="M479.975 8.5735C479.975 4.56277 476.714 1.29185 472.695 1.28809C468.682 1.28809 465.406 4.54775 465.403 8.56223C465.403 12.573 468.667 15.8439 472.683 15.8439C476.703 15.8439 479.972 12.5842 479.975 8.5735ZM478.15 8.56974C478.15 11.5327 475.696 13.9474 472.687 13.9437C469.678 13.9437 467.232 11.5252 467.236 8.56223C467.236 5.59174 469.689 3.18455 472.698 3.1883C475.708 3.1883 478.153 5.603 478.15 8.5735V8.56974Z" fill="url(#paint104_linear_79_9479)"/>
<path d="M493.996 8.58476C493.996 4.57403 490.735 1.30311 486.715 1.29936C482.703 1.29936 479.427 4.55901 479.423 8.5735C479.423 12.5842 482.688 15.8552 486.704 15.8552C490.724 15.8552 493.992 12.5955 493.996 8.58476ZM492.166 8.58101C492.166 11.544 489.713 13.9549 486.704 13.9549C483.695 13.9549 481.249 11.5365 481.253 8.5735C481.253 5.60676 483.706 3.19582 486.715 3.19957C489.724 3.19957 492.17 5.61427 492.166 8.58476V8.58101Z" fill="url(#paint105_linear_79_9479)"/>
<path d="M508.013 8.59603C508.013 4.5853 504.752 1.31438 500.732 1.31062C496.719 1.31062 493.444 4.57028 493.44 8.58476C493.44 12.5955 496.704 15.8664 500.721 15.8664C504.74 15.8664 508.009 12.6068 508.013 8.59603ZM506.183 8.59227C506.183 11.5553 503.73 13.9662 500.721 13.9662C497.711 13.9662 495.266 11.5477 495.269 8.58476C495.269 5.61427 497.723 3.20708 500.732 3.21084C503.741 3.21084 506.187 5.62554 506.183 8.59603V8.59227Z" fill="url(#paint106_linear_79_9479)"/>
<path d="M507.964 67.2023H423.304V69.7334H507.964V67.2023Z" fill="url(#paint107_linear_79_9479)"/>
<path d="M507.971 61.5392C507.971 57.5247 504.71 54.2575 500.69 54.2575C496.678 54.2575 493.402 57.5172 493.398 61.5279C493.398 65.5424 496.663 68.8096 500.679 68.8133C504.699 68.8133 507.967 65.5537 507.971 61.5392ZM506.142 61.5392C506.142 64.5059 503.688 66.9168 500.679 66.9131C497.67 66.9131 495.224 64.4946 495.228 61.5317C495.228 58.5649 497.681 56.1577 500.69 56.1577C503.7 56.1577 506.145 58.5724 506.142 61.5392Z" fill="url(#paint108_linear_79_9479)"/>
<path d="M493.954 61.5279C493.954 57.5134 490.694 54.2462 486.674 54.2462C482.661 54.2462 479.386 57.5059 479.382 61.5166C479.382 65.5311 482.646 68.7983 486.663 68.802C490.682 68.802 493.951 65.5424 493.954 61.5279ZM492.125 61.5279C492.125 64.4946 489.672 66.9056 486.663 66.9018C483.653 66.9018 481.208 64.4834 481.211 61.5166C481.211 58.5499 483.665 56.1427 486.674 56.1427C489.683 56.1427 492.129 58.5574 492.125 61.5241V61.5279Z" fill="url(#paint109_linear_79_9479)"/>
<path d="M479.934 61.5166C479.934 57.5021 476.673 54.235 472.653 54.235C468.641 54.235 465.365 57.4946 465.361 61.5054C465.361 65.5199 468.626 68.787 472.642 68.7908C476.662 68.7908 479.93 65.5311 479.934 61.5166ZM478.104 61.5166C478.104 64.4834 475.651 66.8943 472.642 66.8906C469.633 66.8906 467.187 64.4721 467.191 61.5091C467.191 58.5424 469.644 56.1314 472.653 56.1352C475.663 56.1352 478.108 58.5499 478.104 61.5166Z" fill="url(#paint110_linear_79_9479)"/>
<path d="M465.917 61.5054C465.917 57.4909 462.656 54.2237 458.637 54.2237C454.624 54.2237 451.348 57.4834 451.345 61.4941C451.345 65.5086 454.609 68.7758 458.625 68.7795C462.645 68.7795 465.914 65.5199 465.917 61.5054ZM464.088 61.5054C464.088 64.4721 461.635 66.883 458.625 66.8793C455.616 66.8793 453.17 64.4608 453.174 61.4979C453.174 58.5311 455.627 56.1239 458.637 56.1239C461.646 56.1239 464.091 58.5386 464.088 61.5054Z" fill="url(#paint111_linear_79_9479)"/>
<path d="M451.901 61.4941C451.901 57.4796 448.64 54.2124 444.62 54.2124C440.608 54.2124 437.332 57.4721 437.328 61.4828C437.328 65.4973 440.593 68.7645 444.609 68.7682C448.628 68.7682 451.897 65.5086 451.901 61.4941ZM450.071 61.4941C450.071 64.4608 447.618 66.8718 444.609 66.868C441.599 66.868 439.154 64.4496 439.157 61.4866C439.157 58.5199 441.611 56.1127 444.62 56.1127C447.629 56.1127 450.075 58.5274 450.071 61.4941Z" fill="url(#paint112_linear_79_9479)"/>
<path d="M437.88 61.4828C437.88 57.4683 434.619 54.2012 430.599 54.2012C426.587 54.2012 423.311 57.4608 423.307 61.4716C423.307 65.4861 426.572 68.7532 430.588 68.757C434.608 68.757 437.876 65.4973 437.88 61.4828ZM436.051 61.4828C436.051 64.4496 433.597 66.8605 430.588 66.8568C427.579 66.8568 425.133 64.4383 425.137 61.4753C425.137 58.5086 427.59 56.1014 430.599 56.1014C433.609 56.1014 436.054 58.5161 436.051 61.4828Z" fill="url(#paint113_linear_79_9479)"/>
<path d="M507.997 26.3026L507.986 43.1942L519.035 34.7597L507.997 26.3026Z" fill="url(#paint114_linear_79_9479)"/>
<path d="M592.669 14.5671L592.661 22.0853L576.146 34.801L592.642 47.5429L592.635 55.0649L571.349 38.5601L550.303 55.0349L529.287 38.5263L507.971 55.0011L507.979 47.4791L524.494 34.7634L508.001 22.0215L508.009 14.5032L529.299 31.008L550.337 14.537L571.356 31.0418L592.669 14.5708V14.5671ZM566.555 34.7972L550.333 22.0553L534.096 34.7747L550.314 47.5166L566.555 34.801V34.7972Z" fill="url(#paint115_linear_79_9479)"/>
<path d="M592.646 43.2618L592.661 26.3702L581.612 34.8085L592.646 43.2618Z" fill="url(#paint116_linear_79_9479)"/>
<path d="M592.68 0.401824H508.02V2.93294H592.68V0.401824Z" fill="url(#paint117_linear_79_9479)"/>
<path d="M592.669 14.323H508.009V16.8541H592.669V14.323Z" fill="url(#paint118_linear_79_9479)"/>
<path d="M592.635 53.6905H507.975V56.0188H592.635V53.6905Z" fill="url(#paint119_linear_79_9479)"/>
<path d="M522.581 8.6073C522.581 4.59657 519.321 1.32564 515.301 1.32189C511.288 1.32189 508.013 4.58155 508.009 8.59603C508.009 12.6068 511.273 15.8777 515.289 15.8777C519.309 15.8777 522.578 12.618 522.581 8.6073ZM520.756 8.60354C520.756 11.5665 518.302 13.9775 515.293 13.9775C512.284 13.9775 509.838 11.559 509.842 8.59603C509.842 5.62554 512.295 3.21835 515.305 3.2221C518.314 3.2221 520.759 5.6368 520.756 8.6073V8.60354Z" fill="url(#paint120_linear_79_9479)"/>
<path d="M536.602 8.61856C536.602 4.60783 533.341 1.33691 529.321 1.33315C525.309 1.33315 522.033 4.59281 522.029 8.6073C522.029 12.618 525.294 15.889 529.31 15.889C533.33 15.889 536.598 12.6293 536.602 8.61856ZM534.772 8.61481C534.772 11.5778 532.319 13.9887 529.31 13.9887C526.301 13.9887 523.855 11.5703 523.859 8.6073C523.859 5.6368 526.312 3.22961 529.321 3.23337C532.33 3.23337 534.776 5.64807 534.772 8.61856V8.61481Z" fill="url(#paint121_linear_79_9479)"/>
<path d="M550.619 8.62983C550.619 4.6191 547.358 1.34818 543.338 1.34442C539.326 1.34442 536.05 4.60408 536.046 8.61856C536.046 12.6293 539.311 15.9002 543.327 15.9002C547.346 15.9002 550.615 12.6406 550.619 8.62983ZM548.793 8.62607C548.793 11.5891 546.34 14.0038 543.33 14C540.321 14 537.875 11.5815 537.879 8.61856C537.879 5.64807 540.332 3.24088 543.342 3.24464C546.351 3.24464 548.797 5.65934 548.793 8.62983V8.62607Z" fill="url(#paint122_linear_79_9479)"/>
<path d="M564.639 8.63734C564.639 4.62661 561.378 1.35569 557.358 1.35193C553.346 1.35193 550.07 4.61159 550.066 8.62607C550.066 12.6368 553.331 15.9077 557.347 15.9077C561.367 15.9077 564.635 12.6481 564.639 8.63734ZM562.81 8.63734C562.81 11.6003 560.356 14.015 557.347 14.0113C554.338 14.0113 551.892 11.5928 551.896 8.62983C551.896 5.65934 554.349 3.25215 557.358 3.2559C560.368 3.2559 562.813 5.6706 562.81 8.6411V8.63734Z" fill="url(#paint123_linear_79_9479)"/>
<path d="M578.656 8.64861C578.656 4.63788 575.395 1.36695 571.375 1.3632C567.363 1.3632 564.087 4.62285 564.083 8.63734C564.083 12.6481 567.348 15.919 571.364 15.919C575.384 15.919 578.652 12.6593 578.656 8.64861ZM576.826 8.64861C576.826 11.6116 574.373 14.0225 571.364 14.0225C568.355 14.0225 565.909 11.6041 565.913 8.6411C565.913 5.6706 568.366 3.26341 571.375 3.26717C574.384 3.26717 576.83 5.68187 576.826 8.65236V8.64861Z" fill="url(#paint124_linear_79_9479)"/>
<path d="M592.672 8.65987C592.672 4.64914 589.412 1.37822 585.392 1.37446C581.38 1.37446 578.104 4.63412 578.1 8.64861C578.1 12.6593 581.365 15.9303 585.381 15.9303C589.4 15.9303 592.669 12.6706 592.672 8.65987ZM590.847 8.65987C590.847 11.6229 588.393 14.0338 585.384 14.0338C582.375 14.0338 579.929 11.6153 579.933 8.65236C579.933 5.68187 582.386 3.27468 585.396 3.27843C588.405 3.27843 590.85 5.69313 590.847 8.66363V8.65987Z" fill="url(#paint125_linear_79_9479)"/>
<path d="M592.624 67.2699H507.964V69.801H592.624V67.2699Z" fill="url(#paint126_linear_79_9479)"/>
<path d="M592.631 61.6068C592.631 57.5923 589.37 54.3251 585.35 54.3251C581.334 54.3251 578.062 57.5848 578.058 61.5955C578.058 65.61 581.323 68.8771 585.339 68.8809C589.359 68.8809 592.627 65.6212 592.631 61.6068ZM590.802 61.6068C590.802 64.5735 588.348 66.9844 585.339 66.9807C582.33 66.9807 579.884 64.5622 579.888 61.5992C579.888 58.6325 582.341 56.2253 585.35 56.2253C588.36 56.2253 590.805 58.64 590.802 61.6068Z" fill="url(#paint127_linear_79_9479)"/>
<path d="M578.615 61.5955C578.615 57.581 575.354 54.3138 571.334 54.3138C567.318 54.3138 564.046 57.5735 564.042 61.5842C564.042 65.5987 567.306 68.8659 571.323 68.8696C575.342 68.8696 578.611 65.61 578.615 61.5955ZM576.785 61.5955C576.785 64.5622 574.332 66.9732 571.323 66.9694C568.313 66.9694 565.868 64.551 565.871 61.588C565.871 58.6212 568.325 56.2103 571.334 56.2141C574.343 56.2141 576.789 58.6288 576.785 61.5955Z" fill="url(#paint128_linear_79_9479)"/>
<path d="M564.594 61.5842C564.594 57.5697 561.333 54.3026 557.313 54.3026C553.297 54.3026 550.025 57.5622 550.021 61.573C550.021 65.5874 553.286 68.8546 557.302 68.8584C561.322 68.8584 564.59 65.5987 564.594 61.5842ZM562.768 61.5842C562.768 64.551 560.315 66.9619 557.306 66.9582C554.297 66.9582 551.851 64.5397 551.855 61.5767C551.855 58.61 554.308 56.199 557.317 56.2028C560.326 56.2028 562.772 58.6175 562.768 61.5842Z" fill="url(#paint129_linear_79_9479)"/>
<path d="M550.577 61.573C550.577 57.5585 547.316 54.2913 543.297 54.2913C539.281 54.2913 536.008 57.551 536.005 61.5617C536.005 65.5762 539.269 68.8434 543.285 68.8471C547.305 68.8471 550.574 65.5874 550.577 61.573ZM548.748 61.573C548.748 64.5397 546.295 66.9506 543.285 66.9469C540.276 66.9469 537.83 64.5284 537.834 61.5655C537.834 58.5987 540.287 56.1915 543.297 56.1915C546.306 56.1915 548.752 58.6062 548.748 61.573Z" fill="url(#paint130_linear_79_9479)"/>
<path d="M536.561 61.5617C536.561 57.5472 533.3 54.28 529.28 54.28C525.268 54.28 521.992 57.5397 521.988 61.5504C521.988 65.5649 525.253 68.8321 529.269 68.8358C533.288 68.8358 536.557 65.5762 536.561 61.5617ZM534.731 61.5617C534.731 64.5284 532.278 66.9394 529.269 66.9356C526.259 66.9356 523.814 64.5172 523.818 61.5542C523.818 58.5874 526.271 56.1803 529.28 56.1803C532.289 56.1803 534.735 58.595 534.731 61.5617Z" fill="url(#paint131_linear_79_9479)"/>
<path d="M522.54 61.5504C522.54 57.5359 519.279 54.2688 515.259 54.2688C511.247 54.2688 507.971 57.5284 507.967 61.5392C507.967 65.5536 511.232 68.8208 515.248 68.8246C519.268 68.8246 522.536 65.5649 522.54 61.5504ZM520.714 61.5504C520.714 64.5172 518.261 66.9281 515.252 66.9244C512.243 66.9244 509.797 64.5059 509.801 61.5429C509.801 58.5762 512.254 56.169 515.263 56.169C518.272 56.169 520.718 58.5837 520.714 61.5504Z" fill="url(#paint132_linear_79_9479)"/>
<path d="M592.661 26.3702L592.646 43.2618L603.695 34.8273L592.661 26.3702Z" fill="url(#paint133_linear_79_9479)"/>
<path d="M677.329 14.6347L677.321 22.1529L660.806 34.8686L677.302 47.6105L677.295 55.1325L656.009 38.6277L634.963 55.1025L613.947 38.5939L592.631 55.0687L592.639 47.5467L609.154 34.831L592.661 22.0891L592.669 14.5708L613.959 31.0756L634.997 14.6046L656.016 31.1094L677.329 14.6384V14.6347ZM651.215 34.8648L634.993 22.1229L618.752 34.8423L634.971 47.5842L651.211 34.8686L651.215 34.8648Z" fill="url(#paint134_linear_79_9479)"/>
<path d="M677.306 43.3294L677.321 26.4378L666.272 34.8761L677.306 43.3294Z" fill="url(#paint135_linear_79_9479)"/>
<path d="M677.34 0.465665H592.68V2.99678H677.34V0.465665Z" fill="url(#paint136_linear_79_9479)"/>
<path d="M677.329 14.3906H592.669V16.9217H677.329V14.3906Z" fill="url(#paint137_linear_79_9479)"/>
<path d="M677.299 53.7581H592.639V56.0865H677.299V53.7581Z" fill="url(#paint138_linear_79_9479)"/>
<path d="M607.245 8.67114C607.245 4.66041 603.984 1.38948 599.964 1.38573C595.952 1.38573 592.676 4.64539 592.672 8.65987C592.672 12.6706 595.937 15.9415 599.953 15.9415C603.973 15.9415 607.241 12.6819 607.245 8.67114ZM605.416 8.67114C605.416 11.6341 602.962 14.0451 599.953 14.0451C596.944 14.0451 594.498 11.6266 594.502 8.66363C594.502 5.69313 596.955 3.28594 599.964 3.2897C602.974 3.2897 605.419 5.7044 605.416 8.67114Z" fill="url(#paint139_linear_79_9479)"/>
<path d="M621.262 8.6824C621.262 4.67167 618.001 1.40075 613.981 1.397C609.969 1.397 606.693 4.65665 606.689 8.67114C606.689 12.6819 609.954 15.9528 613.97 15.9528C617.99 15.9528 621.258 12.6931 621.262 8.6824ZM619.432 8.6824C619.432 11.6454 616.979 14.0563 613.97 14.0563C610.961 14.0563 608.515 11.6379 608.519 8.67489C608.519 5.7044 610.972 3.29721 613.981 3.30097C616.99 3.30097 619.436 5.71566 619.432 8.6824Z" fill="url(#paint140_linear_79_9479)"/>
<path d="M635.279 8.69367C635.279 4.68294 632.018 1.41202 627.998 1.40826C623.986 1.40826 620.71 4.66792 620.706 8.6824C620.706 12.6931 623.971 15.9603 627.987 15.9641C632.006 15.9641 635.275 12.7044 635.279 8.69367ZM633.453 8.69367C633.453 11.6567 631 14.0714 627.99 14.0676C624.981 14.0676 622.535 11.6491 622.539 8.68616C622.539 5.71567 624.992 3.30848 628.002 3.31223C631.011 3.31223 633.457 5.72693 633.453 8.69367Z" fill="url(#paint141_linear_79_9479)"/>
<path d="M649.299 8.70494C649.299 4.69421 646.038 1.42328 642.018 1.41953C638.006 1.41953 634.73 4.67918 634.726 8.69367C634.726 12.7044 637.991 15.9753 642.007 15.9753C646.027 15.9753 649.295 12.7157 649.299 8.70494ZM647.469 8.70494C647.469 11.6679 645.016 14.0789 642.007 14.0789C638.998 14.0789 636.552 11.6604 636.556 8.69743C636.556 5.72693 639.009 3.31974 642.018 3.3235C645.028 3.3235 647.473 5.7382 647.469 8.70494Z" fill="url(#paint142_linear_79_9479)"/>
<path d="M663.316 8.7162C663.316 4.70547 660.055 1.43455 656.035 1.43079C652.023 1.43079 648.747 4.69045 648.743 8.70494C648.743 12.7157 652.008 15.9866 656.024 15.9866C660.044 15.9866 663.312 12.7269 663.316 8.7162ZM661.486 8.7162C661.486 11.6792 659.033 14.0901 656.024 14.0901C653.015 14.0901 650.569 11.6717 650.573 8.70869C650.573 5.7382 653.026 3.33101 656.035 3.33476C659.044 3.33476 661.49 5.74946 661.486 8.7162Z" fill="url(#paint143_linear_79_9479)"/>
<path d="M677.332 8.72747C677.332 4.71674 674.072 1.44582 670.052 1.44206C666.04 1.44206 662.764 4.70172 662.76 8.7162C662.76 12.7269 666.024 15.9979 670.041 15.9979C674.06 15.9979 677.329 12.7382 677.332 8.72747ZM675.507 8.72747C675.507 11.6905 673.053 14.1014 670.044 14.1014C667.035 14.1014 664.589 11.6829 664.593 8.71996C664.593 5.74946 667.046 3.34227 670.055 3.34603C673.065 3.34603 675.51 5.76073 675.507 8.72747Z" fill="url(#paint144_linear_79_9479)"/>
<path d="M677.287 67.3338H592.627V69.8649H677.287V67.3338Z" fill="url(#paint145_linear_79_9479)"/>
<path d="M677.291 61.6745C677.291 57.66 674.03 54.3965 670.01 54.3928C665.998 54.3928 662.722 57.6525 662.718 61.6632C662.718 65.6777 665.983 68.9448 669.999 68.9486C674.019 68.9486 677.287 65.6889 677.291 61.6745ZM675.465 61.6707C675.465 64.6374 673.012 67.0484 670.003 67.0446C666.994 67.0446 664.548 64.6262 664.552 61.6632C664.552 58.6964 667.005 56.2893 670.014 56.2893C673.023 56.2893 675.469 58.704 675.465 61.6707Z" fill="url(#paint146_linear_79_9479)"/>
<path d="M663.274 61.6632C663.274 57.6487 660.013 54.3815 655.994 54.3815C651.981 54.3815 648.706 57.6412 648.702 61.6519C648.702 65.6664 651.966 68.9336 655.982 68.9373C660.002 68.9373 663.271 65.6777 663.274 61.6632ZM661.445 61.6594C661.445 64.6262 658.992 67.0371 655.982 67.0334C652.973 67.0334 650.528 64.6149 650.531 61.6519C650.531 58.6852 652.984 56.2742 655.994 56.278C659.003 56.278 661.449 58.6927 661.445 61.6594Z" fill="url(#paint147_linear_79_9479)"/>
<path d="M649.258 61.6519C649.258 57.6374 645.997 54.3703 641.977 54.3703C637.965 54.3703 634.689 57.6299 634.685 61.6406C634.685 65.6551 637.95 68.9223 641.966 68.9261C645.986 68.9261 649.254 65.6664 649.258 61.6519ZM647.428 61.6482C647.428 64.6149 644.975 67.0258 641.966 67.0221C638.957 67.0221 636.511 64.6036 636.515 61.6406C636.515 58.6739 638.968 56.263 641.977 56.2667C644.986 56.2667 647.432 58.6814 647.428 61.6482Z" fill="url(#paint148_linear_79_9479)"/>
<path d="M635.237 61.6406C635.237 57.6262 631.976 54.359 627.957 54.359C623.944 54.359 620.668 57.6187 620.665 61.6294C620.665 65.6439 623.929 68.911 627.945 68.9148C631.965 68.9148 635.234 65.6551 635.237 61.6406ZM633.411 61.6406C633.411 64.6074 630.958 67.0183 627.949 67.0146C624.94 67.0146 622.494 64.5961 622.498 61.6331C622.498 58.6664 624.951 56.2592 627.96 56.2592C630.97 56.2592 633.415 58.6739 633.411 61.6406Z" fill="url(#paint149_linear_79_9479)"/>
<path d="M621.221 61.6294C621.221 57.6149 617.96 54.3477 613.94 54.3477C609.928 54.3477 606.652 57.6074 606.648 61.6181C606.648 65.6326 609.913 68.8998 613.929 68.9035C617.948 68.9035 621.217 65.6439 621.221 61.6294ZM619.391 61.6294C619.391 64.5961 616.938 67.0071 613.929 67.0033C610.919 67.0033 608.474 64.5849 608.477 61.6219C608.477 58.6551 610.931 56.2479 613.94 56.2479C616.949 56.2479 619.395 58.6626 619.391 61.6294Z" fill="url(#paint150_linear_79_9479)"/>
<path d="M607.204 61.6181C607.204 57.6036 603.943 54.3365 599.923 54.3365C595.907 54.3365 592.635 57.596 592.631 61.6068C592.631 65.6212 595.896 68.8885 599.912 68.8923C603.932 68.8923 607.2 65.6326 607.204 61.6181ZM605.374 61.6181C605.374 64.5849 602.921 66.9958 599.912 66.992C596.903 66.992 594.457 64.5736 594.461 61.6106C594.461 58.6439 596.914 56.2367 599.923 56.2367C602.932 56.2367 605.378 58.6514 605.374 61.6181Z" fill="url(#paint151_linear_79_9479)"/>
<path d="M677.321 26.4378L677.306 43.3294L688.355 34.8911L677.321 26.4378Z" fill="url(#paint152_linear_79_9479)"/>
<path d="M761.989 14.7023L761.981 22.2205L745.466 34.9399L761.962 47.6819L761.955 55.2039L740.669 38.6953L719.623 55.1701L698.607 38.6615L677.291 55.1363L677.299 47.6143L693.814 34.8986L677.321 22.1567L677.329 14.6384L698.619 31.1432L719.661 14.6722L740.68 31.177L761.992 14.706L761.989 14.7023ZM735.875 34.9286L719.653 22.1867L703.412 34.9024L719.631 47.6443L735.871 34.9286H735.875Z" fill="url(#paint153_linear_79_9479)"/>
<path d="M761.966 43.397L761.981 26.5054L750.932 34.9437L761.966 43.397Z" fill="url(#paint154_linear_79_9479)"/>
<path d="M762 0.533262H677.34V3.06438H762V0.533262Z" fill="url(#paint155_linear_79_9479)"/>
<path d="M761.989 14.4544H677.329V16.9855H761.989V14.4544Z" fill="url(#paint156_linear_79_9479)"/>
<path d="M761.959 53.8257H677.299V56.1541H761.959V53.8257Z" fill="url(#paint157_linear_79_9479)"/>
<path d="M691.905 8.73874C691.905 4.72801 688.644 1.45708 684.624 1.45333C680.612 1.45333 677.336 4.71298 677.332 8.72747C677.332 12.7382 680.597 16.0091 684.613 16.0091C688.633 16.0091 691.901 12.7495 691.905 8.73874ZM690.076 8.73874C690.076 11.7017 687.622 14.1127 684.613 14.1127C681.604 14.1127 679.158 11.6942 679.162 8.73122C679.162 5.76073 681.615 3.35354 684.624 3.3573C687.634 3.3573 690.079 5.772 690.076 8.73874Z" fill="url(#paint158_linear_79_9479)"/>
<path d="M705.922 8.75C705.922 4.73927 702.661 1.46835 698.641 1.46459C694.629 1.46459 691.353 4.72425 691.349 8.73873C691.349 12.7495 694.614 16.0204 698.63 16.0204C702.65 16.0204 705.918 12.7607 705.922 8.75ZM704.096 8.75C704.096 11.713 701.643 14.1239 698.634 14.1239C695.624 14.1239 693.179 11.7055 693.183 8.74249C693.183 5.772 695.636 3.36481 698.645 3.36856C701.654 3.36856 704.1 5.78326 704.096 8.75376V8.75Z" fill="url(#paint159_linear_79_9479)"/>
<path d="M719.942 8.76127C719.942 4.75054 716.681 1.47961 712.662 1.47586C708.649 1.47586 705.373 4.73552 705.37 8.75C705.37 12.7607 708.634 16.0317 712.65 16.0317C716.67 16.0317 719.939 12.772 719.942 8.76127ZM718.113 8.76127C718.113 11.7242 715.66 14.1389 712.65 14.1352C709.641 14.1352 707.195 11.7167 707.199 8.75376C707.199 5.78326 709.652 3.37607 712.662 3.37983C715.671 3.37983 718.117 5.79453 718.113 8.76502V8.76127Z" fill="url(#paint160_linear_79_9479)"/>
<path d="M733.959 8.77253C733.959 4.7618 730.698 1.49088 726.678 1.48712C722.666 1.48712 719.39 4.74678 719.386 8.76127C719.386 12.772 722.651 16.0429 726.667 16.0429C730.687 16.0429 733.955 12.7833 733.959 8.77253ZM732.13 8.77253C732.13 11.7355 729.676 14.1502 726.667 14.1465C723.658 14.1465 721.212 11.728 721.216 8.76502C721.216 5.79453 723.669 3.38734 726.678 3.39109C729.688 3.39109 732.133 5.80579 732.13 8.77629V8.77253Z" fill="url(#paint161_linear_79_9479)"/>
<path d="M747.976 8.7838C747.976 4.77307 744.715 1.50215 740.695 1.49839C736.683 1.49839 733.407 4.75805 733.403 8.77253C733.403 12.7833 736.668 16.0542 740.684 16.0542C744.704 16.0542 747.972 12.7945 747.976 8.7838ZM746.15 8.7838C746.15 11.7468 743.697 14.1577 740.688 14.1577C737.678 14.1577 735.233 11.7393 735.236 8.77629C735.236 5.80579 737.69 3.39861 740.699 3.40236C743.708 3.40236 746.154 5.81706 746.15 8.78755V8.7838Z" fill="url(#paint162_linear_79_9479)"/>
<path d="M761.996 8.79506C761.996 4.78434 758.735 1.51341 754.716 1.50966C750.703 1.50966 747.427 4.76931 747.424 8.7838C747.424 12.7945 750.688 16.0655 754.704 16.0655C758.724 16.0655 761.992 12.8058 761.996 8.79506ZM760.167 8.79506C760.167 11.758 757.713 14.169 754.704 14.169C751.695 14.169 749.249 11.7505 749.253 8.78755C749.253 5.81706 751.706 3.40987 754.716 3.41363C757.725 3.41363 760.17 5.82833 760.167 8.79882V8.79506Z" fill="url(#paint163_linear_79_9479)"/>
<path d="M761.947 67.4014H677.287V69.9325H761.947V67.4014Z" fill="url(#paint164_linear_79_9479)"/>
<path d="M761.955 61.7421C761.955 57.7276 758.694 54.4604 754.674 54.4604C750.662 54.4604 747.386 57.7201 747.382 61.7308C747.382 65.7453 750.647 69.0124 754.663 69.0162C758.683 69.0162 761.951 65.7565 761.955 61.7421ZM760.125 61.7383C760.125 64.705 757.672 67.116 754.663 67.1122C751.654 67.1122 749.208 64.6938 749.212 61.7308C749.212 58.764 751.665 56.3569 754.674 56.3569C757.683 56.3569 760.129 58.7716 760.125 61.7383Z" fill="url(#paint165_linear_79_9479)"/>
<path d="M747.934 61.7308C747.934 57.7163 744.673 54.4491 740.654 54.4491C736.641 54.4491 733.365 57.7088 733.362 61.7195C733.362 65.734 736.626 69.0012 740.642 69.0049C744.662 69.0049 747.931 65.7453 747.934 61.7308ZM746.105 61.727C746.105 64.6938 743.652 67.1047 740.642 67.101C737.633 67.101 735.188 64.6825 735.191 61.7158C735.191 58.749 737.644 56.3418 740.654 56.3418C743.663 56.3418 746.109 58.7565 746.105 61.7233V61.727Z" fill="url(#paint166_linear_79_9479)"/>
<path d="M733.918 61.7195C733.918 57.705 730.657 54.4379 726.637 54.4379C722.625 54.4379 719.349 57.6975 719.345 61.7083C719.345 65.7227 722.61 68.9899 726.626 68.9937C730.646 68.9937 733.914 65.734 733.918 61.7195ZM732.088 61.7158C732.088 64.6825 729.635 67.0934 726.626 67.0897C723.617 67.0897 721.171 64.6712 721.175 61.7045C721.175 58.7378 723.628 56.3268 726.637 56.3306C729.646 56.3306 732.092 58.7453 732.088 61.712V61.7158Z" fill="url(#paint167_linear_79_9479)"/>
<path d="M719.897 61.7083C719.897 57.6938 716.636 54.4266 712.617 54.4266C708.604 54.4266 705.328 57.6863 705.325 61.697C705.325 65.7115 708.589 68.9786 712.605 68.9824C716.625 68.9824 719.893 65.7227 719.897 61.7083ZM718.071 61.7045C718.071 64.6712 715.618 67.0822 712.609 67.0784C709.6 67.0784 707.154 64.66 707.158 61.697C707.158 58.7302 709.611 56.3231 712.62 56.3231C715.63 56.3231 718.075 58.7378 718.071 61.7045Z" fill="url(#paint168_linear_79_9479)"/>
<path d="M705.881 61.697C705.881 57.6825 702.62 54.4153 698.6 54.4153C694.588 54.4153 691.312 57.675 691.308 61.6857C691.308 65.7002 694.573 68.9674 698.589 68.9711C702.608 68.9711 705.877 65.7115 705.881 61.697ZM704.051 61.6932C704.051 64.66 701.598 67.0709 698.589 67.0672C695.579 67.0672 693.134 64.6487 693.137 61.682C693.137 58.7152 695.591 56.308 698.6 56.308C701.609 56.308 704.055 58.7227 704.051 61.6895V61.6932Z" fill="url(#paint169_linear_79_9479)"/>
<path d="M691.864 61.6857C691.864 57.6712 688.603 54.4041 684.583 54.4041C680.571 54.4041 677.295 57.6637 677.291 61.6745C677.291 65.6889 680.556 68.9561 684.572 68.9599C688.592 68.9599 691.86 65.7002 691.864 61.6857ZM690.034 61.682C690.034 64.6487 687.581 67.0596 684.572 67.0559C681.563 67.0559 679.117 64.6374 679.121 61.6745C679.121 58.7077 681.574 56.3005 684.583 56.3005C687.592 56.3005 690.038 58.7152 690.034 61.682Z" fill="url(#paint170_linear_79_9479)"/>
<defs>
<linearGradient id="paint0_linear_79_9479" x1="0" y1="34.9663" x2="762" y2="34.9663" gradientUnits="userSpaceOnUse">
<stop stop-color="#EDEDED" stop-opacity="0"/>
<stop offset="1" stop-color="#EDEDED"/>
</linearGradient>
<linearGradient id="paint1_linear_79_9479" x1="0" y1="34.9663" x2="762" y2="34.9663" gradientUnits="userSpaceOnUse">
<stop stop-color="#EDEDED" stop-opacity="0"/>
<stop offset="1" stop-color="#EDEDED"/>
</linearGradient>
<linearGradient id="paint2_linear_79_9479" x1="0" y1="34.9663" x2="762" y2="34.9663" gradientUnits="userSpaceOnUse">
<stop stop-color="#EDEDED" stop-opacity="0"/>
<stop offset="1" stop-color="#EDEDED"/>
</linearGradient>
<linearGradient id="paint3_linear_79_9479" x1="0" y1="34.9663" x2="762" y2="34.9663" gradientUnits="userSpaceOnUse">
<stop stop-color="#EDEDED" stop-opacity="0"/>
<stop offset="1" stop-color="#EDEDED"/>
</linearGradient>
<linearGradient id="paint4_linear_79_9479" x1="0" y1="34.9663" x2="762" y2="34.9663" gradientUnits="userSpaceOnUse">
<stop stop-color="#EDEDED" stop-opacity="0"/>
<stop offset="1" stop-color="#EDEDED"/>
</linearGradient>
<linearGradient id="paint5_linear_79_9479" x1="0" y1="34.9663" x2="762" y2="34.9663" gradientUnits="userSpaceOnUse">
<stop stop-color="#EDEDED" stop-opacity="0"/>
<stop offset="1" stop-color="#EDEDED"/>
</linearGradient>
<linearGradient id="paint6_linear_79_9479" x1="0" y1="34.9663" x2="762" y2="34.9663" gradientUnits="userSpaceOnUse">
<stop stop-color="#EDEDED" stop-opacity="0"/>
<stop offset="1" stop-color="#EDEDED"/>
</linearGradient>
<linearGradient id="paint7_linear_79_9479" x1="0" y1="34.9663" x2="762" y2="34.9663" gradientUnits="userSpaceOnUse">
<stop stop-color="#EDEDED" stop-opacity="0"/>
<stop offset="1" stop-color="#EDEDED"/>
</linearGradient>
<linearGradient id="paint8_linear_79_9479" x1="0" y1="34.9663" x2="762" y2="34.9663" gradientUnits="userSpaceOnUse">
<stop stop-color="#EDEDED" stop-opacity="0"/>
<stop offset="1" stop-color="#EDEDED"/>
</linearGradient>
<linearGradient id="paint9_linear_79_9479" x1="0" y1="34.9663" x2="762" y2="34.9663" gradientUnits="userSpaceOnUse">
<stop stop-color="#EDEDED" stop-opacity="0"/>
<stop offset="1" stop-color="#EDEDED"/>
</linearGradient>
<linearGradient id="paint10_linear_79_9479" x1="0" y1="34.9663" x2="762" y2="34.9663" gradientUnits="userSpaceOnUse">
<stop stop-color="#EDEDED" stop-opacity="0"/>
<stop offset="1" stop-color="#EDEDED"/>
</linearGradient>
<linearGradient id="paint11_linear_79_9479" x1="0" y1="34.9663" x2="762" y2="34.9663" gradientUnits="userSpaceOnUse">
<stop stop-color="#EDEDED" stop-opacity="0"/>
<stop offset="1" stop-color="#EDEDED"/>
</linearGradient>
<linearGradient id="paint12_linear_79_9479" x1="0" y1="34.9663" x2="762" y2="34.9663" gradientUnits="userSpaceOnUse">
<stop stop-color="#EDEDED" stop-opacity="0"/>
<stop offset="1" stop-color="#EDEDED"/>
</linearGradient>
<linearGradient id="paint13_linear_79_9479" x1="0" y1="34.9663" x2="762" y2="34.9663" gradientUnits="userSpaceOnUse">
<stop stop-color="#EDEDED" stop-opacity="0"/>
<stop offset="1" stop-color="#EDEDED"/>
</linearGradient>
<linearGradient id="paint14_linear_79_9479" x1="0" y1="34.9663" x2="762" y2="34.9663" gradientUnits="userSpaceOnUse">
<stop stop-color="#EDEDED" stop-opacity="0"/>
<stop offset="1" stop-color="#EDEDED"/>
</linearGradient>
<linearGradient id="paint15_linear_79_9479" x1="0" y1="34.9663" x2="762" y2="34.9663" gradientUnits="userSpaceOnUse">
<stop stop-color="#EDEDED" stop-opacity="0"/>
<stop offset="1" stop-color="#EDEDED"/>
</linearGradient>
<linearGradient id="paint16_linear_79_9479" x1="0" y1="34.9663" x2="762" y2="34.9663" gradientUnits="userSpaceOnUse">
<stop stop-color="#EDEDED" stop-opacity="0"/>
<stop offset="1" stop-color="#EDEDED"/>
</linearGradient>
<linearGradient id="paint17_linear_79_9479" x1="0" y1="34.9663" x2="762" y2="34.9663" gradientUnits="userSpaceOnUse">
<stop stop-color="#EDEDED" stop-opacity="0"/>
<stop offset="1" stop-color="#EDEDED"/>
</linearGradient>
<linearGradient id="paint18_linear_79_9479" x1="0" y1="34.9663" x2="762" y2="34.9663" gradientUnits="userSpaceOnUse">
<stop stop-color="#EDEDED" stop-opacity="0"/>
<stop offset="1" stop-color="#EDEDED"/>
</linearGradient>
<linearGradient id="paint19_linear_79_9479" x1="0" y1="34.9663" x2="762" y2="34.9663" gradientUnits="userSpaceOnUse">
<stop stop-color="#EDEDED" stop-opacity="0"/>
<stop offset="1" stop-color="#EDEDED"/>
</linearGradient>
<linearGradient id="paint20_linear_79_9479" x1="0" y1="34.9663" x2="762" y2="34.9663" gradientUnits="userSpaceOnUse">
<stop stop-color="#EDEDED" stop-opacity="0"/>
<stop offset="1" stop-color="#EDEDED"/>
</linearGradient>
<linearGradient id="paint21_linear_79_9479" x1="0" y1="34.9663" x2="762" y2="34.9663" gradientUnits="userSpaceOnUse">
<stop stop-color="#EDEDED" stop-opacity="0"/>
<stop offset="1" stop-color="#EDEDED"/>
</linearGradient>
<linearGradient id="paint22_linear_79_9479" x1="0" y1="34.9663" x2="762" y2="34.9663" gradientUnits="userSpaceOnUse">
<stop stop-color="#EDEDED" stop-opacity="0"/>
<stop offset="1" stop-color="#EDEDED"/>
</linearGradient>
<linearGradient id="paint23_linear_79_9479" x1="0" y1="34.9663" x2="762" y2="34.9663" gradientUnits="userSpaceOnUse">
<stop stop-color="#EDEDED" stop-opacity="0"/>
<stop offset="1" stop-color="#EDEDED"/>
</linearGradient>
<linearGradient id="paint24_linear_79_9479" x1="0" y1="34.9663" x2="762" y2="34.9663" gradientUnits="userSpaceOnUse">
<stop stop-color="#EDEDED" stop-opacity="0"/>
<stop offset="1" stop-color="#EDEDED"/>
</linearGradient>
<linearGradient id="paint25_linear_79_9479" x1="0" y1="34.9663" x2="762" y2="34.9663" gradientUnits="userSpaceOnUse">
<stop stop-color="#EDEDED" stop-opacity="0"/>
<stop offset="1" stop-color="#EDEDED"/>
</linearGradient>
<linearGradient id="paint26_linear_79_9479" x1="0" y1="34.9663" x2="762" y2="34.9663" gradientUnits="userSpaceOnUse">
<stop stop-color="#EDEDED" stop-opacity="0"/>
<stop offset="1" stop-color="#EDEDED"/>
</linearGradient>
<linearGradient id="paint27_linear_79_9479" x1="0" y1="34.9663" x2="762" y2="34.9663" gradientUnits="userSpaceOnUse">
<stop stop-color="#EDEDED" stop-opacity="0"/>
<stop offset="1" stop-color="#EDEDED"/>
</linearGradient>
<linearGradient id="paint28_linear_79_9479" x1="0" y1="34.9663" x2="762" y2="34.9663" gradientUnits="userSpaceOnUse">
<stop stop-color="#EDEDED" stop-opacity="0"/>
<stop offset="1" stop-color="#EDEDED"/>
</linearGradient>
<linearGradient id="paint29_linear_79_9479" x1="0" y1="34.9663" x2="762" y2="34.9663" gradientUnits="userSpaceOnUse">
<stop stop-color="#EDEDED" stop-opacity="0"/>
<stop offset="1" stop-color="#EDEDED"/>
</linearGradient>
<linearGradient id="paint30_linear_79_9479" x1="0" y1="34.9663" x2="762" y2="34.9663" gradientUnits="userSpaceOnUse">
<stop stop-color="#EDEDED" stop-opacity="0"/>
<stop offset="1" stop-color="#EDEDED"/>
</linearGradient>
<linearGradient id="paint31_linear_79_9479" x1="0" y1="34.9663" x2="762" y2="34.9663" gradientUnits="userSpaceOnUse">
<stop stop-color="#EDEDED" stop-opacity="0"/>
<stop offset="1" stop-color="#EDEDED"/>
</linearGradient>
<linearGradient id="paint32_linear_79_9479" x1="0" y1="34.9663" x2="762" y2="34.9663" gradientUnits="userSpaceOnUse">
<stop stop-color="#EDEDED" stop-opacity="0"/>
<stop offset="1" stop-color="#EDEDED"/>
</linearGradient>
<linearGradient id="paint33_linear_79_9479" x1="0" y1="34.9663" x2="762" y2="34.9663" gradientUnits="userSpaceOnUse">
<stop stop-color="#EDEDED" stop-opacity="0"/>
<stop offset="1" stop-color="#EDEDED"/>
</linearGradient>
<linearGradient id="paint34_linear_79_9479" x1="0" y1="34.9663" x2="762" y2="34.9663" gradientUnits="userSpaceOnUse">
<stop stop-color="#EDEDED" stop-opacity="0"/>
<stop offset="1" stop-color="#EDEDED"/>
</linearGradient>
<linearGradient id="paint35_linear_79_9479" x1="0" y1="34.9663" x2="762" y2="34.9663" gradientUnits="userSpaceOnUse">
<stop stop-color="#EDEDED" stop-opacity="0"/>
<stop offset="1" stop-color="#EDEDED"/>
</linearGradient>
<linearGradient id="paint36_linear_79_9479" x1="0" y1="34.9663" x2="762" y2="34.9663" gradientUnits="userSpaceOnUse">
<stop stop-color="#EDEDED" stop-opacity="0"/>
<stop offset="1" stop-color="#EDEDED"/>
</linearGradient>
<linearGradient id="paint37_linear_79_9479" x1="0" y1="34.9663" x2="762" y2="34.9663" gradientUnits="userSpaceOnUse">
<stop stop-color="#EDEDED" stop-opacity="0"/>
<stop offset="1" stop-color="#EDEDED"/>
</linearGradient>
<linearGradient id="paint38_linear_79_9479" x1="0" y1="34.9663" x2="762" y2="34.9663" gradientUnits="userSpaceOnUse">
<stop stop-color="#EDEDED" stop-opacity="0"/>
<stop offset="1" stop-color="#EDEDED"/>
</linearGradient>
<linearGradient id="paint39_linear_79_9479" x1="0" y1="34.9663" x2="762" y2="34.9663" gradientUnits="userSpaceOnUse">
<stop stop-color="#EDEDED" stop-opacity="0"/>
<stop offset="1" stop-color="#EDEDED"/>
</linearGradient>
<linearGradient id="paint40_linear_79_9479" x1="0" y1="34.9663" x2="762" y2="34.9663" gradientUnits="userSpaceOnUse">
<stop stop-color="#EDEDED" stop-opacity="0"/>
<stop offset="1" stop-color="#EDEDED"/>
</linearGradient>
<linearGradient id="paint41_linear_79_9479" x1="0" y1="34.9663" x2="762" y2="34.9663" gradientUnits="userSpaceOnUse">
<stop stop-color="#EDEDED" stop-opacity="0"/>
<stop offset="1" stop-color="#EDEDED"/>
</linearGradient>
<linearGradient id="paint42_linear_79_9479" x1="0" y1="34.9663" x2="762" y2="34.9663" gradientUnits="userSpaceOnUse">
<stop stop-color="#EDEDED" stop-opacity="0"/>
<stop offset="1" stop-color="#EDEDED"/>
</linearGradient>
<linearGradient id="paint43_linear_79_9479" x1="0" y1="34.9663" x2="762" y2="34.9663" gradientUnits="userSpaceOnUse">
<stop stop-color="#EDEDED" stop-opacity="0"/>
<stop offset="1" stop-color="#EDEDED"/>
</linearGradient>
<linearGradient id="paint44_linear_79_9479" x1="0" y1="34.9663" x2="762" y2="34.9663" gradientUnits="userSpaceOnUse">
<stop stop-color="#EDEDED" stop-opacity="0"/>
<stop offset="1" stop-color="#EDEDED"/>
</linearGradient>
<linearGradient id="paint45_linear_79_9479" x1="0" y1="34.9663" x2="762" y2="34.9663" gradientUnits="userSpaceOnUse">
<stop stop-color="#EDEDED" stop-opacity="0"/>
<stop offset="1" stop-color="#EDEDED"/>
</linearGradient>
<linearGradient id="paint46_linear_79_9479" x1="0" y1="34.9663" x2="762" y2="34.9663" gradientUnits="userSpaceOnUse">
<stop stop-color="#EDEDED" stop-opacity="0"/>
<stop offset="1" stop-color="#EDEDED"/>
</linearGradient>
<linearGradient id="paint47_linear_79_9479" x1="0" y1="34.9663" x2="762" y2="34.9663" gradientUnits="userSpaceOnUse">
<stop stop-color="#EDEDED" stop-opacity="0"/>
<stop offset="1" stop-color="#EDEDED"/>
</linearGradient>
<linearGradient id="paint48_linear_79_9479" x1="0" y1="34.9663" x2="762" y2="34.9663" gradientUnits="userSpaceOnUse">
<stop stop-color="#EDEDED" stop-opacity="0"/>
<stop offset="1" stop-color="#EDEDED"/>
</linearGradient>
<linearGradient id="paint49_linear_79_9479" x1="0" y1="34.9663" x2="762" y2="34.9663" gradientUnits="userSpaceOnUse">
<stop stop-color="#EDEDED" stop-opacity="0"/>
<stop offset="1" stop-color="#EDEDED"/>
</linearGradient>
<linearGradient id="paint50_linear_79_9479" x1="0" y1="34.9663" x2="762" y2="34.9663" gradientUnits="userSpaceOnUse">
<stop stop-color="#EDEDED" stop-opacity="0"/>
<stop offset="1" stop-color="#EDEDED"/>
</linearGradient>
<linearGradient id="paint51_linear_79_9479" x1="0" y1="34.9663" x2="762" y2="34.9663" gradientUnits="userSpaceOnUse">
<stop stop-color="#EDEDED" stop-opacity="0"/>
<stop offset="1" stop-color="#EDEDED"/>
</linearGradient>
<linearGradient id="paint52_linear_79_9479" x1="0" y1="34.9663" x2="762" y2="34.9663" gradientUnits="userSpaceOnUse">
<stop stop-color="#EDEDED" stop-opacity="0"/>
<stop offset="1" stop-color="#EDEDED"/>
</linearGradient>
<linearGradient id="paint53_linear_79_9479" x1="0" y1="34.9663" x2="762" y2="34.9663" gradientUnits="userSpaceOnUse">
<stop stop-color="#EDEDED" stop-opacity="0"/>
<stop offset="1" stop-color="#EDEDED"/>
</linearGradient>
<linearGradient id="paint54_linear_79_9479" x1="0" y1="34.9663" x2="762" y2="34.9663" gradientUnits="userSpaceOnUse">
<stop stop-color="#EDEDED" stop-opacity="0"/>
<stop offset="1" stop-color="#EDEDED"/>
</linearGradient>
<linearGradient id="paint55_linear_79_9479" x1="0" y1="34.9663" x2="762" y2="34.9663" gradientUnits="userSpaceOnUse">
<stop stop-color="#EDEDED" stop-opacity="0"/>
<stop offset="1" stop-color="#EDEDED"/>
</linearGradient>
<linearGradient id="paint56_linear_79_9479" x1="0" y1="34.9663" x2="762" y2="34.9663" gradientUnits="userSpaceOnUse">
<stop stop-color="#EDEDED" stop-opacity="0"/>
<stop offset="1" stop-color="#EDEDED"/>
</linearGradient>
<linearGradient id="paint57_linear_79_9479" x1="0" y1="34.9663" x2="762" y2="34.9663" gradientUnits="userSpaceOnUse">
<stop stop-color="#EDEDED" stop-opacity="0"/>
<stop offset="1" stop-color="#EDEDED"/>
</linearGradient>
<linearGradient id="paint58_linear_79_9479" x1="0" y1="34.9663" x2="762" y2="34.9663" gradientUnits="userSpaceOnUse">
<stop stop-color="#EDEDED" stop-opacity="0"/>
<stop offset="1" stop-color="#EDEDED"/>
</linearGradient>
<linearGradient id="paint59_linear_79_9479" x1="0" y1="34.9663" x2="762" y2="34.9663" gradientUnits="userSpaceOnUse">
<stop stop-color="#EDEDED" stop-opacity="0"/>
<stop offset="1" stop-color="#EDEDED"/>
</linearGradient>
<linearGradient id="paint60_linear_79_9479" x1="0" y1="34.9663" x2="762" y2="34.9663" gradientUnits="userSpaceOnUse">
<stop stop-color="#EDEDED" stop-opacity="0"/>
<stop offset="1" stop-color="#EDEDED"/>
</linearGradient>
<linearGradient id="paint61_linear_79_9479" x1="0" y1="34.9663" x2="762" y2="34.9663" gradientUnits="userSpaceOnUse">
<stop stop-color="#EDEDED" stop-opacity="0"/>
<stop offset="1" stop-color="#EDEDED"/>
</linearGradient>
<linearGradient id="paint62_linear_79_9479" x1="0" y1="34.9663" x2="762" y2="34.9663" gradientUnits="userSpaceOnUse">
<stop stop-color="#EDEDED" stop-opacity="0"/>
<stop offset="1" stop-color="#EDEDED"/>
</linearGradient>
<linearGradient id="paint63_linear_79_9479" x1="0" y1="34.9663" x2="762" y2="34.9663" gradientUnits="userSpaceOnUse">
<stop stop-color="#EDEDED" stop-opacity="0"/>
<stop offset="1" stop-color="#EDEDED"/>
</linearGradient>
<linearGradient id="paint64_linear_79_9479" x1="0" y1="34.9663" x2="762" y2="34.9663" gradientUnits="userSpaceOnUse">
<stop stop-color="#EDEDED" stop-opacity="0"/>
<stop offset="1" stop-color="#EDEDED"/>
</linearGradient>
<linearGradient id="paint65_linear_79_9479" x1="0" y1="34.9663" x2="762" y2="34.9663" gradientUnits="userSpaceOnUse">
<stop stop-color="#EDEDED" stop-opacity="0"/>
<stop offset="1" stop-color="#EDEDED"/>
</linearGradient>
<linearGradient id="paint66_linear_79_9479" x1="0" y1="34.9663" x2="762" y2="34.9663" gradientUnits="userSpaceOnUse">
<stop stop-color="#EDEDED" stop-opacity="0"/>
<stop offset="1" stop-color="#EDEDED"/>
</linearGradient>
<linearGradient id="paint67_linear_79_9479" x1="0" y1="34.9663" x2="762" y2="34.9663" gradientUnits="userSpaceOnUse">
<stop stop-color="#EDEDED" stop-opacity="0"/>
<stop offset="1" stop-color="#EDEDED"/>
</linearGradient>
<linearGradient id="paint68_linear_79_9479" x1="0" y1="34.9663" x2="762" y2="34.9663" gradientUnits="userSpaceOnUse">
<stop stop-color="#EDEDED" stop-opacity="0"/>
<stop offset="1" stop-color="#EDEDED"/>
</linearGradient>
<linearGradient id="paint69_linear_79_9479" x1="0" y1="34.9663" x2="762" y2="34.9663" gradientUnits="userSpaceOnUse">
<stop stop-color="#EDEDED" stop-opacity="0"/>
<stop offset="1" stop-color="#EDEDED"/>
</linearGradient>
<linearGradient id="paint70_linear_79_9479" x1="0" y1="34.9663" x2="762" y2="34.9663" gradientUnits="userSpaceOnUse">
<stop stop-color="#EDEDED" stop-opacity="0"/>
<stop offset="1" stop-color="#EDEDED"/>
</linearGradient>
<linearGradient id="paint71_linear_79_9479" x1="0" y1="34.9663" x2="762" y2="34.9663" gradientUnits="userSpaceOnUse">
<stop stop-color="#EDEDED" stop-opacity="0"/>
<stop offset="1" stop-color="#EDEDED"/>
</linearGradient>
<linearGradient id="paint72_linear_79_9479" x1="0" y1="34.9663" x2="762" y2="34.9663" gradientUnits="userSpaceOnUse">
<stop stop-color="#EDEDED" stop-opacity="0"/>
<stop offset="1" stop-color="#EDEDED"/>
</linearGradient>
<linearGradient id="paint73_linear_79_9479" x1="0" y1="34.9663" x2="762" y2="34.9663" gradientUnits="userSpaceOnUse">
<stop stop-color="#EDEDED" stop-opacity="0"/>
<stop offset="1" stop-color="#EDEDED"/>
</linearGradient>
<linearGradient id="paint74_linear_79_9479" x1="0" y1="34.9663" x2="762" y2="34.9663" gradientUnits="userSpaceOnUse">
<stop stop-color="#EDEDED" stop-opacity="0"/>
<stop offset="1" stop-color="#EDEDED"/>
</linearGradient>
<linearGradient id="paint75_linear_79_9479" x1="0" y1="34.9663" x2="762" y2="34.9663" gradientUnits="userSpaceOnUse">
<stop stop-color="#EDEDED" stop-opacity="0"/>
<stop offset="1" stop-color="#EDEDED"/>
</linearGradient>
<linearGradient id="paint76_linear_79_9479" x1="0" y1="34.9663" x2="762" y2="34.9663" gradientUnits="userSpaceOnUse">
<stop stop-color="#EDEDED" stop-opacity="0"/>
<stop offset="1" stop-color="#EDEDED"/>
</linearGradient>
<linearGradient id="paint77_linear_79_9479" x1="0" y1="34.9663" x2="762" y2="34.9663" gradientUnits="userSpaceOnUse">
<stop stop-color="#EDEDED" stop-opacity="0"/>
<stop offset="1" stop-color="#EDEDED"/>
</linearGradient>
<linearGradient id="paint78_linear_79_9479" x1="0" y1="34.9663" x2="762" y2="34.9663" gradientUnits="userSpaceOnUse">
<stop stop-color="#EDEDED" stop-opacity="0"/>
<stop offset="1" stop-color="#EDEDED"/>
</linearGradient>
<linearGradient id="paint79_linear_79_9479" x1="0" y1="34.9663" x2="762" y2="34.9663" gradientUnits="userSpaceOnUse">
<stop stop-color="#EDEDED" stop-opacity="0"/>
<stop offset="1" stop-color="#EDEDED"/>
</linearGradient>
<linearGradient id="paint80_linear_79_9479" x1="0" y1="34.9663" x2="762" y2="34.9663" gradientUnits="userSpaceOnUse">
<stop stop-color="#EDEDED" stop-opacity="0"/>
<stop offset="1" stop-color="#EDEDED"/>
</linearGradient>
<linearGradient id="paint81_linear_79_9479" x1="0" y1="34.9663" x2="762" y2="34.9663" gradientUnits="userSpaceOnUse">
<stop stop-color="#EDEDED" stop-opacity="0"/>
<stop offset="1" stop-color="#EDEDED"/>
</linearGradient>
<linearGradient id="paint82_linear_79_9479" x1="0" y1="34.9663" x2="762" y2="34.9663" gradientUnits="userSpaceOnUse">
<stop stop-color="#EDEDED" stop-opacity="0"/>
<stop offset="1" stop-color="#EDEDED"/>
</linearGradient>
<linearGradient id="paint83_linear_79_9479" x1="0" y1="34.9663" x2="762" y2="34.9663" gradientUnits="userSpaceOnUse">
<stop stop-color="#EDEDED" stop-opacity="0"/>
<stop offset="1" stop-color="#EDEDED"/>
</linearGradient>
<linearGradient id="paint84_linear_79_9479" x1="0" y1="34.9663" x2="762" y2="34.9663" gradientUnits="userSpaceOnUse">
<stop stop-color="#EDEDED" stop-opacity="0"/>
<stop offset="1" stop-color="#EDEDED"/>
</linearGradient>
<linearGradient id="paint85_linear_79_9479" x1="0" y1="34.9663" x2="762" y2="34.9663" gradientUnits="userSpaceOnUse">
<stop stop-color="#EDEDED" stop-opacity="0"/>
<stop offset="1" stop-color="#EDEDED"/>
</linearGradient>
<linearGradient id="paint86_linear_79_9479" x1="0" y1="34.9663" x2="762" y2="34.9663" gradientUnits="userSpaceOnUse">
<stop stop-color="#EDEDED" stop-opacity="0"/>
<stop offset="1" stop-color="#EDEDED"/>
</linearGradient>
<linearGradient id="paint87_linear_79_9479" x1="0" y1="34.9663" x2="762" y2="34.9663" gradientUnits="userSpaceOnUse">
<stop stop-color="#EDEDED" stop-opacity="0"/>
<stop offset="1" stop-color="#EDEDED"/>
</linearGradient>
<linearGradient id="paint88_linear_79_9479" x1="0" y1="34.9663" x2="762" y2="34.9663" gradientUnits="userSpaceOnUse">
<stop stop-color="#EDEDED" stop-opacity="0"/>
<stop offset="1" stop-color="#EDEDED"/>
</linearGradient>
<linearGradient id="paint89_linear_79_9479" x1="0" y1="34.9663" x2="762" y2="34.9663" gradientUnits="userSpaceOnUse">
<stop stop-color="#EDEDED" stop-opacity="0"/>
<stop offset="1" stop-color="#EDEDED"/>
</linearGradient>
<linearGradient id="paint90_linear_79_9479" x1="0" y1="34.9663" x2="762" y2="34.9663" gradientUnits="userSpaceOnUse">
<stop stop-color="#EDEDED" stop-opacity="0"/>
<stop offset="1" stop-color="#EDEDED"/>
</linearGradient>
<linearGradient id="paint91_linear_79_9479" x1="0" y1="34.9663" x2="762" y2="34.9663" gradientUnits="userSpaceOnUse">
<stop stop-color="#EDEDED" stop-opacity="0"/>
<stop offset="1" stop-color="#EDEDED"/>
</linearGradient>
<linearGradient id="paint92_linear_79_9479" x1="0" y1="34.9663" x2="762" y2="34.9663" gradientUnits="userSpaceOnUse">
<stop stop-color="#EDEDED" stop-opacity="0"/>
<stop offset="1" stop-color="#EDEDED"/>
</linearGradient>
<linearGradient id="paint93_linear_79_9479" x1="0" y1="34.9663" x2="762" y2="34.9663" gradientUnits="userSpaceOnUse">
<stop stop-color="#EDEDED" stop-opacity="0"/>
<stop offset="1" stop-color="#EDEDED"/>
</linearGradient>
<linearGradient id="paint94_linear_79_9479" x1="0" y1="34.9663" x2="762" y2="34.9663" gradientUnits="userSpaceOnUse">
<stop stop-color="#EDEDED" stop-opacity="0"/>
<stop offset="1" stop-color="#EDEDED"/>
</linearGradient>
<linearGradient id="paint95_linear_79_9479" x1="0" y1="34.9663" x2="762" y2="34.9663" gradientUnits="userSpaceOnUse">
<stop stop-color="#EDEDED" stop-opacity="0"/>
<stop offset="1" stop-color="#EDEDED"/>
</linearGradient>
<linearGradient id="paint96_linear_79_9479" x1="0" y1="34.9663" x2="762" y2="34.9663" gradientUnits="userSpaceOnUse">
<stop stop-color="#EDEDED" stop-opacity="0"/>
<stop offset="1" stop-color="#EDEDED"/>
</linearGradient>
<linearGradient id="paint97_linear_79_9479" x1="0" y1="34.9663" x2="762" y2="34.9663" gradientUnits="userSpaceOnUse">
<stop stop-color="#EDEDED" stop-opacity="0"/>
<stop offset="1" stop-color="#EDEDED"/>
</linearGradient>
<linearGradient id="paint98_linear_79_9479" x1="0" y1="34.9663" x2="762" y2="34.9663" gradientUnits="userSpaceOnUse">
<stop stop-color="#EDEDED" stop-opacity="0"/>
<stop offset="1" stop-color="#EDEDED"/>
</linearGradient>
<linearGradient id="paint99_linear_79_9479" x1="0" y1="34.9663" x2="762" y2="34.9663" gradientUnits="userSpaceOnUse">
<stop stop-color="#EDEDED" stop-opacity="0"/>
<stop offset="1" stop-color="#EDEDED"/>
</linearGradient>
<linearGradient id="paint100_linear_79_9479" x1="0" y1="34.9663" x2="762" y2="34.9663" gradientUnits="userSpaceOnUse">
<stop stop-color="#EDEDED" stop-opacity="0"/>
<stop offset="1" stop-color="#EDEDED"/>
</linearGradient>
<linearGradient id="paint101_linear_79_9479" x1="0" y1="34.9663" x2="762" y2="34.9663" gradientUnits="userSpaceOnUse">
<stop stop-color="#EDEDED" stop-opacity="0"/>
<stop offset="1" stop-color="#EDEDED"/>
</linearGradient>
<linearGradient id="paint102_linear_79_9479" x1="0" y1="34.9663" x2="762" y2="34.9663" gradientUnits="userSpaceOnUse">
<stop stop-color="#EDEDED" stop-opacity="0"/>
<stop offset="1" stop-color="#EDEDED"/>
</linearGradient>
<linearGradient id="paint103_linear_79_9479" x1="0" y1="34.9663" x2="762" y2="34.9663" gradientUnits="userSpaceOnUse">
<stop stop-color="#EDEDED" stop-opacity="0"/>
<stop offset="1" stop-color="#EDEDED"/>
</linearGradient>
<linearGradient id="paint104_linear_79_9479" x1="0" y1="34.9663" x2="762" y2="34.9663" gradientUnits="userSpaceOnUse">
<stop stop-color="#EDEDED" stop-opacity="0"/>
<stop offset="1" stop-color="#EDEDED"/>
</linearGradient>
<linearGradient id="paint105_linear_79_9479" x1="0" y1="34.9663" x2="762" y2="34.9663" gradientUnits="userSpaceOnUse">
<stop stop-color="#EDEDED" stop-opacity="0"/>
<stop offset="1" stop-color="#EDEDED"/>
</linearGradient>
<linearGradient id="paint106_linear_79_9479" x1="0" y1="34.9663" x2="762" y2="34.9663" gradientUnits="userSpaceOnUse">
<stop stop-color="#EDEDED" stop-opacity="0"/>
<stop offset="1" stop-color="#EDEDED"/>
</linearGradient>
<linearGradient id="paint107_linear_79_9479" x1="0" y1="34.9663" x2="762" y2="34.9663" gradientUnits="userSpaceOnUse">
<stop stop-color="#EDEDED" stop-opacity="0"/>
<stop offset="1" stop-color="#EDEDED"/>
</linearGradient>
<linearGradient id="paint108_linear_79_9479" x1="0" y1="34.9663" x2="762" y2="34.9663" gradientUnits="userSpaceOnUse">
<stop stop-color="#EDEDED" stop-opacity="0"/>
<stop offset="1" stop-color="#EDEDED"/>
</linearGradient>
<linearGradient id="paint109_linear_79_9479" x1="0" y1="34.9663" x2="762" y2="34.9663" gradientUnits="userSpaceOnUse">
<stop stop-color="#EDEDED" stop-opacity="0"/>
<stop offset="1" stop-color="#EDEDED"/>
</linearGradient>
<linearGradient id="paint110_linear_79_9479" x1="0" y1="34.9663" x2="762" y2="34.9663" gradientUnits="userSpaceOnUse">
<stop stop-color="#EDEDED" stop-opacity="0"/>
<stop offset="1" stop-color="#EDEDED"/>
</linearGradient>
<linearGradient id="paint111_linear_79_9479" x1="0" y1="34.9663" x2="762" y2="34.9663" gradientUnits="userSpaceOnUse">
<stop stop-color="#EDEDED" stop-opacity="0"/>
<stop offset="1" stop-color="#EDEDED"/>
</linearGradient>
<linearGradient id="paint112_linear_79_9479" x1="0" y1="34.9663" x2="762" y2="34.9663" gradientUnits="userSpaceOnUse">
<stop stop-color="#EDEDED" stop-opacity="0"/>
<stop offset="1" stop-color="#EDEDED"/>
</linearGradient>
<linearGradient id="paint113_linear_79_9479" x1="0" y1="34.9663" x2="762" y2="34.9663" gradientUnits="userSpaceOnUse">
<stop stop-color="#EDEDED" stop-opacity="0"/>
<stop offset="1" stop-color="#EDEDED"/>
</linearGradient>
<linearGradient id="paint114_linear_79_9479" x1="0" y1="34.9663" x2="762" y2="34.9663" gradientUnits="userSpaceOnUse">
<stop stop-color="#EDEDED" stop-opacity="0"/>
<stop offset="1" stop-color="#EDEDED"/>
</linearGradient>
<linearGradient id="paint115_linear_79_9479" x1="0" y1="34.9663" x2="762" y2="34.9663" gradientUnits="userSpaceOnUse">
<stop stop-color="#EDEDED" stop-opacity="0"/>
<stop offset="1" stop-color="#EDEDED"/>
</linearGradient>
<linearGradient id="paint116_linear_79_9479" x1="0" y1="34.9663" x2="762" y2="34.9663" gradientUnits="userSpaceOnUse">
<stop stop-color="#EDEDED" stop-opacity="0"/>
<stop offset="1" stop-color="#EDEDED"/>
</linearGradient>
<linearGradient id="paint117_linear_79_9479" x1="0" y1="34.9663" x2="762" y2="34.9663" gradientUnits="userSpaceOnUse">
<stop stop-color="#EDEDED" stop-opacity="0"/>
<stop offset="1" stop-color="#EDEDED"/>
</linearGradient>
<linearGradient id="paint118_linear_79_9479" x1="0" y1="34.9663" x2="762" y2="34.9663" gradientUnits="userSpaceOnUse">
<stop stop-color="#EDEDED" stop-opacity="0"/>
<stop offset="1" stop-color="#EDEDED"/>
</linearGradient>
<linearGradient id="paint119_linear_79_9479" x1="0" y1="34.9663" x2="762" y2="34.9663" gradientUnits="userSpaceOnUse">
<stop stop-color="#EDEDED" stop-opacity="0"/>
<stop offset="1" stop-color="#EDEDED"/>
</linearGradient>
<linearGradient id="paint120_linear_79_9479" x1="0" y1="34.9663" x2="762" y2="34.9663" gradientUnits="userSpaceOnUse">
<stop stop-color="#EDEDED" stop-opacity="0"/>
<stop offset="1" stop-color="#EDEDED"/>
</linearGradient>
<linearGradient id="paint121_linear_79_9479" x1="0" y1="34.9663" x2="762" y2="34.9663" gradientUnits="userSpaceOnUse">
<stop stop-color="#EDEDED" stop-opacity="0"/>
<stop offset="1" stop-color="#EDEDED"/>
</linearGradient>
<linearGradient id="paint122_linear_79_9479" x1="0" y1="34.9663" x2="762" y2="34.9663" gradientUnits="userSpaceOnUse">
<stop stop-color="#EDEDED" stop-opacity="0"/>
<stop offset="1" stop-color="#EDEDED"/>
</linearGradient>
<linearGradient id="paint123_linear_79_9479" x1="0" y1="34.9663" x2="762" y2="34.9663" gradientUnits="userSpaceOnUse">
<stop stop-color="#EDEDED" stop-opacity="0"/>
<stop offset="1" stop-color="#EDEDED"/>
</linearGradient>
<linearGradient id="paint124_linear_79_9479" x1="0" y1="34.9663" x2="762" y2="34.9663" gradientUnits="userSpaceOnUse">
<stop stop-color="#EDEDED" stop-opacity="0"/>
<stop offset="1" stop-color="#EDEDED"/>
</linearGradient>
<linearGradient id="paint125_linear_79_9479" x1="0" y1="34.9663" x2="762" y2="34.9663" gradientUnits="userSpaceOnUse">
<stop stop-color="#EDEDED" stop-opacity="0"/>
<stop offset="1" stop-color="#EDEDED"/>
</linearGradient>
<linearGradient id="paint126_linear_79_9479" x1="0" y1="34.9663" x2="762" y2="34.9663" gradientUnits="userSpaceOnUse">
<stop stop-color="#EDEDED" stop-opacity="0"/>
<stop offset="1" stop-color="#EDEDED"/>
</linearGradient>
<linearGradient id="paint127_linear_79_9479" x1="0" y1="34.9663" x2="762" y2="34.9663" gradientUnits="userSpaceOnUse">
<stop stop-color="#EDEDED" stop-opacity="0"/>
<stop offset="1" stop-color="#EDEDED"/>
</linearGradient>
<linearGradient id="paint128_linear_79_9479" x1="0" y1="34.9663" x2="762" y2="34.9663" gradientUnits="userSpaceOnUse">
<stop stop-color="#EDEDED" stop-opacity="0"/>
<stop offset="1" stop-color="#EDEDED"/>
</linearGradient>
<linearGradient id="paint129_linear_79_9479" x1="0" y1="34.9663" x2="762" y2="34.9663" gradientUnits="userSpaceOnUse">
<stop stop-color="#EDEDED" stop-opacity="0"/>
<stop offset="1" stop-color="#EDEDED"/>
</linearGradient>
<linearGradient id="paint130_linear_79_9479" x1="0" y1="34.9663" x2="762" y2="34.9663" gradientUnits="userSpaceOnUse">
<stop stop-color="#EDEDED" stop-opacity="0"/>
<stop offset="1" stop-color="#EDEDED"/>
</linearGradient>
<linearGradient id="paint131_linear_79_9479" x1="0" y1="34.9663" x2="762" y2="34.9663" gradientUnits="userSpaceOnUse">
<stop stop-color="#EDEDED" stop-opacity="0"/>
<stop offset="1" stop-color="#EDEDED"/>
</linearGradient>
<linearGradient id="paint132_linear_79_9479" x1="0" y1="34.9663" x2="762" y2="34.9663" gradientUnits="userSpaceOnUse">
<stop stop-color="#EDEDED" stop-opacity="0"/>
<stop offset="1" stop-color="#EDEDED"/>
</linearGradient>
<linearGradient id="paint133_linear_79_9479" x1="0" y1="34.9663" x2="762" y2="34.9663" gradientUnits="userSpaceOnUse">
<stop stop-color="#EDEDED" stop-opacity="0"/>
<stop offset="1" stop-color="#EDEDED"/>
</linearGradient>
<linearGradient id="paint134_linear_79_9479" x1="0" y1="34.9663" x2="762" y2="34.9663" gradientUnits="userSpaceOnUse">
<stop stop-color="#EDEDED" stop-opacity="0"/>
<stop offset="1" stop-color="#EDEDED"/>
</linearGradient>
<linearGradient id="paint135_linear_79_9479" x1="0" y1="34.9663" x2="762" y2="34.9663" gradientUnits="userSpaceOnUse">
<stop stop-color="#EDEDED" stop-opacity="0"/>
<stop offset="1" stop-color="#EDEDED"/>
</linearGradient>
<linearGradient id="paint136_linear_79_9479" x1="0" y1="34.9663" x2="762" y2="34.9663" gradientUnits="userSpaceOnUse">
<stop stop-color="#EDEDED" stop-opacity="0"/>
<stop offset="1" stop-color="#EDEDED"/>
</linearGradient>
<linearGradient id="paint137_linear_79_9479" x1="0" y1="34.9663" x2="762" y2="34.9663" gradientUnits="userSpaceOnUse">
<stop stop-color="#EDEDED" stop-opacity="0"/>
<stop offset="1" stop-color="#EDEDED"/>
</linearGradient>
<linearGradient id="paint138_linear_79_9479" x1="0" y1="34.9663" x2="762" y2="34.9663" gradientUnits="userSpaceOnUse">
<stop stop-color="#EDEDED" stop-opacity="0"/>
<stop offset="1" stop-color="#EDEDED"/>
</linearGradient>
<linearGradient id="paint139_linear_79_9479" x1="0" y1="34.9663" x2="762" y2="34.9663" gradientUnits="userSpaceOnUse">
<stop stop-color="#EDEDED" stop-opacity="0"/>
<stop offset="1" stop-color="#EDEDED"/>
</linearGradient>
<linearGradient id="paint140_linear_79_9479" x1="0" y1="34.9663" x2="762" y2="34.9663" gradientUnits="userSpaceOnUse">
<stop stop-color="#EDEDED" stop-opacity="0"/>
<stop offset="1" stop-color="#EDEDED"/>
</linearGradient>
<linearGradient id="paint141_linear_79_9479" x1="0" y1="34.9663" x2="762" y2="34.9663" gradientUnits="userSpaceOnUse">
<stop stop-color="#EDEDED" stop-opacity="0"/>
<stop offset="1" stop-color="#EDEDED"/>
</linearGradient>
<linearGradient id="paint142_linear_79_9479" x1="0" y1="34.9663" x2="762" y2="34.9663" gradientUnits="userSpaceOnUse">
<stop stop-color="#EDEDED" stop-opacity="0"/>
<stop offset="1" stop-color="#EDEDED"/>
</linearGradient>
<linearGradient id="paint143_linear_79_9479" x1="0" y1="34.9663" x2="762" y2="34.9663" gradientUnits="userSpaceOnUse">
<stop stop-color="#EDEDED" stop-opacity="0"/>
<stop offset="1" stop-color="#EDEDED"/>
</linearGradient>
<linearGradient id="paint144_linear_79_9479" x1="0" y1="34.9663" x2="762" y2="34.9663" gradientUnits="userSpaceOnUse">
<stop stop-color="#EDEDED" stop-opacity="0"/>
<stop offset="1" stop-color="#EDEDED"/>
</linearGradient>
<linearGradient id="paint145_linear_79_9479" x1="0" y1="34.9663" x2="762" y2="34.9663" gradientUnits="userSpaceOnUse">
<stop stop-color="#EDEDED" stop-opacity="0"/>
<stop offset="1" stop-color="#EDEDED"/>
</linearGradient>
<linearGradient id="paint146_linear_79_9479" x1="0" y1="34.9663" x2="762" y2="34.9663" gradientUnits="userSpaceOnUse">
<stop stop-color="#EDEDED" stop-opacity="0"/>
<stop offset="1" stop-color="#EDEDED"/>
</linearGradient>
<linearGradient id="paint147_linear_79_9479" x1="0" y1="34.9663" x2="762" y2="34.9663" gradientUnits="userSpaceOnUse">
<stop stop-color="#EDEDED" stop-opacity="0"/>
<stop offset="1" stop-color="#EDEDED"/>
</linearGradient>
<linearGradient id="paint148_linear_79_9479" x1="0" y1="34.9663" x2="762" y2="34.9663" gradientUnits="userSpaceOnUse">
<stop stop-color="#EDEDED" stop-opacity="0"/>
<stop offset="1" stop-color="#EDEDED"/>
</linearGradient>
<linearGradient id="paint149_linear_79_9479" x1="0" y1="34.9663" x2="762" y2="34.9663" gradientUnits="userSpaceOnUse">
<stop stop-color="#EDEDED" stop-opacity="0"/>
<stop offset="1" stop-color="#EDEDED"/>
</linearGradient>
<linearGradient id="paint150_linear_79_9479" x1="0" y1="34.9663" x2="762" y2="34.9663" gradientUnits="userSpaceOnUse">
<stop stop-color="#EDEDED" stop-opacity="0"/>
<stop offset="1" stop-color="#EDEDED"/>
</linearGradient>
<linearGradient id="paint151_linear_79_9479" x1="0" y1="34.9663" x2="762" y2="34.9663" gradientUnits="userSpaceOnUse">
<stop stop-color="#EDEDED" stop-opacity="0"/>
<stop offset="1" stop-color="#EDEDED"/>
</linearGradient>
<linearGradient id="paint152_linear_79_9479" x1="0" y1="34.9663" x2="762" y2="34.9663" gradientUnits="userSpaceOnUse">
<stop stop-color="#EDEDED" stop-opacity="0"/>
<stop offset="1" stop-color="#EDEDED"/>
</linearGradient>
<linearGradient id="paint153_linear_79_9479" x1="0" y1="34.9663" x2="762" y2="34.9663" gradientUnits="userSpaceOnUse">
<stop stop-color="#EDEDED" stop-opacity="0"/>
<stop offset="1" stop-color="#EDEDED"/>
</linearGradient>
<linearGradient id="paint154_linear_79_9479" x1="0" y1="34.9663" x2="762" y2="34.9663" gradientUnits="userSpaceOnUse">
<stop stop-color="#EDEDED" stop-opacity="0"/>
<stop offset="1" stop-color="#EDEDED"/>
</linearGradient>
<linearGradient id="paint155_linear_79_9479" x1="0" y1="34.9663" x2="762" y2="34.9663" gradientUnits="userSpaceOnUse">
<stop stop-color="#EDEDED" stop-opacity="0"/>
<stop offset="1" stop-color="#EDEDED"/>
</linearGradient>
<linearGradient id="paint156_linear_79_9479" x1="0" y1="34.9663" x2="762" y2="34.9663" gradientUnits="userSpaceOnUse">
<stop stop-color="#EDEDED" stop-opacity="0"/>
<stop offset="1" stop-color="#EDEDED"/>
</linearGradient>
<linearGradient id="paint157_linear_79_9479" x1="0" y1="34.9663" x2="762" y2="34.9663" gradientUnits="userSpaceOnUse">
<stop stop-color="#EDEDED" stop-opacity="0"/>
<stop offset="1" stop-color="#EDEDED"/>
</linearGradient>
<linearGradient id="paint158_linear_79_9479" x1="0" y1="34.9663" x2="762" y2="34.9663" gradientUnits="userSpaceOnUse">
<stop stop-color="#EDEDED" stop-opacity="0"/>
<stop offset="1" stop-color="#EDEDED"/>
</linearGradient>
<linearGradient id="paint159_linear_79_9479" x1="0" y1="34.9663" x2="762" y2="34.9663" gradientUnits="userSpaceOnUse">
<stop stop-color="#EDEDED" stop-opacity="0"/>
<stop offset="1" stop-color="#EDEDED"/>
</linearGradient>
<linearGradient id="paint160_linear_79_9479" x1="0" y1="34.9663" x2="762" y2="34.9663" gradientUnits="userSpaceOnUse">
<stop stop-color="#EDEDED" stop-opacity="0"/>
<stop offset="1" stop-color="#EDEDED"/>
</linearGradient>
<linearGradient id="paint161_linear_79_9479" x1="0" y1="34.9663" x2="762" y2="34.9663" gradientUnits="userSpaceOnUse">
<stop stop-color="#EDEDED" stop-opacity="0"/>
<stop offset="1" stop-color="#EDEDED"/>
</linearGradient>
<linearGradient id="paint162_linear_79_9479" x1="0" y1="34.9663" x2="762" y2="34.9663" gradientUnits="userSpaceOnUse">
<stop stop-color="#EDEDED" stop-opacity="0"/>
<stop offset="1" stop-color="#EDEDED"/>
</linearGradient>
<linearGradient id="paint163_linear_79_9479" x1="0" y1="34.9663" x2="762" y2="34.9663" gradientUnits="userSpaceOnUse">
<stop stop-color="#EDEDED" stop-opacity="0"/>
<stop offset="1" stop-color="#EDEDED"/>
</linearGradient>
<linearGradient id="paint164_linear_79_9479" x1="0" y1="34.9663" x2="762" y2="34.9663" gradientUnits="userSpaceOnUse">
<stop stop-color="#EDEDED" stop-opacity="0"/>
<stop offset="1" stop-color="#EDEDED"/>
</linearGradient>
<linearGradient id="paint165_linear_79_9479" x1="0" y1="34.9663" x2="762" y2="34.9663" gradientUnits="userSpaceOnUse">
<stop stop-color="#EDEDED" stop-opacity="0"/>
<stop offset="1" stop-color="#EDEDED"/>
</linearGradient>
<linearGradient id="paint166_linear_79_9479" x1="0" y1="34.9663" x2="762" y2="34.9663" gradientUnits="userSpaceOnUse">
<stop stop-color="#EDEDED" stop-opacity="0"/>
<stop offset="1" stop-color="#EDEDED"/>
</linearGradient>
<linearGradient id="paint167_linear_79_9479" x1="0" y1="34.9663" x2="762" y2="34.9663" gradientUnits="userSpaceOnUse">
<stop stop-color="#EDEDED" stop-opacity="0"/>
<stop offset="1" stop-color="#EDEDED"/>
</linearGradient>
<linearGradient id="paint168_linear_79_9479" x1="0" y1="34.9663" x2="762" y2="34.9663" gradientUnits="userSpaceOnUse">
<stop stop-color="#EDEDED" stop-opacity="0"/>
<stop offset="1" stop-color="#EDEDED"/>
</linearGradient>
<linearGradient id="paint169_linear_79_9479" x1="0" y1="34.9663" x2="762" y2="34.9663" gradientUnits="userSpaceOnUse">
<stop stop-color="#EDEDED" stop-opacity="0"/>
<stop offset="1" stop-color="#EDEDED"/>
</linearGradient>
<linearGradient id="paint170_linear_79_9479" x1="0" y1="34.9663" x2="762" y2="34.9663" gradientUnits="userSpaceOnUse">
<stop stop-color="#EDEDED" stop-opacity="0"/>
<stop offset="1" stop-color="#EDEDED"/>
</linearGradient>
</defs>
</svg>
